<?xml version="1.0" standalone="no"?>
<!DOCTYPE svg PUBLIC "-//W3C//DTD SVG 1.1//EN" "http://www.w3.org/Graphics/SVG/1.1/DTD/svg11.dtd" >
<svg xmlns="http://www.w3.org/2000/svg">
<metadata></metadata>
<defs>
<font id="lumberjackregular" horiz-adv-x="1206" >
<font-face units-per-em="2048" ascent="1638" descent="-410" />
<missing-glyph horiz-adv-x="409" />
<glyph horiz-adv-x="0" />
<glyph horiz-adv-x="682" />
<glyph horiz-adv-x="0" />
<glyph horiz-adv-x="0" />
<glyph unicode="&#xd;" horiz-adv-x="409" />
<glyph unicode=" "  horiz-adv-x="409" />
<glyph unicode="&#x09;" horiz-adv-x="409" />
<glyph unicode="&#xa0;" horiz-adv-x="409" />
<glyph unicode="!" horiz-adv-x="503" d="M123 121q0 23 0.5 34.5t2.5 30t7.5 28.5t14.5 21t24 16.5t35 6.5q105 9 147 -35q16 -14 22 -67t1 -84q-2 -22 -10.5 -36.5t-22 -21.5t-31 -11t-38 -3.5t-44.5 0.5q-108 0 -108 121zM131 481q-1 26 0.5 338.5t-0.5 452.5q0 70 22.5 102.5t73.5 32.5h76q60 -5 64 -121 q2 -119 0.5 -265t-3.5 -332.5t-2 -211.5q0 -58 -27 -79t-91 -21t-87 18t-26 86z" />
<glyph unicode="&#x22;" horiz-adv-x="600" d="M82 1018q0 299 4 332q7 50 36.5 67t74.5 17q43 0 60 -25.5t17 -95.5q0 -71 -20 -107q-89 -198 -109 -221q-10 -12 -25 -15t-24 5q-5 4 -8 9.5t-3.5 9.5t-1.5 12.5t-1 11.5zM321.5 1188.5q1.5 138.5 4.5 161.5q4 35 22.5 54.5t39.5 24.5t50 5q44 0 62 -25.5t18 -95.5 t-18 -107l-21.5 -43l-35 -70t-34.5 -66t-26 -42q-9 -12 -24.5 -15t-24.5 5q-12 9 -12 43q-2 32 -0.5 170.5z" />
<glyph unicode="#" horiz-adv-x="1132" d="M25 455q1 4 3 25t7 28q19 32 63 29q64 0 115 -2q14 0 14 12q34 191 66 397q2 8 -2.5 13.5t-11.5 5.5q-74 0 -80 -2q-46 -3 -64.5 4.5t-21.5 40.5q-3 42 6 71q0 2 1.5 7t2 6.5t1.5 5.5t2 5t3.5 4t5 3.5t6.5 2t8.5 2t10.5 1t14 0.5h135q11 0 15 12l28 183q12 92 76 92 q17 0 34.5 0.5t28 0.5t21.5 -1q24 -1 28.5 -39.5t-3.5 -63.5l-29 -168q-1 -6 3.5 -11t10.5 -5h203q10 0 14 12l31 183q15 92 76 92q17 0 34.5 0.5t28 0.5t21.5 -1q42 -2 24 -103l-28 -165q-1 -7 3.5 -13t10.5 -6q57 0 80 2q59 0 76 -9t14 -40q-1 -9 -3 -23t-2.5 -20 t-2.5 -14.5t-4.5 -14.5t-5.5 -12q-3 -7 -10.5 -11.5t-19 -6.5t-21 -2.5t-24 -1t-20.5 -0.5h-88q-11 0 -14 -13q-45 -283 -66 -401q-2 -8 3 -13.5t12 -5.5q55 0 80 -2q54 -1 69.5 -13t12.5 -42q-1 -14 -5.5 -35t-5.5 -28q-2 -15 -8 -25t-18.5 -14t-20 -5.5t-24.5 -1.5h-21 h-92q-11 0 -14 -12l-43 -248q-13 -69 -28 -89t-67 -17q-10 1 -26.5 2t-24.5 2t-17.5 4.5t-15.5 9.5q-20 25 -2 111q22 122 37 223q1 7 -2.5 13t-9.5 6q-34 0 -102 1t-101 1q-14 0 -14 -13q-37 -214 -45 -254q-2 -12 -5.5 -31.5t-5 -26.5t-5 -19t-8 -15.5t-12.5 -8t-19 -5.5 t-27 0q-76 8 -96 31q-9 10 -10.5 25t0.5 28.5t8 44.5l39 231q1 6 -3 11.5t-10 5.5q-17 0 -33 0.5t-25 1t-11 0.5q-11 1 -24.5 1t-18 0.5t-10 1.5t-9.5 3q-39 25 -26 74zM412 551q0 -6 4 -11t10 -5q33 0 101 -1.5t102 -1.5q14 0 14 13q32 178 66 399q2 6 -3 11.5t-12 5.5 h-200q-6 1 -10.5 -2.5t-4.5 -8.5q-12 -68 -34.5 -204t-32.5 -195z" />
<glyph unicode="$" horiz-adv-x="989" d="M63 186q0 46 3 90q0 31 21 52.5t52 23.5h54q31 1 53 -19.5t24 -51.5v-23q3 -36 31 -55q75 -58 193 -58q89 -2 153 54t60 178q-1 32 -15 59.5t-31.5 46t-53.5 39t-61 32t-73 31.5q-8 3 -12 5q-67 29 -128 67t-118 88t-95 113.5t-48 130.5q-25 182 23 285.5t181 155.5 q17 6 46 12q12 1 19 10.5t7 20.5t0.5 29t0.5 28t1 24t3 22t5.5 16t9 12.5t13.5 5.5q17 3 34 3.5t26.5 0t33.5 -2.5t33 -3q12 -1 19.5 -6.5t10 -19.5t3 -23t0.5 -29v-12q0 -14 4 -54q0 -19 18 -22q145 -28 264 -131q40 -29 43 -86q2 -29 2 -90q1 -32 -21.5 -55t-55.5 -23 l-72 2q-28 0 -42.5 20t-16.5 51v29q-3 31 -25 53q-67 70 -201 70q-55 0 -102.5 -34t-66.5 -94.5t20 -143.5q21 -46 63.5 -87t86.5 -66.5t78 -40.5t52 -19l67.5 -27t65.5 -30t66 -38t55.5 -47t50 -61t32 -75t18.5 -95q7 -96 -2.5 -163t-41 -115t-76 -79.5t-116.5 -62.5 q-57 -12 -137 -18l-10 -74q0 -5 -0.5 -18t-1 -21t-3 -20t-6.5 -18.5t-13 -11.5t-21 -5q-7 0 -35 -1t-45.5 0t-36.5 5q-7 2 -12 3.5t-9.5 3t-7 5t-5 5.5t-3.5 8.5t-2 10.5t-1.5 14.5t-1 17.5t-1 22.5t-0.5 26.5q-2 23 -8 59q-134 23 -226 106q-36 29 -39 82z" />
<glyph unicode="%" horiz-adv-x="1196" d="M41 1068.5q-3 135.5 22 188.5q34 82 86 116t130 36q165 5 213 -162q35 -124 22 -258q-6 -57 -26 -98t-56 -82q-25 -27 -57.5 -43.5t-65.5 -20t-58 -3t-46 5.5q-33 7 -70 42.5t-59 79.5q-32 63 -35 198.5zM172 1149q0 -160 6 -191q9 -37 32 -65t58 -29q47 -3 72 25t27 65 q14 143 10 217q-3 43 -17.5 76t-33.5 45q-27 19 -65.5 11t-57.5 -46q-29 -55 -31 -108zM237.5 69q-4.5 42 24.5 109q8 18 235 502.5t273 615.5q36 101 121 78q57 -14 24 -117q-11 -36 -263 -590t-255 -561q-45 -114 -112 -92q-43 13 -47.5 55zM677.5 300.5 q-2.5 135.5 20.5 188.5q34 81 86 116t131 38q164 5 213 -164q34 -120 23 -246q-11 -111 -82 -192q-25 -27 -58 -43.5t-65.5 -20t-58 -3t-45.5 5.5q-33 7 -71 43t-60 79q-31 63 -33.5 198.5zM811 346l4 -141q0 -15 6 -27q33 -79 84 -82q47 -3 72 25.5t27 66.5q18 160 10 215 q-17 102 -51 121q-28 21 -66 12t-57 -47q-6 -8 -19 -57q-10 -48 -10 -86z" />
<glyph unicode="&#x26;" horiz-adv-x="1075" d="M21.5 399.5q0.5 52.5 22 123t65.5 139.5q51 80 163 161q12 7 15.5 22t-4.5 27q-48 75 -50 80q-23 53 -34.5 96.5t-8.5 99t27 109.5q72 157 264 162q43 2 79 -4t77.5 -25t76 -63t56.5 -110q9 -25 10 -60.5t-9.5 -82t-33.5 -85.5q-33 -53 -182 -160q-27 -20 -10 -51 q24 -35 103.5 -152.5t125.5 -183.5q3 -5 10.5 -4.5t10.5 6.5l49 107q10 21 23.5 31t37.5 10l90 -4q19 0 29 -18.5t0 -43.5l-25 -67q-32 -78 -92 -174q-5 -6 -5 -15.5t5 -15.5q72 -104 133 -182q20 -23 11.5 -49t-39.5 -25q-22 1 -62 -0.5t-47 -1.5q-41 0 -65 35q-2 2 -19 26 t-31 45q-4 7 -13 8.5t-15 -4.5q-111 -103 -228 -114q-108 -11 -227 12q-56 13 -116 54.5t-99 101.5q-17 26 -31 55.5t-26 80.5t-11.5 103.5zM203 428.5q4 -43.5 12.5 -73.5t20.5 -54q25 -52 81 -99t113 -50q135 -8 232 96q18 18 4 39q-137 204 -265 399q-5 9 -15.5 11 t-18.5 -5q-69 -52 -97 -84q-38 -40 -54.5 -88t-12.5 -91.5zM363 1163.5q-16 -48.5 22 -129.5q3 -6 49 -84q13 -19 35 -8q56 35 86.5 66t34.5 69q9 76 -19.5 115.5t-70.5 48.5q-41 11 -81 -9t-56 -68.5z" />
<glyph unicode="'" horiz-adv-x="376" d="M82 981q0 299 4 332q7 50 37 67t76 17q47 0 71.5 -26.5t24.5 -94.5q0 -69 -21 -107q-12 -27 -62.5 -114.5t-66.5 -106.5q-10 -12 -25.5 -15t-25.5 5q-12 10 -12 43z" />
<glyph unicode="(" horiz-adv-x="555" d="M127 668q8 196 76 419q4 14 18.5 60.5t21 66t20 60.5t24 65.5t25 58t30.5 61.5t33 54l31 43q17 23 45 17q18 -4 26 -20.5t2 -34.5l-37 -111q-34 -127 -47 -180q-53 -244 -69 -439q-4 -43 -4.5 -97t0.5 -85.5t5 -104t5 -89.5q14 -189 43 -328q13 -84 33 -156 q11 -43 40 -121t39 -114q6 -19 4 -27t-16 -22q-34 -30 -59 -15q-10 6 -20.5 18.5t-23 33t-14.5 22.5q-36 53 -67 117q-14 27 -27.5 60.5t-21 57t-20.5 64t-19 59.5q-52 159 -64 263q-22 157 -12 344z" />
<glyph unicode=")" horiz-adv-x="552" d="M62 -326q-2 16 4.5 35t14 36t17 37t13.5 30q36 111 51 188q55 263 65 645q4 166 -43 445q-12 74 -38 186.5t-52 187.5q-5 18 -22 56q-6 17 2.5 32.5t25.5 20.5h2q12 3 24.5 -3t18.5 -18q134 -241 179 -385q79 -241 94 -383q18 -178 6 -358q-12 -203 -117 -510 q-36 -96 -117 -219q-3 -4 -12 -17t-12.5 -17.5t-12.5 -14.5t-14 -12.5t-13.5 -6.5t-16 -2.5t-16.5 6.5t-19 15t-12 26z" />
<glyph unicode="*" horiz-adv-x="661" d="M47 1217q12 29 41 40.5t57 -2.5l86 -38q12 -5 23 3t10 21l-8 92q-3 29 15.5 51t47.5 23h15q29 1 49.5 -21t17.5 -51l-8 -94q0 -15 11.5 -22.5t23.5 -1.5l88 38q28 14 57 2.5t41 -40.5q11 -31 -4 -60.5t-47 -36.5l-96 -24q-12 -4 -16 -17.5t4 -23.5l73 -88 q17 -23 13.5 -51.5t-25.5 -45.5l-12 -8q-23 -17 -52 -11t-44 32l-56 92q-8 12 -22 12t-21 -12l-53 -86q-15 -25 -44 -30.5t-52 11.5l-10 9q-23 17 -26.5 45.5t15.5 50.5l68 80q8 10 4 23.5t-16 17.5l-97 24q-32 7 -47 36.5t-4 60.5z" />
<glyph unicode="+" horiz-adv-x="950" d="M42.5 720.5q1.5 13.5 6.5 23t19 15t38 5.5h246q7 0 12 5t5 11q0 61 0.5 126t1 107.5t0.5 49.5q2 20 4.5 31.5t8 19t14.5 9t23 3t34 0t47 0.5q17 2 31 0.5t24.5 -7t16.5 -20.5t6 -40v-279q0 -6 5 -11t11 -5q46 1 94.5 1h79.5t58 -0.5t30 -0.5q42 -5 49 -66q3 -24 -2 -73 q0 -19 -15 -34.5t-34 -15.5q-41 -2 -258 -2q-16 0 -16 -18q0 -273 -2 -293q-5 -44 -72 -51q-8 -1 -22.5 -1t-33.5 0.5t-26 0.5q-20 1 -36.5 17.5t-16.5 35.5q-1 20 -1.5 62.5t-1 110.5t-1.5 118q0 16 -17 16q-55 0 -112 0.5t-94 1t-44 0.5q-23 2 -34.5 5.5t-17.5 11.5 t-6 20.5t-0.5 33t-0.5 48.5q-2 15 -0.5 28.5z" />
<glyph unicode="," horiz-adv-x="413" d="M84 93q-3 56 2 79q7 51 39 64.5t100 11.5q107 0 107 -119q0 -67 -19 -109q-27 -52 -88 -141q-35 -57 -55 -80q-9 -11 -23.5 -13t-25.5 5q-21 18 -12 43q1 5 8.5 24.5t14.5 39t13.5 42t6.5 35t-7 17.5q-32 7 -45 28q-13 17 -16 73z" />
<glyph unicode="-" horiz-adv-x="763" d="M43 612q-1 23 0.5 36t7.5 27.5t21.5 20.5t40.5 6q22 0 275.5 -1t281.5 -1q16 0 26.5 -7.5t15.5 -22.5t6.5 -28.5t2.5 -35.5q2 -36 -13 -53t-51 -18q-40 -1 -267 -1t-271 1q-48 0 -61 16.5t-15 60.5z" />
<glyph unicode="." horiz-adv-x="409" d="M83 102.5q-3 41.5 3 65.5q9 45 42 63.5t93 16.5q46 0 76.5 -29.5t30.5 -89.5q0 -28 -3 -47t-11.5 -39t-27.5 -31.5t-48 -15.5q-103 -9 -140 45q-12 20 -15 61.5z" />
<glyph unicode="/" horiz-adv-x="808" d="M44 231q6 26 17 48.5t33 60.5q7 12 81.5 137t144 241t152 251t126.5 202q41 60 54 70q17 12 38 2q32 -14 64 -37q11 -8 14 -20t-3.5 -28.5t-11 -25t-14.5 -26.5q-17 -25 -257.5 -439t-243.5 -419q-6 -9 -20 -29.5t-20.5 -29t-18.5 -23t-21 -19t-21.5 -8.5t-26 0t-28.5 13 q-25 16 -34.5 34.5t-3.5 44.5z" />
<glyph unicode="0" horiz-adv-x="985" d="M126.5 924.5q8.5 222.5 31.5 279.5q53 127 134 181t204 59q258 5 333 -256q20 -69 27.5 -252t5 -345.5t-9.5 -219.5q-17 -183 -115 -289q-38 -43 -89 -67.5t-103 -28t-89 -1t-73 10.5q-54 12 -113 64t-92 118q-33 64 -46.5 294t-5 452.5zM328 615.5q3 -234.5 12 -324.5 q5 -54 44 -99t97 -49q73 -4 119 41.5t49 102.5q3 39 5 346.5t-3 443.5q-4 69 -27.5 120t-54.5 71q-29 19 -65 21t-71.5 -17.5t-55.5 -59.5q-43 -83 -47 -170q-5 -192 -2 -426.5z" />
<glyph unicode="1" horiz-adv-x="565" d="M82 109q0 34 33 38h35q26 0 26 33q0 35 -1 405t-1 523q0 6 -5 11t-11 5h-37q-22 1 -32 19t1 37q61 97 127 223q17 31 55 31q8 0 32 -1t36 -1q18 0 30.5 -11t12.5 -30v-1209q0 -34 27 -37q16 0 34 -2q15 0 26 -11t11 -26q0 -8 1 -27.5t1 -31.5q-2 -21 -17 -35t-36 -14 q-96 2 -303 2q-18 0 -30.5 11.5t-12.5 31.5z" />
<glyph unicode="2" horiz-adv-x="911" d="M82 20v86q0 64 37 107q95 115 236 296.5t206 278.5q53 83 45 291q-4 67 -27.5 119t-52.5 70q-30 19 -66.5 21.5t-72 -16.5t-55.5 -59q-1 -3 -7 -16.5t-8.5 -19.5t-8 -20t-8 -25t-6 -25.5t-5.5 -30.5t-2 -33q0 -16 -2 -22q0 -26 -18.5 -42t-43.5 -13l-88 10 q-23 3 -38 21.5t-13 41.5q8 113 31 174q54 127 134 181t204 59q258 5 333 -256q10 -37 17.5 -93t5.5 -135.5t-21 -135.5q-42 -137 -131 -244q-73 -87 -180 -223t-139 -172q-6 -7 -2 -17t14 -10h291q11 0 19 8.5t8 20.5v12l2 20q0 19 11 30t30 11l77 -2q17 0 29 -12t12 -29 v-86l-2 -90q0 -49 -43 -49h-684q-8 0 -13 5t-5 13z" />
<glyph unicode="3" horiz-adv-x="884" d="M61 375q0 25 18 42.5t44 16.5q54 -4 78 -4q19 0 32 -12t15 -29q1 -11 2.5 -30t3.5 -33t6 -29q16 -53 56 -89t98 -40q73 -4 119 41t49 102q0 1 3.5 30t6.5 64t1.5 91t-9.5 110q-5 34 -27 57t-58 35t-60 17t-61 9h-3t-3 0.5t-3 0.5q-13 2 -19 10.5t-7 17t-1 25.5v45 q0 18 13.5 28.5t33.5 10.5q40 0 89 19.5t69 44.5q24 28 35.5 75.5t11.5 85.5q0 58 -32.5 106t-78 69.5t-98 12t-88.5 -57.5q-40 -56 -45 -101q-1 -20 -16 -32.5t-35 -10.5q-23 2 -66 2q-26 0 -43 19.5t-14 44.5q7 44 14 59q54 127 134 181t204 59q259 5 334 -256 q26 -92 -8 -236q-10 -40 -37.5 -79t-48.5 -52q-13 -13 -4 -29q5 -6 25.5 -27.5t41 -49.5t35.5 -62q49 -110 27 -287q-9 -89 -39 -153t-86 -125q-38 -43 -90 -68.5t-103 -31.5t-91 -4.5t-73 8.5q-57 13 -117 59.5t-92 110.5q-34 63 -43 219z" />
<glyph unicode="4" horiz-adv-x="894" d="M42.5 450q1.5 15 8.5 29q15 28 226 462t225 456q28 41 59 43h84q22 -1 34.5 -15.5t12.5 -35.5q6 -114 6 -846q0 -27 25 -27h51q19 0 19 -27v-79q0 -27 -19 -27l-49 -2q-17 1 -24 -8t-7 -23v-166q0 -11 7 -19.5t20 -8.5q23 0 43 -2q29 0 29 -43v-74q-2 -22 -10 -30.5 t-29 -8.5q-44 1 -172 1t-152 1q-20 1 -27.5 10.5t-9.5 28.5v80q0 37 39 37l33 2q9 0 14.5 6t5.5 14q0 14 -2 184q0 8 -5.5 13.5t-12.5 5.5q-26 0 -149 1t-193 1q-33 0 -53 10t-24.5 26t-3 31zM257.5 522q2.5 -3 22.5 -4h5q90 -2 180 -2q8 0 13 6t5 15v464q0 14 -3 15 q-4 2 -17 -22l-6 -13q-6 -12 -28 -63t-67.5 -155t-91.5 -208q-3 -7 -8 -17q-7 -13 -4.5 -16z" />
<glyph unicode="5" horiz-adv-x="960" d="M104 379q-1 23 13.5 39.5t36.5 19.5q26 4 94 8q26 1 44.5 -15.5t18.5 -41.5v-4q2 -80 41 -160q29 -59 86.5 -74t100.5 15q35 21 68.5 72.5t37.5 115.5q0 8 4 55.5t6 83t-2.5 77.5t-17.5 61q-19 27 -29.5 39t-33.5 28.5t-55.5 21.5t-78.5 1q-39 -2 -78 -37 q-32 -29 -77 -12l-133 59q-29 13 -29 45l12 604q3 49 47 54h584q23 0 38 -15t13 -37l2 -90q0 -38 2 -69q0 -20 -13.5 -34.5t-33.5 -14.5h-59q-51 4 -51 43v18q0 10 -10 20.5t-27 10.5l-240 2q-31 0 -45.5 -11.5t-15.5 -39.5q-5 -166 -5 -379q0 -4 4 -6.5t7 -0.5 q64 37 126.5 50.5t105 8.5t83 -22.5t58 -30t32.5 -26.5q30 -28 50 -53.5t31 -56.5t15.5 -45.5t10 -54t6.5 -46.5q25 -141 -23 -319q-20 -66 -56 -115t-74 -74.5t-85 -40t-80.5 -17t-68.5 -1.5q-123 3 -202 53.5t-132 177.5q-14 33 -23 160z" />
<glyph unicode="6" horiz-adv-x="917" d="M102 401v375l13 305q11 87 46 157t82 110.5t92.5 63t88.5 28.5q206 27 336 -70q15 -10 19 -29t-5 -36l-39 -64q-19 -31 -53 -16q-1 0 -13.5 6t-24 11t-27.5 11t-33 10t-31 5q-56 5 -100 -6.5t-71 -34.5t-44.5 -56.5t-24.5 -68t-8 -74.5v-194q0 -8 6.5 -11.5t12.5 0.5 q58 43 119 59.5t106 11.5t88 -23t63.5 -32.5t34.5 -27.5q25 -23 43 -47.5t28.5 -42.5t18.5 -44.5t10.5 -39t6.5 -42.5t6 -40q24 -137 -25 -319q-19 -66 -55 -115t-74 -74.5t-84.5 -40t-80 -17t-68.5 -1.5q-123 3 -202 53.5t-132 177.5q-16 35 -25 182zM307 567q2 -61 2 -137 q2 -23 2 -45q2 -84 39 -160q31 -59 88.5 -74t98.5 15q35 21 68.5 72.5t37.5 115.5q0 3 2 24t3 33.5t2 37t1 42t-1 40.5t-3.5 39.5t-7.5 32.5t-12 26l-6 9q-17 25 -27 37t-30.5 26.5t-51 18.5t-74.5 1q-8 0 -14 -2q-52 -10 -84.5 -53.5t-32.5 -98.5z" />
<glyph unicode="7" horiz-adv-x="811" d="M63 1217q0 15 0.5 34t1.5 31.5t1 13.5l2 88q0 19 13.5 32.5t33.5 13.5q12 2 28 2h461l78 -2q28 0 48 -20t20 -48v-109q0 -15 -9 -30q-47 -105 -124.5 -312t-106.5 -342q-22 -103 -36.5 -223.5t-18.5 -189.5l-4 -70q1 -47 -11.5 -65.5t-44.5 -18.5h-106q-22 0 -35.5 13.5 t-13.5 35.5q2 100 26 263t68 327q31 114 117 330t96 252q7 28 0 37.5t-31 9.5h-260q-13 0 -23 -9.5t-12 -23.5v-25q0 -19 -13 -31t-32 -12l-70 2q-19 0 -31.5 13.5t-11.5 32.5z" />
<glyph unicode="8" horiz-adv-x="913" d="M83.5 414q-0.5 109 31.5 221q15 57 84 135q20 24 0 51q-55 60 -78 129q-17 57 -12.5 137t18.5 113q54 127 134 181t204 59q259 5 334 -256q28 -98 0 -240q-17 -88 -80 -125q-7 -4 -7.5 -13t5.5 -15q59 -54 86 -144q15 -53 21 -103t6 -73t-4.5 -65.5t-4.5 -47.5 q-6 -91 -34 -163t-72.5 -117.5t-103 -73t-125 -30t-138.5 11.5q-84 19 -145 81.5t-90 150t-29.5 196.5zM270.5 444.5q2.5 -75.5 24.5 -145.5q16 -52 57 -89.5t99 -41.5q72 -4 116 40.5t49 102.5q1 7 4.5 41.5t5.5 51.5t3.5 53t0.5 58.5t-5 53.5t-12.5 51.5t-22.5 40.5 t-33 31q-40 25 -90 27t-90 -21q-56 -34 -82.5 -106t-24 -147.5zM297 1036q0 -19 5.5 -35t10.5 -24t18 -21.5t17 -19.5q40 -49 103 -43t106 41q31 22 51.5 66t20.5 77q0 75 -25.5 114t-64.5 62q-31 19 -67 25t-74 -8.5t-64 -50.5q-9 -12 -15.5 -23t-10.5 -24.5t-6.5 -21 t-3.5 -26t-1 -24.5v-31v-33z" />
<glyph unicode="9" horiz-adv-x="927" d="M72 848q-25 161 17.5 299.5t139 218t222.5 74.5q123 -3 201.5 -54t131.5 -178q13 -25 21 -60.5t16 -121.5t3.5 -259t-21.5 -419q-5 -70 -30.5 -129.5t-60 -98.5t-77.5 -67.5t-80.5 -42t-71.5 -18.5q-196 -27 -319 65q-17 12 -21 34t7 42l40 64q8 11 21 14.5t25 -2.5 q37 -37 118 -45q70 -6 120.5 12t76.5 55.5t38 79.5t13 92v109q0 25 -20.5 37t-40.5 0q-65 -37 -124 -48t-103 1t-82 40.5t-64 65.5t-46.5 81.5t-32 83t-17.5 75.5zM277.5 987q-0.5 -42 4.5 -89.5t16 -85.5t31.5 -69.5t49 -47.5t72.5 -13.5t98 27.5q48 23 58 126.5t-6 208 t-40 156.5q-31 60 -88 76t-100 -14q-32 -22 -60 -73t-32 -116q-3 -44 -3.5 -86z" />
<glyph unicode=":" horiz-adv-x="411" d="M82 131q0 60 17 93t73 40q102 13 139 -45q13 -19 16.5 -61.5t-1.5 -65.5q-10 -45 -44 -63.5t-94 -16.5q-45 0 -75 30t-31 89zM82 985q0 28 3 47t11.5 38.5t27.5 31t48 14.5q104 13 139 -45q13 -19 16.5 -60.5t-1.5 -66.5q-10 -44 -43.5 -62t-94.5 -18q-45 0 -75 30 t-31 91z" />
<glyph unicode=";" horiz-adv-x="415" d="M82 985q0 28 3 47t11.5 38.5t27.5 31t48 14.5q104 13 139 -45q13 -19 16.5 -60.5t-1.5 -66.5q-10 -44 -43 -62t-93 -18q-46 0 -76.5 30t-31.5 91zM85.5 109.5q-2.5 55.5 2.5 78.5q3 27 13.5 43.5t30.5 23.5t40 8.5t53 0.5q109 0 109 -119q0 -67 -21 -108 q-12 -27 -86 -141q-35 -57 -55 -80q-11 -11 -25.5 -13.5t-25.5 4.5q-21 18 -12 43q1 3 6 15t9.5 25t10.5 29t10 30.5t6 27.5t1 21t-7 10h2q-30 7 -47 29q-12 17 -14.5 72.5z" />
<glyph unicode="&#x3c;" horiz-adv-x="921" d="M82 582q0 42 2 77q0 2 1 10.5t1.5 10.5t1.5 8.5t3 9t5 7.5t7 8t10 8t14 9l18 9q8 4 271.5 133.5t292.5 141.5q76 32 98 -19q8 -14 18 -39q21 -46 -45 -79q-52 -25 -252.5 -112t-269.5 -120q-8 -3 -8 -11t8 -11q72 -23 195 -61.5t216 -67.5t109 -35q81 -28 51 -111 q-10 -30 -34.5 -40.5t-71.5 5.5q-118 46 -351 124t-239 81q-25 11 -37.5 25.5t-13.5 38.5z" />
<glyph unicode="=" horiz-adv-x="905" d="M84 387q-1 9 0.5 46t1.5 42q1 20 14.5 30.5t32.5 10.5q94 3 337.5 2.5t291.5 -2.5q44 0 52.5 -17.5t6.5 -90.5q0 -22 -0.5 -29.5t-6 -20t-19 -16.5t-37.5 -4q-7 0 -108 -0.5t-203.5 -1t-198.5 0t-113 1.5q-26 1 -37 12.5t-14 36.5zM84 854q0 19 1 28t7 19t20 13.5t38 3.5 q7 0 107.5 0.5t203 1t198.5 0t113 -1.5q28 -3 38.5 -16t10.5 -48q0 -5 -0.5 -22t-0.5 -31t1 -23q0 -12 -4.5 -20t-15 -12t-16.5 -5t-19 -2h-633q-29 0 -39 10t-8 35q2 13 -2 70z" />
<glyph unicode="&#x3e;" horiz-adv-x="923" d="M92 358q-27 73 43 99q16 6 112 35.5t221 68t198 62.5q6 3 6.5 11t-6.5 11q-61 29 -265.5 118t-263.5 118q-23 11 -37.5 32t-3.5 43l19 39q27 49 92 21q29 -16 281.5 -138t289.5 -139q15 -8 24 -13t15 -8.5t9.5 -10t4.5 -9t3.5 -13.5t3.5 -17q5 -23 0 -97 q-1 -22 -10.5 -32t-36.5 -21q-5 -2 -243 -82.5t-355 -126.5q-42 -17 -66.5 0t-34.5 49z" />
<glyph unicode="?" horiz-adv-x="909" d="M84 1042q-2 70 22 146q37 129 123 182.5t215 56.5q34 1 67 -2t78 -17.5t82.5 -39.5t74 -71t59.5 -109q59 -147 -37 -328q-39 -70 -67.5 -105t-137.5 -149q-47 -47 -43 -172q1 -33 -17 -49t-50 -16h-70q-33 0 -51.5 20t-18.5 53q0 88 13 154q6 27 62.5 101.5t82.5 93.5 q141 102 127 264q-4 68 -26.5 118t-53.5 70q-30 19 -66.5 21.5t-71 -17t-54.5 -59.5q-8 -16 -16 -47t-12 -55l-5 -23q0 -38 -16.5 -67t-55.5 -29h-65q-35 0 -53.5 20.5t-18.5 54.5zM298 103.5q-4 59.5 1 82.5q4 27 15 43.5t33.5 23t42 7.5t56.5 0q107 0 107 -121 q0 -63 -20 -100t-78 -41q-25 0 -48.5 -1t-48.5 7.5t-43 26.5q-13 13 -17 72.5z" />
<glyph unicode="@" horiz-adv-x="1773" d="M84 322q-3 114 15 215.5t47 173.5t75.5 139t87.5 109.5t94 87.5q106 90 230.5 131t284.5 41q150 0 280.5 -40.5t233 -118t168.5 -199.5t83 -277q18 -170 -14 -306.5t-110.5 -217t-190.5 -85.5q-55 -2 -101.5 5.5t-76.5 20.5t-53.5 31t-35 32.5t-18.5 29.5q-3 6 -10.5 6.5 t-11.5 -4.5q-12 -15 -28 -30t-46 -35t-63.5 -30.5t-81.5 -18t-101 3.5q-111 18 -188 172q-50 99 -54 230.5t33 213.5q55 130 137 186.5t201 53.5q76 -2 164 -90q4 -5 11.5 -2t7.5 10v33q-2 29 15.5 43.5t61.5 17.5t66.5 -21.5t22.5 -62.5q0 -53 1 -177.5t1 -205.5 q0 -21 -2.5 -41.5t8.5 -64.5t37 -97q15 -28 47.5 -47t64.5 -16q45 4 71.5 47t29.5 113q8 111 8.5 131t-8.5 155q-55 539 -555 539q-127 0 -232 -42.5t-176 -117.5q-96 -99 -155.5 -252t-59.5 -358q0 -184 62.5 -320t164.5 -217q65 -51 119 -80.5t126 -48t155.5 -2 t177.5 67.5q17 10 36.5 14.5t43 -2.5t37.5 -31q37 -64 -56 -116q-107 -56 -224 -75.5t-239.5 3t-230.5 88.5q-371 225 -387 705zM727 309q35 -165 131 -172q71 -4 113.5 46t46.5 110q0 4 4 33.5t3 77.5t-11 118q-7 56 -23 85.5t-47 49.5q-29 19 -66.5 22t-73 -16.5 t-52.5 -60.5q-60 -147 -25 -293z" />
<glyph unicode="A" d="M20 59l3 45q2 22 17 38.5t38 17.5h14q28 0 39 28q56 139 401 1209q10 26 32 42q21 15 47 15h3h29q28 -2 50.5 -18.5t29.5 -42.5q299 -1001 373 -1207q9 -25 39 -28h12q17 0 28 -12t11 -29v-80q0 -15 -12 -27t-29 -12l-332 2q-16 0 -27.5 11t-11.5 28v80q0 16 11 27.5 t28 11.5h29q9 2 14 8.5t2 15.5q-9 26 -35 127.5t-41 145.5q-6 25 -45 22h-44q-39 1 -97 1q-96 2 -117 1q-13 0 -23.5 -7t-13.5 -19q-27 -79 -55 -189q-3 -13 -14.5 -41.5t-14.5 -38.5q-3 -9 7 -17.5t20 -8.5l35 -2q20 0 33.5 -14.5t13.5 -35.5l-2 -57q0 -20 -14.5 -34.5 t-34.5 -14.5h-336q-25 0 -42.5 17t-17.5 42zM502 672q-1 -3 -1 -7q-1 -7 5 -15q8 -10 20 -11q24 0 92 -1t93 -1q13 1 21 11q6 8 6 16q0 3 -1 6q-15 67 -55.5 222.5t-42.5 164.5q0 6 -8 6h-15q-8 0 -8 -8q-76 -260 -106 -383z" />
<glyph unicode="B" horiz-adv-x="1120" d="M102 51v64q0 20 13 33.5t32 15.5l37 2q19 2 32 15t13 32q9 441 9 449q0 56 4 298q2 96 2 160q0 94 -4 113q0 13 -11 24t-24 11q-6 0 -16.5 1t-14.5 1q-15 0 -26 10t-11 25l-4 92q0 15 11 26t26 11q224 4 377 4h94q100 -2 174 -34.5t112 -83.5q39 -50 59 -111 q19 -57 19 -115q-1 -4 -1 -8q-2 -62 -12 -113t-29 -86q-21 -39 -60 -62q-12 -7 -12.5 -21.5t10.5 -23.5q77 -55 105 -132.5t30 -221.5v-11q0 -62 -10 -117q-12 -60 -38.5 -114.5t-66.5 -94t-101.5 -63.5t-139.5 -26q-76 -2 -180 -2q-146 0 -348 4q-20 0 -34 14t-16 35z M449 199q0 -14 10.5 -25t25.5 -12q69 -2 124 -4h8q50 0 91 18q44 20 66 64q43 88 43 178t-43 182q-19 41 -41.5 65t-57.5 34.5t-67.5 12.5t-92.5 3h-30q-15 0 -25.5 -11t-10.5 -26v-479zM455 1235l2 -311q0 -14 11 -24.5t26 -10.5q53 0 105.5 4.5t107.5 21t61 43.5 q10 37 12 94v18q0 48 -11 100q-13 60 -44 79q-41 24 -176 24q-28 0 -60 -1q-14 0 -24 -11t-10 -26z" />
<glyph unicode="C" horiz-adv-x="1015" d="M84 620v74v72q3 67 8.5 122.5t17.5 121.5t30 119t48.5 106.5t69.5 92.5t95 69t124 43q57 11 110 11q206 0 357 -169q25 -28 25 -65q0 -24 1 -47.5t1 -28.5q0 -31 -20.5 -53t-51.5 -23h-39q-29 -2 -51 17t-25 48q-2 10 -2 29q-4 48 -28 72q-60 67 -173 67h-10 q-49 -6 -88 -25.5t-63.5 -44.5t-42 -64.5t-26.5 -74.5t-14 -85.5t-6 -86.5t-2 -88t-3 -81q1 -31 1.5 -62t-1.5 -62q-1 -21 -1 -41q0 -41 3 -81q4 -60 11 -114t26.5 -100t49 -79.5t78.5 -52.5t115 -19q42 0 74.5 15t54 43t34.5 53.5t24 58.5q0 23 -1 46t-1 32q0 28 19.5 47.5 t47.5 18.5q16 -2 51 -2q26 0 44 -18.5t20 -45.5q0 -24 -1 -64t-1 -63q0 -22 -10 -45q-26 -73 -60.5 -118.5t-85.5 -70t-108.5 -32.5t-145.5 -8t-160.5 26t-121.5 71.5t-88 107t-59.5 132t-34.5 147t-15 152.5z" />
<glyph unicode="D" horiz-adv-x="1089" d="M84 115q0 22 14.5 35.5t36.5 13.5t36.5 14.5t14.5 34.5q2 145 2 516t-4 492q0 20 -13.5 34.5t-33.5 14.5h-6q-20 0 -34 14.5t-13 34.5v61q0 21 13.5 35.5t33.5 14.5q128 6 241 6q93 0 175 -4q121 -5 223 -67t163.5 -165.5t67.5 -224.5q0 -2 1.5 -52t3.5 -108q1 -35 0 -79 v-64q-1 -84 -5 -156q-7 -113 -22 -189.5t-44.5 -141t-78 -102t-121.5 -58.5t-176 -23h-418q-22 2 -38 16.5t-17 36.5q0 10 -1 30.5t-1 29.5zM391 219q0 -21 14 -35t35 -14q72 -4 124 -4h13q56 0 95 9.5t66 44.5t36 91q23 138 23 333q1 72 -3 153q-12 297 -53 385 q-17 33 -50 54t-72 27t-84 8q-18 1 -35 1q-26 0 -51 -2q-20 0 -35 -14.5t-15 -34.5z" />
<glyph unicode="E" horiz-adv-x="980" d="M102 121q0 22 8 31.5t29 9.5q1 0 12.5 1t12.5 1q19 -1 30 13t11 36q4 652 4 1014q0 20 -15.5 34t-35.5 11q-17 -2 -30.5 10t-14.5 31v80q0 17 13 29t30 12h134h208.5t211.5 -0.5t144 0.5q20 0 32.5 -14.5t12.5 -35.5q-4 -137 -10 -188q-3 -17 -15.5 -28t-29.5 -11 q-10 0 -32 -1t-34 -1q-19 0 -32 12t-13 31l-4 37q-3 15 -15.5 26t-29.5 11q-30 0 -108 -1t-113 -1q-19 0 -32 -13t-13 -32q0 -46 -6 -322q0 -19 13.5 -32t33.5 -13q27 0 91 1t119 1t99 -2q17 -2 29.5 -14t13.5 -31q0 -49 -2 -72q-3 -25 -20.5 -40.5t-40.5 -14.5 q-234 6 -287 6q-19 0 -32 -13t-13 -32q0 -79 1 -217.5t1 -218.5q0 -19 12 -32.5t31 -14.5q82 -2 148 -2t116 2q3 0 5 2.5t3 8.5t1 11.5t-0.5 15t-0.5 15.5q0 16 10 29.5t27 13.5q49 0 74 -2q19 0 32 -13t13 -32q0 -63 -6 -174q-2 -17 -14 -29t-29 -12q-90 1 -322 1t-321 1 h-56q-37 0 -37 43q-2 23 -2 78z" />
<glyph unicode="F" horiz-adv-x="954" d="M102 47v64q0 19 12 32t31 13l27 2q17 0 30 13t13 32l2 1020q0 19 -12 32t-31 13h-6q-19 2 -31 14t-12 31l-2 76q0 20 13.5 33.5t33.5 13.5l698 2q19 0 32 -12.5t13 -32.5v-176q0 -20 -13.5 -34t-33.5 -14l-84 2q-19 1 -31 14t-14 32v6q0 19 -13 32t-32 13l-229 2 q-19 0 -31 -13t-12 -32v-140l2 -157q0 -19 13 -31t32 -12l264 -2q20 0 33.5 -13t13.5 -32v-93q0 -19 -13.5 -32t-33.5 -13h-258q-19 0 -32 -13t-13 -32l2 -450q0 -19 12 -32t31 -13l47 -2q18 0 30.5 -12.5t12.5 -30.5l2 -68q1 -20 -12 -33.5t-33 -13.5l-373 2q-19 0 -32 13 t-13 32z" />
<glyph unicode="G" horiz-adv-x="1110" d="M84 780q3 76 10 140.5t22 140.5t42.5 136t66.5 113t98 86.5t134 43.5q50 8 104 8q23 0 46 -2q80 -4 152.5 -19t137.5 -51t104 -88q11 -17 15 -39v-129q0 -29 -20.5 -49t-49.5 -20q-9 0 -28.5 1t-28.5 1q-26 0 -46 19.5t-20 45.5q0 6 -1 18t-1 17q-3 29 -26 49 q-74 55 -139 72q-34 10 -64 10q-26 0 -49 -8q-48 -15 -87.5 -54.5t-65.5 -94t-44 -120t-25.5 -128.5t-7.5 -123q1 -209 9 -273q20 -189 119 -254q60 -39 153 -41q74 3 137 35t84 94q3 9 3 46t-3 104q0 13 -9.5 22t-21.5 9l-84 2q-26 0 -43.5 18t-19.5 45v49q0 29 20.5 49.5 t49.5 20.5h245q29 0 49.5 -19.5t20.5 -48.5q5 -128 5 -216q0 -66 -3 -109q-4 -28 -14 -49q-64 -147 -168 -203.5t-289 -56.5q-88 0 -160 28.5t-120.5 75.5t-85 114.5t-57 137.5t-32 152t-14.5 151q-1 38 -1 78q0 31 1 63z" />
<glyph unicode="H" horiz-adv-x="1241" d="M82 111q0 17 12 29t29 12h6q17 -2 29 10t12 31l-2 1050q0 15 -12 27t-29 12t-29 12t-12 29l2 68q0 17 12 29t29 12l274 -2q15 0 27 -12t12 -27l2 -72q2 -19 -10 -31t-31 -10h-4q-17 0 -29 -12t-12 -29l7 -338q0 -15 12 -27t29 -12l407 2q17 0 29 12t12 29l2 336 q0 17 -10.5 28t-26.5 13h-14q-15 2 -26.5 14t-10.5 27v72q2 16 13 27.5t28 11.5l305 -2q17 0 29 -12t12 -29l-2 -68q0 -15 -11 -26t-26 -13l-31 -2q-17 -2 -27 -13t-9 -28l4 -1040q1 -17 13.5 -28t29.5 -11h20q17 1 29 -10.5t12 -28.5l2 -78q0 -17 -12 -29t-29 -12l-317 -2 q-17 0 -29 12t-12 29l-2 74q0 17 12 29t29 12h8q17 0 28.5 12t10.5 29v467q0 17 -12 28t-29 10l-399 -2q-16 0 -27.5 -10.5t-11.5 -27.5l-5 -469q-1 -15 10.5 -27t26.5 -14h13q17 0 28 -12t11 -29v-72q0 -17 -12 -29q-11 -11 -26 -10h-3l-285 2q-17 0 -29 11t-12 28z" />
<glyph unicode="I" horiz-adv-x="585" d="M82 1391q0 17 11 29t26 14h14q68 -2 220 -2h110q17 0 29 -12t12 -29v-84q0 -15 -11 -27.5t-28 -13.5l-27 -2q-15 -1 -26 -13.5t-11 -27.5v-617l2 -409q0 -18 14 -30t38 -13q18 -2 29 -14t10 -29l-5 -72q-1 -17 -13.5 -28t-29.5 -11l-290 4q-17 0 -28 11t-13 28l-4 72 q-2 17 8.5 29.5t27.5 13.5q15 2 26 14t11 29l-2 1024q0 17 -11 29t-28 12l-20 2q-15 0 -26.5 11t-12.5 28z" />
<glyph unicode="J" horiz-adv-x="1046" d="M43 244q-1 30 -1 61.5t1 63.5q0 22 13.5 36.5t35.5 14.5h88q23 -2 39.5 -18.5t18.5 -39.5q4 -73 6 -79q23 -67 58.5 -103.5t107.5 -36.5q55 1 98 33t67.5 78.5t40.5 105t21.5 103.5t5.5 82v672q0 20 -14 33.5t-35 15.5h-4q-19 2 -32.5 15t-14.5 32l-2 67q-1 20 11.5 35 t31.5 17h329q20 0 35 -15t15 -37l2 -65q0 -20 -13.5 -35t-33.5 -16h-11q-20 -1 -32.5 -16t-12.5 -34q3 -263 3 -448q0 -371 -13 -428q-41 -169 -150.5 -260.5t-283.5 -91.5h-5q-296 0 -368 243q-2 4 -2 15z" />
<glyph unicode="K" horiz-adv-x="1173" d="M86 27q-3 20 -3 41q0 26 5 53q2 12 11.5 21.5t21.5 9.5q5 1 20 1.5t23 2.5q12 1 20.5 11.5t8.5 22.5q0 164 -3.5 514t-3.5 521q0 21 -11 31.5t-23 11.5h-11q-27 0 -30 28q-5 62 -5 97q-1 19 7.5 30t23.5 11h61h90h89h59q37 0 39 -33q0 -17 -1 -54.5t-1 -56.5q0 -6 -3 -11 t-6.5 -7t-10 -3t-10.5 -1h-11h-8q-37 0 -37 -45q5 -152 12.5 -502.5t14.5 -532.5q0 -16 11.5 -26t27.5 -10q6 2 22 2q14 0 25 -10t12 -23q5 -32 5 -55q-1 -17 -3 -29q-6 -29 -31 -35q-31 -7 -159 -7q-82 0 -203 3q-12 0 -22 8.5t-13 20.5zM463 780q-9 15 -9 31q0 18 11 37 q20 29 98 146.5t156 231t127 177.5q23 33 61 33h187q21 0 34 -10.5t13 -30.5l-2 -90q0 -20 -13 -31.5t-34 -11.5q-15 1 -32.5 1t-38 -0.5t-28.5 -0.5q-17 0 -32 -19q-34 -49 -93.5 -135t-99.5 -145.5t-76 -118.5q-17 -26 0 -53q67 -119 177 -307.5t178 -309.5q13 -22 40 -22 h23q17 -2 29 -14t12 -29l2 -66q0 -19 -12 -31t-31 -12h-344q-18 0 -30.5 12.5t-12.5 30.5v66q0 17 12 29t31 14h35q7 1 10 7.5t0 12.5q-123 235 -348 608z" />
<glyph unicode="L" horiz-adv-x="960" d="M82 51v99q0 19 13.5 33t33.5 14h8q20 0 33.5 13.5t13.5 33.5l4 970q0 19 -11.5 33t-29.5 15h-6q-19 3 -31 16.5t-12 32.5v73q0 19 13.5 33t33.5 13l295 4q22 0 36 -16t11 -36l2 -79q-1 -17 -14.5 -29t-30.5 -12q-20 -1 -32.5 -15t-12.5 -33l-4 -966q0 -19 13.5 -33 t33.5 -14l295 -2q17 0 30.5 11t16.5 28l2 14q3 18 16.5 29.5t31.5 11.5h59q20 0 33.5 -14.5t13.5 -34.5l-4 -195q0 -20 -13.5 -33.5t-33.5 -13.5h-713l-47 2q-20 0 -33.5 13.5t-13.5 33.5z" />
<glyph unicode="M" horiz-adv-x="1658" d="M82 100q0 22 15.5 37t37.5 17h17q17 0 29 12t12 29q3 98 3 347v207q-1 251 -1 370v100q1 17 -10.5 29t-28.5 12q-3 0 -10 1t-11 1q-22 0 -36.5 14.5t-14.5 36.5q-2 20 -2 80q0 17 11 28t28 13q33 2 85 2q77 0 195 -4q24 0 35 -25q64 -155 189 -512t182 -498l2 -4 q6 -12 18.5 -12t16.5 12q65 166 185.5 510t184.5 506q10 27 37 27q3 0 44 -0.5t83.5 -0.5h87t62.5 1q24 0 35.5 -9t11.5 -32q0 -9 1 -44t1 -44q0 -19 -12.5 -32.5t-32.5 -14.5q-7 0 -21 -1.5t-20 -1.5q-18 2 -30 -9.5t-11 -28.5q4 -472 4 -672q0 -207 2 -250v-100 q0 -17 12 -29t27 -12q8 -2 23 -2q17 -1 27.5 -13.5t10.5 -29.5v-56q-2 -23 -18 -39t-39 -16h-291q-21 -1 -35 12.5t-16 34.5q-2 27 -2 62q0 19 13 31.5t32 11.5h4q19 -2 33 11t14 32v761q0 11 -7.5 11.5t-10.5 -9.5q-24 -68 -113 -319.5t-152 -429t-67 -184.5 q-17 -33 -51 -33q-23 -3 -38 -3q-8 0 -13 1q-34 6 -47 39l-344 936q-1 4 -4.5 5t-7 -1.5t-3.5 -7.5q-2 -56 -1.5 -150.5t1.5 -229.5t1 -230t-1 -150q0 -18 12.5 -30.5t30.5 -14.5q25 0 43 -11q16 -9 16 -66q0 -12 -1 -26q-2 -22 -17.5 -37.5t-38.5 -15.5q-51 -2 -164.5 -2.5 t-140.5 -1.5q-19 0 -32.5 12t-14.5 31q-4 40 -4 61z" />
<glyph unicode="N" horiz-adv-x="1196" d="M82 1292v113q0 12 9.5 20.5t21.5 8.5h192h5q30 0 50 -33l453 -916q2 -4 6 -5t7 1.5t3 7.5l7 738q0 15 -11 26t-26 11h-11q-15 0 -25.5 10.5t-10.5 25.5v97q0 15 10.5 26t25.5 11l291 -2q13 0 24 -11t11 -24v-94q0 -15 -10.5 -26t-24.5 -11h-20q-15 -2 -25 -12t-10 -25 v-688l6 -504q1 -15 -10.5 -26t-26.5 -11h-86q-37 0 -53 31l-479 948q-3 4 -8 3.5t-5 -5.5l3 -787q0 -15 11.5 -26.5t26.5 -11.5h9q17 0 28 -12t11 -29l-2 -74q0 -17 -11 -28t-28 -11l-265 2q-17 0 -28 11t-11 28l-2 72q0 16 11 27.5t28 11.5q15 0 27 11.5t12 26.5l-2 1047 q0 12 -9 20.5t-21 8.5h-37q-12 0 -21.5 8t-9.5 20z" />
<glyph unicode="O" horiz-adv-x="1148" d="M82 741q0 103 15 197.5t51 185t89.5 158.5t136.5 113t187 53q115 0 205 -42t145.5 -109.5t91.5 -161t50 -187.5t14 -198q0 -164 -29.5 -301.5t-88.5 -243t-154.5 -164.5t-219.5 -59q-109 0 -195.5 43t-141.5 114t-91 170.5t-50.5 205.5t-14.5 226zM285 752 q0 -274 76.5 -438t218.5 -164q78 0 133.5 40.5t87.5 121t46.5 187t14.5 249.5q0 102 -8 181t-29 148.5t-54.5 114.5t-86 70.5t-123.5 25.5q-70 0 -124 -42t-86.5 -116t-49 -169.5t-16.5 -208.5z" />
<glyph unicode="P" horiz-adv-x="1048" d="M82 47l2 62q2 18 14.5 31t30.5 14l41 4q19 2 32 15t13 32l8 1003q0 20 -14 33.5t-33 13.5h-16q-19 2 -32.5 15t-14.5 33l-2 79q-1 20 12 35t33 17l94 2q91 3 164 3q146 0 221 -12q41 -6 80.5 -18.5t85.5 -39.5t82 -63.5t64.5 -95.5t37.5 -131q1 -19 1 -38 q0 -131 -32 -221q-36 -104 -107 -164t-190 -97q-21 -6 -49 -11t-46.5 -7t-55.5 -5t-47 -4q-13 0 -23 -10t-10 -24q0 -221 -2 -295q0 -19 13.5 -33t33.5 -14l49 -2q20 0 33.5 -14.5t13.5 -35.5l-2 -61q0 -19 -13.5 -32t-33.5 -13h-387q-21 0 -35 14t-14 35zM428 1214 q0 -313 2 -475q0 -17 11 -28t28 -11q45 2 94.5 19t94 45t73 72.5t29.5 95.5q0 18 1 52q1 22 1 40v16q0 21 -6.5 52.5t-20.5 60.5q-21 69 -97 98q-49 19 -106 19q-31 0 -65 -6q-17 -3 -28 -17t-11 -33z" />
<glyph unicode="Q" horiz-adv-x="1167" d="M84 750v15q0 67 8 139q9 79 34 168t63 161.5t101 128t142 72.5q61 15 126 16h4q62 0 124 -14q63 -14 122 -49.5t101 -88.5q82 -104 108.5 -246t26.5 -347q-12 -278 -51 -429q-16 -68 -67 -139q-7 -9 -6 -21.5t10 -21.5l39 -31q20 -15 48.5 -37.5t43.5 -33.5 q22 -17 25 -44v-7q0 -23 -17 -41l-37 -39q-26 -28 -53 -28q-18 0 -35 11q-21 13 -67.5 50t-71.5 55q-13 13 -35 26q-17 10 -33 7q-77 -19 -192 -19q-81 0 -148.5 29t-114 76t-82.5 114t-57 135.5t-34.5 149.5t-18.5 147t-6 136zM301 782v-28q0 -143 19 -272q21 -142 65 -214 q26 -50 91 -96q55 -40 99 -40q8 0 15 1q40 0 73 15.5t56 40.5t41 65.5t29 80.5t18 96.5t10 103t4 109.5q1 42 1 76v31q-1 44 -2 105t-1 94q0 179 -74.5 259.5t-199.5 80.5q-46 0 -83.5 -19.5t-62 -49.5t-43 -75t-28.5 -88t-16.5 -97.5t-8 -93.5t-2.5 -85z" />
<glyph unicode="R" horiz-adv-x="1171" d="M82 1307l2 88q0 17 12 29t29 12q293 5 448 4q116 0 154 -2q128 -5 226.5 -118.5t101.5 -275.5q1 -18 0 -35q0 -143 -44 -224q-50 -90 -186 -132q-5 -1 -5 -7t5 -7q54 -18 86.5 -66t43.5 -105.5t16 -113t12.5 -99t24.5 -54.5q42 -28 86 -43q16 -4 26 -20q8 -13 8 -27v-7 q-1 -16 -3 -28.5t-5 -25.5t-4 -21q-2 -15 -13 -26.5t-28 -14.5q-63 -7 -112 -7q-118 0 -160 39q-29 31 -39 111t-10 209q-3 97 -63.5 168.5t-131.5 71.5q-19 2 -147 2q-12 0 -21.5 -9.5t-9.5 -21.5v-363q0 -35 49 -38q14 0 24.5 -11t10.5 -24l4 -78q2 -15 -9 -27t-28 -12 q-163 -3 -244 -3q-41 0 -61 1q-15 0 -26 12t-11 27l4 80q0 14 11.5 24.5t29.5 10.5q14 2 24.5 12t10.5 24q4 86 4 142q1 119 2 467.5t2 425.5q0 18 -12.5 30.5t-30.5 12.5h-10q-18 0 -30.5 12.5t-12.5 30.5zM373 805q0 -19 13 -31t32 -12q102 4 180 4q41 0 81.5 14t78 42.5 t59.5 81.5q19 47 19 106v16q-4 117 -44 161t-157 68q-44 6 -131 6q-39 0 -86 -1q-17 0 -30 -12t-13 -29z" />
<glyph unicode="S" horiz-adv-x="993" d="M61 281q0 27 19 46t47 21h78q26 1 45.5 -17t21.5 -44v-35q3 -33 31 -55q77 -56 193 -56q42 0 79 12t69.5 37t50.5 73q16 43 16 99v13q-1 24 -9 45t-17.5 36.5t-31.5 32.5t-36.5 27t-47 25.5t-49 23t-55.5 23.5q-68 28 -130.5 66t-121 88.5t-96 114.5t-43.5 132 q-4 45 -4 85q0 130 38 208q48 102 171 148q12 4 34.5 10t90.5 12q27 2 53 2q39 0 79 -5q66 -9 154 -47.5t162 -107.5q19 -19 22 -47l5 -127q0 -27 -19.5 -45.5t-46.5 -17.5h-82q-25 0 -43 17.5t-18 43.5l-4 45q0 25 -21 39q-84 60 -199 60q-56 0 -104 -29t-70 -85 q-8 -20 -7 -43q0 -43 26 -97q28 -58 92.5 -109.5t113 -74.5t74.5 -29q35 -13 52.5 -20t52 -22.5t53.5 -26.5t48 -30.5t46 -37.5t38 -44.5t33 -54t21.5 -63.5t12.5 -76t3 -75q1 -59 -9 -105q-16 -70 -53 -113.5t-109 -87.5q-74 -44 -158 -53q-57 -7 -115 -7t-131.5 9 t-144 41.5t-123.5 85.5q-19 19 -22 45z" />
<glyph unicode="T" horiz-adv-x="985" d="M20 1393q0 17 11.5 28t27.5 11l848 2q24 0 40.5 -14t15.5 -36l-5 -161q-2 -24 -18 -39.5t-39 -14.5h-57q-20 1 -35 15.5t-18 34.5l-3 26q-2 12 -12.5 21.5t-23.5 9.5h-123q-16 0 -27.5 -11t-11.5 -28l10 -1038q0 -17 12 -29t29 -12l37 -2q17 -2 29 -14t12 -29l2 -68 q0 -18 -12.5 -30.5t-30.5 -12.5l-350 -2q-17 0 -29 12t-14 29l-2 68q-1 18 10.5 30.5t30.5 14.5l24 2q17 0 29 13t12 30l-4 1034q0 17 -11 28t-26 11h-121q-15 0 -26 -10.5t-13 -24.5l-2 -18q0 -15 -12 -25t-27 -10l-88 2q-15 0 -25.5 11t-10.5 28z" />
<glyph unicode="U" horiz-adv-x="1241" d="M61 1380q0 20 12.5 35.5t32.5 18.5h326q22 0 36.5 -15t14.5 -35v-65q0 -20 -13 -33.5t-32 -15.5q-27 -3 -42 -16.5t-15 -34.5q-8 -246 -8 -609q0 -54 0.5 -88t2 -77.5t5.5 -70.5t10 -60t15 -52t22 -41t30.5 -34t40 -22.5t50.5 -15t63 -4.5q49 0 86.5 11.5t63.5 30.5 t44.5 53t29 68.5t16 88.5t7 101.5t1.5 117.5q0 480 -2 605q0 21 -14 35t-37 14q-19 2 -32 15t-15 32l-2 61q-2 20 10.5 35.5t32.5 18.5h6l323 2q20 0 35 -15t15 -35v-65q0 -45 -56 -51q-20 -1 -32.5 -15t-13.5 -34v-603q0 -127 -8.5 -219t-30.5 -164.5t-55.5 -119 t-86.5 -76.5t-120.5 -42.5t-160.5 -12.5q-87 0 -148 9t-115 34.5t-87.5 70t-58 115.5t-35 170.5t-10.5 236.5q0 43 -1 204t-1 273.5t2 125.5q0 21 -14 35t-37 14q-20 2 -34 15t-14 32z" />
<glyph unicode="V" horiz-adv-x="1163" d="M23 1384v5q-1 17 11 30q14 15 34 15l274 2q19 0 32 -13t13 -32v-76q0 -18 -12.5 -30.5t-30.5 -12.5h-10q-14 0 -22.5 -11t-4.5 -24l244 -985q3 -12 16 -12q14 0 17 12l239 981q3 13 -4.5 24t-21.5 13h-31q-17 2 -29 14t-12 29v78q-1 19 12 32t33 13h326q20 0 33 -13 t12 -32l-2 -78q0 -19 -12 -31t-29 -12h-35q-24 0 -27 -19l-291 -1208q-13 -41 -57 -41l-239 2q-19 0 -34.5 11t-21.5 30l-291 1206q-7 21 -26 21h-8q-15 0 -27 12t-14 27z" />
<glyph unicode="W" horiz-adv-x="1783" d="M20 1393q0 17 12 29t29 12l316 2q17 0 29 -11t12 -28l4 -70q2 -17 -9 -30.5t-30 -14.5h-6q-19 -2 -30.5 -16t-8.5 -33l168 -797q2 -6 8 -6.5t8 6.5l273 955q6 20 22.5 32.5t36.5 12.5h23q20 0 36.5 -12t22.5 -31l295 -957q1 -6 8 -6t8 6l185 797q5 19 -7 34t-32 15h-4 q-15 2 -26.5 13t-12.5 28l-4 66q0 19 11.5 32t28.5 13l334 4q19 0 31 -12t12 -31l-2 -72q0 -17 -12 -29t-29 -12h-26q-14 0 -26 -9t-15 -22l-277 -1214q-3 -13 -14 -22t-25 -9h-145q-13 0 -24.5 8.5t-14.5 20.5l-281 1003q-2 6 -7 6t-7 -6l-242 -1005q-4 -14 -16 -23 q-11 -8 -22 -8h-3h-131q-14 0 -24.5 9t-13.5 22l-279 1212q-7 29 -39 33h-27q-17 1 -27.5 13t-10.5 28z" />
<glyph unicode="X" horiz-adv-x="1107" d="M20 1327v49q0 23 17.5 39.5t40.5 16.5h293q25 0 41.5 -17.5t15.5 -42.5l-4 -47q0 -19 -13 -32t-32 -15q-9 -1 -13 -9t-1 -16l176 -311q6 -12 19.5 -12.5t19.5 10.5l192 301q6 9 1 20t-17 11q-20 2 -34 15.5t-15 33.5v51q-1 25 15.5 42.5t41.5 17.5l264 2q23 0 40 -16.5 t17 -39.5v-53v-5q-1 -18 -13 -32q-14 -16 -36 -16h-20q-38 0 -58 -33l-268 -461q-12 -23 -12 -46t12 -46l279 -518q7 -10 16 -10h37q23 0 39 -16.5t16 -39.5v-49q-2 -23 -18 -39t-39 -16l-297 2q-24 0 -40.5 16.5t-16.5 40.5v45q2 21 16 36t35 16h14q11 0 17 9.5t0 18.5 l-175 342q-7 12 -21 12t-20 -12l-190 -346q-5 -9 0.5 -18.5t15.5 -9.5q22 -2 37 -17t15 -37l-2 -43q0 -23 -16.5 -39t-41.5 -16h-270q-23 2 -39 18t-16 39v47q0 20 13.5 35.5t33.5 16.5l32 2q13 4 15 10l297 528q14 25 14 49q0 22 -12 43l-271 457q-18 29 -49 29l-30 2 q-20 2 -34 16.5t-14 36.5z" />
<glyph unicode="Y" horiz-adv-x="1107" d="M20 1386q0 20 13.5 34t32.5 14h280q19 0 32 -13t13 -32l2 -70q0 -19 -13 -32t-32 -13h-16q-7 0 -11.5 -6.5t-1.5 -12.5l211 -419q5 -6 12.5 -6.5t12.5 6.5l248 415q3 6 0 13t-10 8h-39q-19 2 -32 15t-13 32l2 67q2 19 14.5 32.5t30.5 13.5h286q19 0 32 -14t13 -34v-69 q0 -18 -12.5 -30.5t-30.5 -12.5q-25 -3 -38 -23l-365 -657q-6 -12 -6 -25l6 -364q0 -19 12 -32t31 -13l25 -2q19 0 31 -12t12 -31l2 -66q0 -19 -12.5 -32t-32.5 -13h-340q-19 0 -32 13t-15 32v64q0 19 13 32t32 13h20q19 2 32 14.5t13 30.5v374q0 7 -4 23l-313 651 q-10 19 -35 23h-14q-19 0 -31 13t-12 32z" />
<glyph unicode="Z" horiz-adv-x="1056" d="M61 127q0 25 15 49l651 1057q5 9 -0.5 18t-15.5 9l-439 -3q-17 0 -28 -10.5t-13 -27.5l-2 -48q-1 -17 -13.5 -27.5t-29.5 -10.5l-82 4q-17 0 -28 12t-10 29l2 217q0 15 12 27t29 12h835q20 -1 33.5 -15.5t15.5 -34.5v-63q1 -4 1 -8q0 -20 -13 -41l-641 -1053 q-4 -7 0 -14.5t12 -9.5l422 -2q16 0 28 10.5t13 27.5v5q0 17 13 28.5t30 9.5l86 -6q17 0 28 -12t11 -29l-4 -188q0 -15 -12 -27t-29 -12h-811q-25 0 -44 17.5t-20 43.5z" />
<glyph unicode="[" horiz-adv-x="616" d="M164 -276l4 1785q0 31 17 49.5t46 18.5q144 0 195 2q26 1 40.5 -8t18.5 -20t7 -29q0 -3 -5 -52q0 -17 -13 -28.5t-32 -11.5h-32q-16 -2 -27.5 -13t-11.5 -28l-4 -1555q0 -15 11 -27.5t28 -13.5h8q29 -1 44.5 -7t22 -17.5t7 -29t-0.5 -42.5q-2 -31 -22.5 -45t-71.5 -14 h-153q-76 0 -76 86z" />
<glyph unicode="\" horiz-adv-x="864" d="M42 1461.5q-3 18.5 2 30.5t19 13q37 6 89 6q25 0 40.5 -19t38.5 -73q42 -102 295 -676.5t271 -621.5q30 -67 26 -94t-59 -27q-72 0 -84 4q-10 3 -18 9t-13 11t-11.5 17t-9 17t-10 22.5t-10.5 23.5q-17 37 -277 648.5t-272 644.5q-6 15 -10 30.5t-7 34z" />
<glyph unicode="]" horiz-adv-x="616" d="M125 1522q2 18 6.5 29t19 20t39.5 8l195 -2q29 0 46.5 -18.5t17.5 -49.5l4 -1785q0 -86 -76 -86h-154q-51 0 -71.5 14t-22.5 45q-1 25 0 42.5t7 29t22 17.5t45 7h8q17 1 28 13.5t11 27.5l-4 1555q0 17 -11 28t-28 13h-33q-19 0 -32 11.5t-13 28.5q-5 45 -4 52z" />
<glyph unicode="_" horiz-adv-x="970" d="M2 -70q-2 43 13.5 63.5t64.5 20.5q22 0 409 1t416 1q64 0 64 -77q3 -77 -62 -80q-40 -1 -410.5 -1t-414.5 1q-47 0 -62.5 15.5t-17.5 55.5z" />
<glyph unicode="`" horiz-adv-x="436" d="M62.5 1521.5q3.5 32.5 37.5 57.5q72 52 121 -20q37 -54 137 -224q6 -9 10.5 -20t4.5 -27.5t-11 -25.5q-34 -23 -73 12q-117 103 -201 186q-29 29 -25.5 61.5z" />
<glyph unicode="a" horiz-adv-x="948" d="M83 300q4 70 28 130q43 110 128.5 161.5t215.5 53.5q80 0 98 -2q12 -1 21.5 8t9.5 21q2 25 2 49q0 51 -8 92q-10 75 -38 112t-100 38q-34 1 -60.5 -6.5t-44 -21t-27 -23.5t-18.5 -25l-9 -15q-7 -11 -7 -63q0 -37 -34 -37h-99q-39 0 -39 36v5v19q-1 18 -1.5 41t-0.5 34 q0 1 2 9t4 12q7 16 19 35t39.5 46.5t62 49t90 38t119.5 17.5h10q48 0 88 -9q44 -10 72.5 -24.5t54.5 -42.5t40.5 -49.5t35.5 -58.5q36 -61 43 -195q2 -39 4.5 -172.5t4.5 -244.5t2 -119q0 -47 26 -47h27q43 0 43 -54v-53q0 -45 -53 -45h-175q-22 0 -37.5 16t-17.5 37 q-4 46 -4 49v17q-2 6 -5.5 6t-6.5 -6q-20 -36 -49 -68q-31 -34 -86.5 -47.5t-102.5 -13.5h-26h-17h-11q-7 0 -21.5 2.5t-28.5 7.5q-18 7 -47 25q-8 5 -23 17.5t-18 16.5q-40 39 -60 105q-16 55 -16 113q0 11 1 23zM268 295q0 -108 99 -123q9 -1 18 -1q33 0 73 14 q50 18 88.5 51.5t41.5 68.5q1 18 1 44q0 44 -3 114q0 11 -8 19t-19 10q-25 1 -48 1q-86 0 -138 -12q-31 -8 -52 -23.5t-31 -30t-15.5 -39.5t-6 -38.5t-0.5 -41.5v-13z" />
<glyph unicode="b" horiz-adv-x="962" d="M63 1403v47q-1 23 15 39t39 16l200 2q23 0 39.5 -15.5t16.5 -37.5v-358q0 -10 8 -15t16 0q74 52 168 52q55 0 100 -21.5t78.5 -63t57.5 -89t47 -111.5q17 -49 24 -126q8 -76 8 -120q0 -4 1 -10q0 -46 -4 -142q-4 -108 -5 -116q-23 -177 -100.5 -259t-187.5 -85 q-79 0 -120 13.5t-79 51.5q-3 4 -8.5 2.5t-5.5 -6.5v-8q-1 -19 -14.5 -31t-32.5 -12h-80q-27 0 -45.5 17.5t-18.5 43.5l-10 1244q0 48 -53 51q-24 2 -39 14t-15 33zM373 242q0 -33 26 -56q35 -32 87 -36q7 -1 14 -1q45 -1 86 23q47 26 67 76q11 29 18 55t9 52.5t3 42.5 q0 8 0.5 19t-0.5 25q-1 30 -1 41q0 322 -47 396q-55 86 -146 86q-40 0 -88 -17q-11 -3 -18.5 -14t-7.5 -23q0 -487 -2 -669z" />
<glyph unicode="c" horiz-adv-x="888" d="M82 569q2 96 17 182t47.5 171t93.5 143t145 74q41 8 90 9h12q43 0 89 -6q52 -7 99.5 -25t85 -43.5t60.5 -65.5t23 -88v-68q0 -31 -22.5 -53.5t-53.5 -22.5q-12 0 -34 1t-32 1q-31 0 -52 21.5t-21 52.5q1 68 -43 100q-34 25 -91 25q-16 0 -34 -2q-34 -3 -60.5 -18.5 t-43.5 -45t-27.5 -56t-17 -71.5t-8.5 -70.5t-5 -72.5q-2 -43 -2 -82q-1 -51 3 -98q6 -82 28 -158t69 -119t117 -44q28 0 44 3.5t25.5 15t13.5 22t12.5 37.5t17.5 48q7 22 26 34.5t43 12.5h88q31 0 50 -24q14 -18 14 -38q0 -7 -2 -15q-14 -68 -40 -111t-69 -78 q-38 -31 -120 -49q-62 -14 -111 -14q-16 0 -31 2q-278 33 -352 260q-16 45 -25 105.5t-11 96.5t-5 121z" />
<glyph unicode="d" horiz-adv-x="952" d="M84 607q0 45 7.5 121.5t25.5 125.5q22 63 46 110t57 88.5t78 63t99 21.5q99 0 170 -50q7 -6 16 -1t9 14v200q2 19 -11.5 32.5t-33.5 13.5l-33 2q-19 0 -32 13.5t-13 33.5l2 65q0 19 13 32t32 13h232q20 0 33.5 -13.5t13.5 -33.5l-13 -1255q0 -20 13 -33.5t32 -13.5h17 q20 0 33.5 -13.5t13.5 -33.5v-58q0 -20 -14 -33.5t-33 -13.5l-205 2q-17 0 -30.5 12t-14.5 31v6q-4 14 -16 6q-38 -39 -78 -52t-119 -13q-52 2 -97 20.5t-84.5 57.5t-67.5 106t-40 158q0 12 -4 118q-4 95 -5 141q1 6 1 10zM281 489q3 -117 55 -229q16 -56 58 -84 q36 -24 75 -23q7 1 13 1q47 4 83 36q25 22 25 56q0 92 -1 334.5t-1 334.5q0 29 -27 39q-47 17 -87 17q-89 0 -144 -86q-14 -23 -24 -63.5t-14.5 -95t-6.5 -91.5t-3 -91t-1 -55z" />
<glyph unicode="e" horiz-adv-x="890" d="M84 506q0 19 -1 38q1 94 11 174q12 96 33 167q77 258 328 264h11q34 -1 70 -11q42 -12 88 -41t87.5 -87t68.5 -138q16 -48 23 -132q5 -59 5 -117q0 -24 -1 -48q0 -30 -21.5 -50.5t-52.5 -22.5l-407 -4q-39 -3 -39 -45q0 -40 7.5 -86.5t24 -97.5t49.5 -84.5t78 -34.5 q3 0 6 -1q44 0 75 14q33 14 47 31.5t28 45.5q6 16 10 65q1 23 17 38t39 17q37 3 63 3q13 0 23 -1q19 0 32 -13t13 -32q-1 -3 -0.5 -41t0.5 -40q0 -41 -33 -91t-72 -84q-43 -33 -94 -51q-50 -17 -100 -18h-3q-52 0 -83.5 4.5t-71.5 13.5q-92 21 -151.5 99t-82 179.5 t-24.5 217.5zM293 713v-5q-1 -18 11 -30q14 -14 36 -14h221q24 0 38 19q12 16 12 37q0 5 -1 9q0 34 -2 59t-9 59t-24.5 60.5t-44.5 42.5q-30 19 -69 22h-11q-34 0 -66 -16q-38 -19 -58 -59q-21 -44 -33 -184z" />
<glyph unicode="f" horiz-adv-x="622" d="M41 1032v35q0 24 16.5 40.5t40.5 16.5h56q12 0 21 9.5t9 21.5q2 35 2 102q1 9 2 33t1.5 31t2.5 26.5t4.5 27.5t6.5 24t9.5 27t13.5 25.5t18 29.5q38 54 148 54q73 0 179 -24q27 -6 41 -29q9 -15 9 -31q0 -9 -3 -19l-12 -48q-7 -24 -28 -37t-46 -10q-24 4 -45 4 q-85 0 -94 -69q-6 -50 -6 -117q0 -13 9 -22t22 -11h110q25 -2 42 -19.5t16 -41.5v-27q0 -23 -17.5 -40t-42.5 -17h-102q-14 -2 -23.5 -12t-9.5 -23l2 -735q0 -19 14.5 -33t34.5 -14l39 -2q19 0 33 -13.5t14 -33.5l2 -58q0 -22 -14.5 -36.5t-34.5 -14.5l-368 2 q-22 0 -36 13.5t-14 33.5v55q0 20 14 35t34 15l18 2q20 0 33.5 14t13.5 33l4 737q0 13 -10.5 23t-22.5 10h-49q-23 0 -39 16.5t-18 40.5z" />
<glyph unicode="g" horiz-adv-x="993" d="M86 692q8 142 31 199q58 136 131 192q63 48 157 48q15 0 31 -1q96 -7 158 -75q6 -6 13 -3t7 9v12q0 22 16 37.5t38 15.5q31 -1 97.5 -1t102.5 -1q27 0 45.5 -17.5t18.5 -43.5v-29q0 -25 -18 -43.5t-44 -19.5h-14q-20 0 -34.5 -14.5t-14.5 -34.5v-383v-64q0 -208 10 -594 v-13q0 -95 -27 -187q-30 -98 -88 -136q-119 -78 -252 -78q-137 0 -288 82l-12 9q-14 8 -19.5 23t0.5 30l31 82q8 20 26.5 29.5t40.5 3.5q1 0 4.5 -1t4.5 -1q21 -6 63.5 -22t78 -26t69.5 -12h4q34 0 67 14q36 15 64.5 53t31.5 91q4 52 4 134q0 54 -2 122q0 6 -6 8t-10 -2 q-34 -37 -74.5 -60t-78.5 -30q-35 -6 -63 -6h-4q-29 1 -54 6q-51 11 -103 66.5t-88 127.5q-33 65 -47 214q-8 91 -8 179q0 56 4 111zM280 478q8 -98 19 -138q7 -28 9.5 -38.5t11.5 -40.5t18 -45.5t22 -35.5t29.5 -29.5t36.5 -9.5h5q47 0 82 17q37 18 55.5 48.5t27 59 t10.5 58.5q0 2 4 34q-4 148 -4 191q0 3 0.5 34.5t1 80t0.5 94.5q0 65 -6 82q-26 88 -84 118q-31 19 -64 19q-21 0 -42 -7q-57 -18 -88 -79q-33 -65 -42 -189q-5 -68 -5 -129q0 -50 3 -95z" />
<glyph unicode="h" horiz-adv-x="991" d="M41 1393v63q0 22 13.5 35.5t35.5 13.5h193q20 -2 33.5 -15.5t13.5 -33.5l6 -358q0 -7 7 -11.5t11 0.5q38 35 77 49.5t93 14.5q301 0 307 -285l15 -669q2 -18 14 -29t29 -10h16q17 0 29 -11t12 -28l2 -72q2 -17 -10 -30t-31 -13l-313 2q-17 0 -29 12t-12 29v72 q1 17 12.5 28t28.5 13h10q17 0 29 13t10 30q0 11 -1 31t-1 26q0 45 0.5 147t0.5 158t-1.5 144t-5.5 168q-3 65 -49 96q-40 27 -90 27h-15q-60 -4 -114 -35q-27 -17 -27 -47q0 -78 -1 -366.5t-1 -352.5q0 -17 11 -29t28 -12h14q16 -2 27.5 -14t11.5 -29v-72q0 -17 -12 -29 t-29 -12l-215 2h-65q-17 -1 -29 10t-14 27l-5 72q0 17 12 30t29 13h4q17 0 29 12t12 29l-4 1099q0 19 -13.5 33t-33.5 14l-10 3q-19 0 -32 14t-13 33z" />
<glyph unicode="i" horiz-adv-x="489" d="M41 41l8 94q0 10 9 18.5t20 8.5h33q12 0 21 9.5t9 21.5v753q0 12 -8 20.5t-20 8.5l-29 2q-12 0 -20.5 8.5t-8.5 20.5l-4 94q0 12 8.5 21t20.5 9h235q12 0 21.5 -8t9.5 -20l16 -909q2 -12 10.5 -20.5t20.5 -8.5l25 -2q11 0 19.5 -8.5t8.5 -20.5l3 -94q0 -13 -9.5 -22 t-21.5 -9h-314q-16 0 -39.5 10.5t-23.5 22.5zM88 1376v11q0 59 30 85q31 27 101 28q5 0 10 -1q34 -1 57.5 -11t35 -21.5t17.5 -32.5q7 -20 7 -32v-8q0 -10 -1 -24q-1 -20 -1 -22q-1 -41 -44 -58q-37 -14 -87 -14h-18q-58 4 -81 26t-26 74z" />
<glyph unicode="j" horiz-adv-x="514" d="M-120 -428q-2 7 -2 13q0 8 3 16q2 5 10 21l11 22q18 31 42 31q10 0 21 -5q29 -15 54.5 -15t48.5 15q47 30 75 111q31 62 31 178v21q0 591 4 923q0 20 -14 34.5t-33 14.5h-8q-20 2 -33.5 15.5t-13.5 33.5l-2 70q0 20 14.5 34.5t34.5 14.5h221q20 0 33.5 -14.5t13.5 -34.5 q-1 -70 -1.5 -530t-2.5 -547v-16q0 -58 -13 -128q-14 -80 -40 -139q-51 -113 -126 -170q-71 -53 -146 -53h-10q-80 4 -156 61q-12 9 -16 23zM125 1366v11q0 58 30 85q30 25 95 25h14q26 -1 46 -6.5t32.5 -13.5t21 -20.5t12.5 -22.5t5 -25.5t1 -23.5t-1.5 -22t-1.5 -16 q0 -42 -42 -58q-35 -13 -86 -13h-20q-58 3 -80.5 25t-25.5 75z" />
<glyph unicode="k" horiz-adv-x="1097" d="M82 106q0 18 12.5 31t30.5 13l16 2q17 0 29 13t12 30l-8 1116q0 40 -39 43q-17 2 -29 14t-12 29l-2 63q0 19 12 32t31 13l205 2q18 0 30.5 -12.5t12.5 -30.5v-290l4 -979q0 -19 12 -31t31 -12h14q18 -2 30.5 -14t12.5 -29v-62q0 -19 -12 -31t-31 -12l-317 -2 q-18 0 -30.5 12.5t-12.5 30.5zM442 614l207 318q2 4 7.5 11t8.5 11t5 8.5t-1 7t-10 3.5h-30q-9 0 -17 6.5t-8 15.5v101q-1 10 6 17t17 7h352q9 0 17 -7.5t8 -16.5l-3 -107q0 -9 -6.5 -15.5t-15.5 -6.5l-82 -2q-11 0 -18 -11l-217 -329q-9 -10 -10 -25t7 -27l299 -411 q7 -10 19 -10l43 -2q14 0 24.5 -11t10.5 -26l2 -66q0 -20 -13.5 -34.5t-33.5 -14.5l-312 2q-16 0 -27.5 11t-11.5 28l-4 65q0 19 12 32.5t29 13.5l11 2q25 -2 30 4.5t-12 31.5l-281 400q-5 7 -5 14q0 6 3 12z" />
<glyph unicode="l" horiz-adv-x="557" d="M63 37v72q-1 13 8 25.5t23 15.5l37 8q14 3 23.5 14.5t9.5 26.5l-8 1112q0 17 -11 28t-28 13q-15 2 -26 13t-11 26l-6 67q-1 18 11 31.5t30 13.5l219 2q17 0 30 -12t13 -29v-295l8 -981q0 -15 11 -27.5t28 -13.5l33 -2q17 0 28 -12t11 -29v-69q0 -17 -12 -29t-29 -12 l-351 2q-18 0 -29.5 11.5t-11.5 29.5z" />
<glyph unicode="m" horiz-adv-x="1554" d="M61 1018v59q0 20 13 32.5t32 12.5h205q20 0 34.5 -14.5t16.5 -34.5v-12q0 -3 3 -4.5t6 0.5q40 42 80 57.5t100 15.5q105 0 164.5 -30.5t95.5 -85.5q50 61 122 88.5t122 27.5q78 0 137.5 -20.5t93 -49.5t54.5 -70.5t28 -74.5t8 -69q11 -518 15 -658q0 -15 11 -25.5 t28 -10.5l24 -2q15 0 26 -11t11 -26l2 -74q0 -17 -11.5 -28t-27.5 -11h-328q-16 0 -27.5 11t-11.5 28v74q0 16 11 27.5t28 11.5h13q16 0 27.5 10.5t11.5 27.5l-13 668q-3 66 -51 97q-39 26 -89 26q-10 1 -21 -1q-63 -6 -117 -42q-17 -10 -17 -31v-719q0 -15 11 -25.5 t28 -10.5l27 -2q17 0 28 -11t11 -28v-72q0 -17 -11.5 -28t-27.5 -11h-318q-15 0 -26.5 11t-11.5 28l2 74q0 15 10.5 26t25.5 11h11q17 0 28 11.5t11 26.5l-6 670q-2 66 -50 97q-39 26 -90 26q-12 1 -22 -1q-64 -6 -117 -42q-16 -10 -16 -31v-719q0 -15 11 -25.5t28 -10.5 l26 -2q17 0 28 -11t11 -28v-72q0 -17 -11.5 -28t-27.5 -11h-317q-16 0 -27.5 11t-11.5 28l2 74q0 15 11 26t26 11h10q17 0 28 11.5t11 26.5l-6 740q0 18 -11.5 30.5t-29.5 14.5h-13q-18 2 -30.5 14.5t-12.5 30.5z" />
<glyph unicode="n" horiz-adv-x="1050" d="M61 1018v59q0 20 13 32.5t32 12.5h205q20 0 34.5 -14.5t16.5 -34.5v-12q0 -3 3 -4.5t6 0.5q40 42 80 57.5t100 15.5q78 0 137.5 -20.5t93 -49.5t54.5 -70.5t28 -74.5t8 -69q11 -518 15 -658q0 -15 11 -25.5t28 -10.5l24 -2q15 0 26 -11t11 -26l2 -74q0 -17 -11.5 -28 t-27.5 -11h-327q-16 0 -27.5 11t-11.5 28v74q0 16 11 27.5t28 11.5h12q16 0 27.5 10.5t11.5 27.5l-12 668q-2 66 -50 97q-39 26 -90 26q-12 1 -22 -1q-64 -6 -117 -42q-16 -10 -16 -31v-719q0 -15 11 -25.5t28 -10.5l26 -2q17 0 28 -11t11 -28v-72q0 -17 -11.5 -28 t-27.5 -11h-317q-16 0 -27.5 11t-11.5 28l2 74q0 15 11 26t26 11h10q17 0 28 11.5t11 26.5l-6 740q0 18 -11.5 30.5t-29.5 14.5h-13q-18 2 -30.5 14.5t-12.5 30.5z" />
<glyph unicode="o" horiz-adv-x="958" d="M85 622q6 102 35 196.5t77 167.5t122 117t164 44q77 0 140 -28t105 -75t72.5 -110.5t46.5 -131.5q16 -70 23 -144q6 -65 6 -122v-16q-1 -64 -8 -125q-12 -107 -45.5 -189.5t-82 -131.5t-109.5 -77q-56 -26 -117 -26q-4 1 -10 1q-66 2 -137 22q-74 25 -132 88.5 t-92.5 148.5t-48.5 187q-10 72 -11 144q0 30 2 60zM274 614q0 -82 11.5 -162.5t35 -151.5t64 -115t92.5 -44q113 0 157 114t44 357q0 190 -58.5 278.5t-142.5 88.5q-89 0 -146 -111.5t-57 -253.5z" />
<glyph unicode="p" horiz-adv-x="970" d="M41 -461l2 70q0 19 13 32t30 13h35q19 2 33 15.5t14 33.5v1227q0 12 -9.5 21.5t-21.5 9.5h-49q-12 0 -20.5 9t-8.5 21l-2 92q-1 15 9.5 26t25.5 11h236q15 0 26 -10t11 -25v-28q0 -3 2.5 -4t5.5 2q30 46 73 65q32 15 83 15q19 0 40 -2q51 -7 98 -28.5t93.5 -60.5 t78 -108.5t38.5 -159.5q11 -131 11 -234q0 -190 -36 -288q-39 -113 -120 -179t-183 -77q-16 -2 -31 -2q-82 0 -139 61q-6 5 -12.5 2t-6.5 -10q0 -44 1 -177.5t1 -172.5q0 -20 13.5 -33.5t34.5 -15.5h30q20 0 33.5 -14.5t13.5 -34.5l-2 -62q0 -20 -14 -33.5t-33 -13.5h-352 q-19 0 -32 13.5t-13 33.5zM367 217q0 -24 22 -37q60 -39 109 -39q80 0 129 105q57 122 57 332v35q-3 178 -38 254q-2 2 -3 5q-28 56 -81 81q-36 17 -72 17l-32 -3q-53 -11 -87 -54q-4 -6 -4 -18v-678z" />
<glyph unicode="q" horiz-adv-x="1001" d="M86 690q8 142 31 199q56 134 135 191q68 48 163 48q16 0 34 -2q96 -7 163 -79q3 -5 9 -2.5t6 8.5v14q0 23 17 39t40 16h109q23 0 40 -17t17 -40q-1 -55 -2 -193t-2 -234.5t-2 -100.5q-1 -48 -1 -107q0 -255 11 -719q0 -26 18.5 -43.5t45.5 -19.5q26 -2 44.5 -21t18.5 -47 v-20q-1 -28 -20.5 -47t-45.5 -19l-342 -2q-26 0 -44.5 18t-20.5 44l-2 26q-2 27 16 48t45 22h2q26 1 44 19.5t18 43.5v363q0 6 -6.5 8t-10.5 -2q-34 -37 -74.5 -60t-78.5 -30q-35 -6 -63 -6h-4q-29 1 -54 6q-53 12 -111 68t-92 126q-33 65 -47 214q-8 91 -8 179q0 56 4 111z M292 476q8 -98 19 -138q7 -28 9.5 -38.5t11.5 -40.5t18 -45.5t22 -35.5t29.5 -29.5t36.5 -9.5h5q47 0 82 17q37 18 55.5 48.5t27 59t10.5 58.5q0 2 1 6.5t2 12t2 15.5q-5 185 -5 189q0 5 1 40t1.5 88.5t0.5 104.5v15q-12 54 -38 101t-53 62q-31 19 -64 19q-21 0 -42 -7 q-57 -18 -88 -79q-33 -66 -42 -191q-5 -67 -5 -127q0 -50 3 -95z" />
<glyph unicode="r" horiz-adv-x="700" d="M82 1010v61q0 22 14.5 36.5t34.5 14.5h217q17 0 28 -11t13 -28v-6q0 -5 3.5 -7t8.5 1q75 72 191 72q18 0 84 -21q22 -10 22 -28q0 -46 -30 -176q-3 -12 -14.5 -17.5t-22.5 0.5q-52 32 -110 32h-4q-60 -1 -114 -36q-10 -10 -10 -23v-690q0 -12 10 -22t23 -10l31 -2 q13 0 22.5 -8.5t9.5 -20.5v-88q1 -15 -8.5 -25t-23.5 -10h-322q-13 0 -23 10.5t-10 24.5v86q0 13 9.5 22t23.5 9h21q14 0 23 9.5t9 24.5l-4 725q0 20 -14.5 34.5t-34.5 14.5h-6q-20 1 -33.5 16.5t-13.5 35.5z" />
<glyph unicode="s" horiz-adv-x="876" d="M64 862q13 88 62.5 154.5t115.5 95.5q7 3 19 7t49 12q36 7 72 11q18 2 40 2t47 -2q50 -4 94.5 -18t92 -47t83.5 -82q16 -22 19 -47q0 -12 1 -32.5t1 -30.5q1 -32 -21.5 -55t-54.5 -23h-51q-30 2 -51.5 23t-22.5 51v14q0 18 -12 33q-11 15 -22 24.5t-17.5 14.5t-21 7.5 t-19.5 3t-26 0t-29 -0.5q-51 0 -92.5 -35.5t-52.5 -85.5q-4 -16 -4 -33q0 -35 16 -71q15 -29 32.5 -49.5t44.5 -35t44 -21t57 -18t57 -16.5q59 -20 103 -40t90 -51t73 -74t31 -95q3 -33 3 -62q0 -44 -7 -81q-12 -61 -43.5 -101t-70.5 -65t-93 -43q-50 -18 -106 -25 q-32 -4 -67 -4q-25 0 -52 2q-64 5 -132 34t-128 79q-34 26 -37 74q0 71 2 102q0 28 19.5 47t47.5 19l74 -4q25 0 43.5 -18.5t20.5 -43.5q0 -23 2 -33q0 -28 22 -47q30 -28 64 -37.5t84 -9.5q80 1 111 35q28 31 28 114v17q-3 61 -34 87t-136 67q-16 6 -56.5 21.5t-55 22 t-46.5 21.5t-48 27.5t-40 33t-42 45.5t-36 56q-41 74 -41 145q0 17 3 35z" />
<glyph unicode="t" horiz-adv-x="690" d="M41 1077q0 19 13 32t32 13h49q19 0 32 13t13 32l-2 148q0 19 12.5 32t32.5 13h119q19 -2 31 -14t12 -31l-2 -148q0 -19 13 -32t30 -13h115q19 -2 31 -14t12 -31l-2 -65q2 -17 -11 -30t-32 -13l-107 -2q-19 0 -32 -13t-12 -30q0 -640 7 -697q8 -70 93 -70q27 0 63 7 q18 3 32.5 -5.5t18.5 -25.5q9 -33 23 -78q2 -8 2 -16q-1 -13 -7 -25q-10 -18 -32 -24q-72 -18 -138 -24q-22 -2 -42 -2q-42 0 -81 8q-58 12 -81 46q-26 38 -38.5 76.5t-14.5 61t-5 86.5q-1 15 -1.5 152t-1 304t-1.5 228q0 17 -12 30t-29 13l-57 2q-18 0 -30.5 12.5 t-12.5 30.5z" />
<glyph unicode="u" horiz-adv-x="1052" d="M41 1010v71q0 18 12.5 30.5t30.5 12.5l235 -2q19 0 31 -12t12 -31q-1 -50 -2 -231t-2 -211v-18q0 -43 -2 -161q-2 -96 -3 -152q0 -32 1 -50q4 -65 58 -97q47 -27 104 -27h20q70 6 128 38q22 13 22 41v717q0 17 -12 29t-29 12h-2q-17 2 -29 14t-12 29v69q0 18 12.5 30.5 t30.5 12.5h199q19 0 31 -12t12 -29l10 -886q0 -19 13 -31t32 -12h27q17 0 30 -13t13 -30v-64q0 -18 -12.5 -30.5t-30.5 -12.5l-234 -6q-18 -1 -30.5 11.5t-14.5 31.5v2q0 6 -5 8t-9 -2q-73 -63 -215 -63q-78 0 -137.5 20t-92.5 49t-53.5 69t-27 73t-7.5 69q-1 47 -1 125 q0 182 5 533q0 19 -12 31t-31 12h-20q-18 0 -30.5 12.5t-12.5 30.5z" />
<glyph unicode="v" horiz-adv-x="1007" d="M23 1073q-1 19 12.5 33t32.5 14l290 2q19 0 32.5 -13.5t12.5 -31.5v-67q0 -17 -12 -29t-29 -14h-10q-13 0 -21 -10.5t-5 -22.5l153 -690q4 -15 19 -15q14 0 18 15l160 690q3 12 -6 22.5t-21 12.5h-18q-19 0 -31 12t-12 31l2 63q0 19 13 32t32 13l219 2l88 -2q19 0 32 -13 t13 -30v-65q0 -19 -12 -31t-31 -12h-22q-24 0 -27 -21l-227 -897q-6 -23 -24.5 -37t-41.5 -14l-205 2q-22 0 -39.5 13.5t-23.5 35.5l-230 893q-2 8 -8.5 14.5t-15.5 6.5h-12q-17 1 -28.5 12.5t-12.5 28.5z" />
<glyph unicode="w" horiz-adv-x="1488" d="M20 1006v77q0 17 13 29t30 12l310 -4q15 0 27.5 -11t13.5 -28l4 -69q0 -18 -11.5 -30.5t-29.5 -12.5h-4q-19 -2 -30 -16t-7 -33l96 -551q2 -6 8 -7t9 5l215 710q13 43 59 43h20q45 -3 58 -43l209 -708q1 -6 8 -5.5t8 7.5l111 544q4 20 -8 36t-31 16q-17 0 -28 11t-13 28 l-4 67q-1 19 10.5 32t28.5 13l333 4q17 0 30 -12t13 -29l-2 -71q0 -17 -12 -29t-29 -12h-26q-14 0 -26 -10t-15 -23l-203 -903q-3 -14 -14.5 -23.5t-26.5 -9.5h-143q-13 0 -24.5 8.5t-16.5 22.5l-187 710q-1 5 -8 5t-8 -5l-186 -714q-3 -14 -14.5 -22.5t-26.5 -8.5h-131 q-13 0 -24.5 9.5t-14.5 23.5l-207 903q-3 13 -13.5 22t-23.5 9l-27 2q-17 0 -28 12.5t-11 28.5z" />
<glyph unicode="x" horiz-adv-x="1048" d="M43 61l2 45q0 19 13.5 34t33.5 16l17 2q29 0 45 26l247 361q13 22 13 42q0 22 -15 42l-221 319q-16 25 -45 25l-24 2q-21 0 -36.5 15.5t-15.5 35.5l2 39q0 23 16.5 39t41.5 16h270q25 0 41 -17t16 -42l-4 -33q0 -20 -13.5 -33.5t-33.5 -15.5q-8 -2 -11 -9.5t3 -13.5 l123 -192q6 -8 16.5 -8.5t18.5 6.5l123 186q7 8 2.5 17.5t-15.5 11.5q-19 0 -33 14t-14 33l-4 43q0 25 16 42t41 17l267 -2q23 0 39 -15.5t18 -37.5l2 -43q0 -22 -14.5 -37.5t-34.5 -15.5l-16 -2q-29 0 -54 -25l-225 -332q-16 -18 -16 -37q0 -17 12 -34l242 -361 q23 -30 59 -30l18 -2q22 0 37 -15t15 -37v-43q-1 -25 -18 -41t-40 -16h-291q-24 0 -40.5 15t-16.5 38l-2 45q-2 22 13 38t38 16q11 2 17 12t0 20l-123 205q-6 10 -23 11.5t-24 -7.5l-146 -219q-5 -6 -0.5 -14t13.5 -8q22 0 36.5 -15t14.5 -37v-43q0 -23 -17 -40t-41 -17 l-258 2q-25 0 -42 18t-15 41z" />
<glyph unicode="y" horiz-adv-x="1013" d="M20 1026l3 43q0 22 14.5 36.5t36.5 14.5l233 -2q23 0 38 -16t13 -39l-6 -68q-2 -26 -49 -26q-4 0 -7 -4t-1 -9q162 -593 209 -710q2 -6 8 -5t8 7q15 51 51 205t71.5 310.5t39.5 172.5q3 10 -3 19.5t-15 11.5l-19 2q-20 3 -33.5 18t-13.5 37l-2 43q0 22 14.5 37.5 t36.5 15.5h291h3q22 0 37 -16q13 -15 13 -36v-5l-6 -47q-3 -22 -18 -35.5t-37 -15.5h-15q-12 0 -21.5 -8t-12.5 -19l-103 -406q-33 -100 -108 -406t-121 -423q-29 -80 -79 -131.5t-100 -72t-108 -24.5q-24 -2 -45 -2q-29 0 -51 3q-37 6 -70 16q-2 1 -9 4t-10 4.5t-8.5 5.5 t-7 8t-4.5 11t-3 16t1.5 21.5t5.5 27.5q9 38 30 51.5t48 2.5q31 -4 59 -4q46 0 81 11q55 17 86 85q25 51 45 270q0 17 -4 23l-304 917q-7 21 -26 21q-23 2 -39.5 19t-16.5 40z" />
<glyph unicode="z" horiz-adv-x="909" d="M61 129q0 30 15 51l508 746q5 9 -1 18t-16 8l-303 -4q-15 0 -26.5 -10t-12.5 -25v-32q-1 -15 -13.5 -25t-27.5 -10l-80 2q-17 0 -29 12t-12 29l5 194q0 16 10.5 27.5t27.5 11.5h693q19 0 33 -13t14 -32l2 -61q0 -31 -14 -51l-508 -744q-5 -8 0 -16t14 -8h287q17 0 29 11 t12 28v2q1 17 13.5 27.5t29.5 10.5l86 -4q17 0 28 -12t11 -29l-2 -188q0 -17 -12 -29t-29 -12l-316 2h-366q-19 0 -33 12.5t-15 32.5z" />
<glyph unicode="{" horiz-adv-x="593" d="M83 660q0 44 9 57l55 57q56 80 56 191v258q0 73 29.5 146t95 133.5t153.5 78.5q7 2 14.5 2t15.5 -1t11 -1q11 -1 17 -4t8 -8t2 -13v-19v-26q0 -4 -14 -7t-34.5 -10t-41 -21.5t-35 -48t-14.5 -81.5q0 -246 -26.5 -398t-92.5 -249l-17 -20q-16 -27 0 -49q129 -178 129 -344 q0 -51 5.5 -178.5t5.5 -231.5q0 -49 14.5 -82.5t35 -47.5t40.5 -21.5t34.5 -10t14.5 -6.5v-26t-0.5 -19t-3 -13t-8.5 -8t-17 -4q-2 0 -9.5 -1t-15 -1t-14.5 2q-88 18 -154 78.5t-96 134t-30 146.5l2 258q0 25 -3.5 63t-7.5 63l-3 25q-12 81 -56 152l-45 47q-9 14 -9 58z" />
<glyph unicode="|" horiz-adv-x="428" d="M123 1413q0 74 45 74h76q26 0 41.5 -15.5t15.5 -44.5l4 -1359q0 -74 -61 -74q-27 -2 -58 -2q-26 0 -42.5 22.5t-16.5 57.5z" />
<glyph unicode="}" horiz-adv-x="595" d="M41 -295q0 4 14.5 6.5t35 10t41.5 21.5t35.5 47.5t14.5 82.5q0 104 4 231.5t4 178.5q0 166 129 344q17 25 0 49l-14 20q-66 97 -93.5 250t-27.5 397q0 48 -14.5 81.5t-35 48t-40.5 21.5t-34.5 10t-14.5 7v26t0.5 19t3 13t8.5 8t17 4q2 0 9.5 1t15 1t14.5 -2 q88 -18 154 -78.5t96 -133.5t30 -146l-2 -258q0 -108 55 -191l56 -57q10 -13 10.5 -57.5t-8.5 -57.5l-47 -47q-44 -71 -56 -152q1 0 -2 -25t-6.5 -63t-3.5 -63v-258q0 -73 -29.5 -146.5t-95 -134t-153.5 -78.5q-8 -2 -16 -2t-15.5 1t-9.5 1q-11 1 -17 4t-8.5 8t-3 13 t-0.5 19v26z" />
<glyph unicode="~" horiz-adv-x="1165" d="M44 544q-8 19 3 42q29 69 67.5 117.5t80.5 73t80 34.5t77 10q80 0 160.5 -31.5t128.5 -74.5q6 -5 21.5 -19t21 -19.5t19 -16.5t20.5 -16t19 -12.5t21 -10.5t20 -6t22 -3q53 -2 82.5 18t50.5 77q4 13 10.5 18.5t14 6.5t28.5 1l94 -4q19 0 30 -14t7 -33q-6 -27 -16 -57 q-29 -80 -111 -138t-192 -57q-29 0 -56 4.5t-46 9t-42 16t-34.5 17t-32.5 22.5t-26.5 22t-27 25t-24.5 23q-45 42 -92.5 55.5t-85.5 1.5t-67 -36t-44 -55q-14 -28 -53 -23l-98 12q-22 1 -30 20z" />
<glyph unicode="&#xa1;" horiz-adv-x="501" d="M125 868q3 22 12.5 36.5t19.5 22t32 11t36.5 4t44.5 0.5q50 -2 79.5 -29t29.5 -94q0 -23 -0.5 -34.5t-2.5 -30t-7.5 -28.5t-14.5 -21t-24 -16.5t-35 -6.5q-104 -9 -148 35q-14 14 -20 66.5t-2 84.5zM136 -111q1 154 3 353t2 221q0 58 27.5 80t89.5 22q64 0 87 -19t26 -87 q2 -35 0 -374t0 -456q2 -71 -21 -103.5t-74 -31.5h-77q-58 2 -62 119q-2 122 -1 276z" />
<glyph unicode="&#xa2;" horiz-adv-x="937" d="M82 545q5 150 22 222t68 148q38 59 102.5 108.5t124.5 61.5q13 3 22 14t7 23v123q1 46 18 59.5t60 16.5q46 2 68 -11t22 -61q0 -78 -2 -123q0 -12 8.5 -22.5t20.5 -11.5q115 -24 227 -125q40 -40 43 -97v-67q0 -31 -22.5 -52.5t-53.5 -21.5q-10 0 -31.5 1t-31.5 1 q-30 0 -51 21t-23 51v2q0 6 1 18.5t0.5 18t-3.5 14t-10 14.5q-45 42 -84.5 52.5t-108.5 1.5q-162 -14 -180 -310q-8 -138 2 -207.5t51 -156.5q25 -50 78 -92t100 -35q60 3 92 28.5t60 94.5q9 22 28 34.5t42 12.5h88q29 0 47 -23.5t12 -52.5q-15 -68 -40 -110.5t-69 -75.5 q-44 -36 -168 -54q-22 -3 -22 -26q0 -22 -1 -74t-1 -76q0 -21 -14.5 -32.5t-31 -14.5t-46.5 -4q-36 0 -53.5 14.5t-18.5 49.5q-2 39 -2 145q0 21 -18 25q-226 53 -289 243q-16 59 -17 68q-20 92 -22 250z" />
<glyph unicode="&#xa3;" horiz-adv-x="964" d="M43 727q0 33 4 39q11 12 59 12h119q5 0 9 4t4 9q20 374 30 411q18 65 43 108.5t58 66.5t64 33t75 15q185 23 309 -79q14 -11 17.5 -25t-9.5 -27l-67 -84q-25 -21 -41 2q-41 67 -139 60h-3q-23 -4 -42 -14.5t-32 -30t-22.5 -39.5t-15 -52t-9 -57.5t-5 -67.5t-2 -69.5 t-1 -75.5t-0.5 -75q0 -5 4 -9t9 -4q47 -1 114 -1.5t103 -1t47 -1.5q13 -1 19.5 -6.5t7.5 -10.5t1 -17.5t1 -20.5v-96q-3 -29 -47 -29h-269q-9 0 -12 -10q-24 -112 -64 -208.5t-73 -144.5q-6 -9 -1.5 -17.5t15.5 -10.5l426 -2q20 0 34.5 13.5t14.5 33.5q2 19 15.5 33t33.5 14 h52q20 0 33.5 -14.5t13.5 -34.5l-4 -195q0 -20 -14 -33.5t-34 -13.5h-704q-24 0 -41.5 18.5t-17.5 43.5l-3 118q0 12 7 29l8 18q78 171 102 349q2 5 -2 9.5t-10 4.5h-133q-9 0 -15 2.5t-10 8.5t-5.5 12.5t-2.5 19.5t-1 24v30.5t-1 35.5z" />
<glyph unicode="&#xa4;" horiz-adv-x="1083" d="M83 419.5q1 12.5 14.5 17.5t47.5 5h72q6 0 11 5.5t5 11.5v65q0 19 -16 19h-94q-31 1 -35 13.5t-4 90.5q0 20 0.5 25.5t6 15t19.5 10.5t40 0q40 0 69 -2q6 0 11.5 6t5.5 13q1 75 2 269.5t2 246.5q0 18 -12.5 30.5t-30.5 12.5l-41 2q-17 0 -29.5 12t-13.5 31v67 q-1 19 11.5 32.5t31.5 13.5h110q34 -1 117.5 0.5t149.5 0t116 -9.5q41 -6 80.5 -18.5t86 -39t82 -63t64 -95t37.5 -130.5q7 -231 -70.5 -350t-254.5 -166q-25 -6 -56.5 -9t-49.5 -4t-59.5 -2t-49.5 -1q-6 0 -11.5 -4.5t-5.5 -10.5v-71q0 -6 5.5 -10.5t11.5 -4.5q324 4 379 0 q13 -1 19.5 -5.5t7 -12.5t0.5 -18.5t1 -22.5q2 -18 -2 -61q0 -33 -45 -33q-59 -2 -362 -2q-15 -4 -15 -17q-2 -41 -2 -94q0 -20 21 -20l96 -2q7 0 14 -7t7 -14l2 -117q0 -8 -6 -14t-13 -6h-444q-7 0 -13 6t-6 14l-2 117q0 8 6 14.5t13 6.5l98 4q18 4 18 20v88q0 7 -5 12 t-11 5h-88q-31 0 -35.5 12t-7.5 90q-2 20 -1 32.5zM444 1245q0 -356 2 -532q0 -9 6 -15t15 -6q130 2 218 65t89 173q0 13 2 64.5t-3 85.5t-23 71q-23 75 -106.5 109t-180.5 12q-19 -8 -19 -27z" />
<glyph unicode="&#xa5;" horiz-adv-x="1067" d="M0 1378q0 15 11 25.5t28 9.5q51 -2 166.5 1t130.5 3t26 -11t11 -26v-82q0 -14 -11 -24t-26 -10h-21q-9 0 -14.5 -8t-1.5 -17q102 -241 211 -393q3 -6 10 -7t10 5q6 9 43.5 59t53.5 78q15 24 42 68t37.5 61.5t30 52t41.5 76.5q4 7 -0.5 16t-13.5 11h-45q-13 0 -23 9 t-12 21q0 5 -6 86q-2 14 8 24.5t23 10.5q176 8 327 2q12 -2 21 -11.5t8 -21.5q0 -26 -4 -92q0 -13 -10 -21.5t-23 -8.5q-35 4 -37 -4q-17 -31 -45.5 -82t-45.5 -81.5t-45 -78.5t-60 -98q-19 -32 -39 -67t-41 -74t-31 -56q-3 -4 3.5 -10t12.5 -6q158 0 174 -2q13 -1 19.5 -6 t7.5 -10.5t1 -18.5t1 -21q2 -14 2 -55q-2 -31 -47 -31q-31 0 -231 -4q-6 0 -11.5 -4t-5.5 -10q0 -51 2 -80q0 -16 15 -16h250q14 -1 20.5 -6t7.5 -12t1 -16t1 -20v-55q0 -27 -45 -31q-13 0 -93 -1t-136 -1q-7 0 -12 -5t-5 -11q0 -23 1 -57.5t1 -43.5q2 -11 9.5 -18.5 t17.5 -7.5l70 -4q11 0 18.5 -7.5t7.5 -17.5l2 -96q0 -15 -9 -24t-21 -9l-381 -2q-12 0 -21.5 9.5t-9.5 21.5l2 98q0 27 19 27h57q11 0 20 9t9 21q0 9 -0.5 28.5t-0.5 34t1 23.5v13q0 6 -5.5 11t-11.5 5q-111 -2 -227 -2q-27 0 -32.5 9.5t-7.5 60.5q-1 14 -1 22q-2 18 -1 29 t14.5 15.5t47.5 4.5q4 0 35 0.5t79 1t95 0.5q6 0 11.5 5.5t5.5 11.5v78q0 16 -17 16q-68 0 -149 -1l-82 -1q-31 0 -35.5 11.5t-7.5 84.5q-1 18 -0.5 29.5t14 16.5t47.5 5h142q9 0 12 7.5t0 15.5q-14 37 -45 100t-41 86q-16 33 -47.5 96.5t-45 91t-33 70.5t-34.5 82 q-7 11 -16 11q-19 0 -29 2q-17 0 -29 12t-12 29q-2 25 -2 73z" />
<glyph unicode="&#xa6;" horiz-adv-x="430" d="M123 633q0 12 8 20.5t19 10.5q7 1 24 3.5t33 2.5q19 0 35 -4h14q19 0 32 -11t13 -26l6 -594q0 -15 -13 -26t-32 -11h-14q-34 -2 -72 0q-20 2 -34.5 16.5t-14.5 34.5zM123 1456q0 11 8.5 20.5t18.5 10.5q46 4 57 4q27 0 35 -2h14q19 0 32 -11t13 -26l6 -594q0 -15 -13 -26 t-32 -11h-10q-1 0 -2 -1t-2 -1q-19 -1 -72 2q-21 2 -35 15.5t-14 33.5z" />
<glyph unicode="&#xa7;" horiz-adv-x="890" d="M52.5 541.5q32.5 117.5 142.5 181.5q12 8 13 22t-9 25q-62 50 -103 143q-45 109 -28 201t69 156.5t133 105.5q42 22 105.5 32.5t138.5 6.5t148.5 -43.5t119.5 -111.5q18 -30 21 -70q1 -11 1 -25t-0.5 -27.5t-0.5 -17.5q0 -20 -15.5 -34.5t-44.5 -14.5l-84 2 q-21 0 -36 12.5t-15 32.5l-2 35q0 11 -8 23q-37 46 -83 58t-105 3q-40 -6 -73 -34.5t-50.5 -67.5t-22.5 -83.5t10 -82.5q11 -30 32 -53t53.5 -38.5t57 -24t68.5 -20.5t62 -18q114 -38 201.5 -117.5t95.5 -181.5q19 -193 -142 -303q-12 -9 -11 -24.5t14 -24.5 q130 -83 141 -205q14 -160 -45.5 -267.5t-165.5 -144.5q-52 -18 -117 -24.5t-139.5 0t-152.5 38t-140 85.5q-23 20 -23 47q0 21 -1 62t-1 57q-1 23 14.5 39t37.5 16h88q25 0 36.5 -14.5t8.5 -38.5l2 -37q0 -19 14 -37q65 -62 172 -53q105 9 152.5 61t42.5 152 q-1 61 -45.5 99t-149.5 79q-23 9 -67 25t-67 25t-59 27.5t-59 36.5t-49.5 47.5t-46.5 65.5q-66 119 -33.5 236.5zM243.5 487q-4.5 -60 16.5 -112q11 -22 29.5 -39.5t34 -28t45 -21.5t44.5 -15t51.5 -13t47.5 -12q20 -3 35 6q86 65 82 188q-2 67 -50.5 123.5t-144.5 93.5 l-47 19q-9 3 -18 0q-51 -18 -86 -73.5t-39.5 -115.5z" />
<glyph unicode="&#xa8;" horiz-adv-x="661" d="M63 1339q-1 57 26.5 80.5t90.5 20.5q28 0 48 -8t30 -18t14.5 -26.5t5 -26.5t-0.5 -27t-1 -19q0 -34 -35.5 -48t-86.5 -12q-49 3 -68.5 21.5t-22.5 62.5zM385 1339q-3 57 24.5 80.5t92.5 20.5q21 0 37.5 -5t27 -11t17.5 -16.5t10 -18.5t4 -21.5t0.5 -20t-1.5 -18.5t-1 -14 q0 -34 -35.5 -48t-87.5 -12q-49 3 -67.5 21.5t-20.5 62.5z" />
<glyph unicode="&#xa9;" horiz-adv-x="1116" d="M41 561q0 134 61 273q8 24 54 92q13 19 35.5 39.5t39.5 33t17 13.5q126 123 299 123q87 0 183.5 -34.5t156.5 -86.5q39 -33 65 -66t64 -92q59 -94 59 -289q0 -136 -69 -278q-48 -99 -119 -172q-53 -56 -148 -88t-192 -35q-82 0 -163.5 31.5t-135.5 80.5q-51 45 -94 106.5 t-62 115.5h-2q-49 134 -49 233zM182 565q0 -82 25.5 -161.5t71 -143.5t116 -102.5t152.5 -34.5q109 5 197.5 70.5t135 164.5t46.5 207q0 111 -43 210t-131.5 165.5t-204.5 65.5q-109 -1 -194 -67t-128 -165t-43 -209zM307 578q0 65 14.5 106.5t49.5 87.5q26 38 68.5 65.5 t92.5 30.5q47 3 88.5 -6t67.5 -23.5t45 -29.5t27 -26l8 -11l2 -70q0 -9 -6.5 -15.5t-15.5 -6.5l-62 -2q-23 -3 -27 22v31q-6 4 -16.5 10.5t-38 17t-49.5 9.5q-50 -4 -75 -51.5t-29 -108.5q0 -109 34 -178q11 -25 35 -41t49 -12q55 2 78 55q7 17 23 17h73q13 0 22 -9.5 t7 -23.5q-9 -54 -51 -94q-67 -67 -166 -64q-101 -3 -172 82q-43 51 -59 127q-3 14 -7.5 32.5t-6.5 34.5t-3 44z" />
<glyph unicode="&#xab;" horiz-adv-x="1083" d="M83 614.5q-1 31.5 23 53.5q37 34 81.5 77t127.5 124t168 163q27 22 70 5t61 -52q11 -29 -24 -67q-127 -130 -248 -277q-6 -7 -6 -18t6 -19q40 -50 77 -95t80.5 -97t73.5 -88q4 -4 17 -18.5t16.5 -19.5t11.5 -16.5t6.5 -18t-3.5 -17t-12.5 -20t-26.5 -19.5 q-22 -15 -43 -12.5t-37 13t-35 31.5q-144 149 -358 334q-25 22 -26 53.5zM498 615.5q0 30.5 24 52.5q70 62 340 325q25 23 69 5.5t60 -52.5q16 -27 -22 -65q-60 -59 -128.5 -129.5t-105.5 -106.5q-9 -9 -9.5 -21.5t7.5 -21.5q40 -46 115.5 -122.5t103.5 -117.5 q6 -9 21 -27.5t19.5 -27t7.5 -22t-8 -26t-34 -26.5q-16 -11 -30.5 -13t-29 4t-26 15t-28.5 25q-168 160 -322 299q-24 22 -24 52.5z" />
<glyph unicode="&#xad;" horiz-adv-x="735" d="M43 557q-2 47 11 69.5t61 22.5q22 0 260 -1t268 -1t39.5 -25t9.5 -69q2 -36 -12 -53.5t-49 -18.5q-55 -2 -512 -2q-46 1 -60 18.5t-16 59.5z" />
<glyph unicode="&#xae;" horiz-adv-x="745" d="M82 999q0 69 27 123.5t70.5 86.5t92 48.5t97.5 18.5q20 1 50 -4.5t72 -23t77 -45t62 -77.5t32 -114q5 -70 -15.5 -125.5t-53 -87t-75.5 -52.5t-77 -28t-64 -8q-34 -1 -71.5 7t-78 29t-72.5 52.5t-52.5 83.5t-20.5 116zM174 1008q3 -87 59.5 -151t135.5 -64q87 0 143 57.5 t53 150.5q-3 89 -55.5 148.5t-142.5 58.5q-82 -2 -139 -57.5t-54 -142.5zM244 1114l2 25q0 9 10 12q5 0 34 1t62 1t64 -2q30 -3 49 -24t20 -56q2 -37 -10.5 -57.5t-42.5 -30.5q23 -2 31.5 -19t9.5 -39t4 -26q8 -8 17 -8q10 -3 10 -14l-6 -21q0 -10 -11 -10q-52 -4 -69 10 q-17 21 -17 68q0 22 -9.5 35.5t-24.5 13.5h-25v-70q0 -3 2.5 -4.5t5.5 -1.5h2q10 0 10 -8l-2 -27q0 -12 -10 -12h-88q-12 0 -12 12v31q0 4 6 4h6q4 0 4 6l2 187q0 4 -4 8t-8 4q-12 0 -12 12zM340 1030q3 1 20 -1.5t36.5 7t19.5 31.5q0 20 -18.5 28.5t-37.5 7.5l-18 -1z" />
<glyph unicode="&#xaf;" horiz-adv-x="651" d="M61 1321q0 35 18.5 51.5t61.5 16.5q42 -1 110 -0.5t164.5 1.5t112.5 1q32 0 47 -15.5t13 -40.5v-32q0 -21 -17.5 -33.5t-44.5 -12.5h-381q-49 0 -66.5 14t-17.5 50z" />
<glyph unicode="&#xb0;" horiz-adv-x="630" d="M42 1253.5q-1 88.5 24 141.5q37 87 98.5 122t154.5 33q32 -1 56.5 -6t61 -20t70 -51t60.5 -91q19 -39 21.5 -84t-4.5 -90q-5 -56 -28 -94.5t-64 -81.5q-82 -86 -273 -45q-37 8 -80.5 41t-64.5 74q-31 63 -32 151.5zM182 1303q-11 -55 6 -121q12 -43 44.5 -70t70.5 -27 q52 2 84 25.5t55 79.5q6 19 9 56t0 61q-4 61 -42.5 101t-91.5 42q-42 1 -73.5 -26.5t-44 -58t-17.5 -62.5z" />
<glyph unicode="&#xb1;" horiz-adv-x="776" d="M63 301q-2 27 7 40t43 13h563q33 -5 37 -49q1 -5 1 -15.5t-0.5 -23t-0.5 -16.5q-2 -14 -14 -25.5t-25 -11.5q-68 -2 -298.5 -2.5t-266.5 0.5q-14 1 -22 3.5t-13 5t-7 11t-2.5 15t-0.5 24t-1 31.5zM63 827q-2 28 7 41t43 13h182q14 0 14 14q0 193 2 211q1 15 2.5 23.5 t5.5 14t11 7t17.5 2.5t25.5 0t35 0q13 1 24 0t18.5 -5t12 -15.5t4.5 -30.5v-207q0 -12 14 -12q181 0 195 -2q33 -2 37 -47v-58q-2 -14 -14 -25.5t-25 -11.5q-9 0 -76 -1t-117 -1q-14 0 -14 -12v-219q-5 -35 -53 -39h-62q-15 0 -28 12.5t-13 26.5q-2 35 -2 219q0 12 -14 12 q-170 0 -186 2q-14 1 -22 3.5t-13 5t-7 10.5t-2.5 14.5t-0.5 24t-1 30.5z" />
<glyph unicode="&#xb4;" horiz-adv-x="436" d="M63 1282.5q0 16.5 4.5 28t10.5 20.5q98 165 135 223q52 72 123 21q34 -25 37.5 -57.5t-25.5 -61.5q-84 -83 -201 -186q-16 -15 -36.5 -19.5t-36.5 6.5q-11 9 -11 25.5z" />
<glyph unicode="&#xb6;" horiz-adv-x="899" d="M82 991q0 89 25 162.5t64.5 121t91.5 80t103.5 46.5t102.5 14q293 0 324 -2q15 -1 24.5 -12.5t9.5 -26.5v-86q-2 -18 -14 -29t-29 -10q-5 0 -15 1t-15 1q-15 1 -26 -9t-11 -25q0 -404 8 -1020q0 -15 11 -27.5t26 -13.5l53 -4q15 0 27 -12t12 -29l2 -74q1 -17 -10.5 -29 t-28.5 -12h-405q-15 0 -26 11t-13 26q-2 25 -2 84q2 18 13 28t28 9q42 0 67 2q15 0 26 11t11 26l-2 305q0 12 -9.5 21t-21.5 9q-86 0 -155 23t-126 74t-88.5 144t-31.5 222z" />
<glyph unicode="&#xb8;" horiz-adv-x="466" d="M63 -162l9 64q2 2 2 6l30 92l115 -2l-24 -55q-3 -6 -1.5 -12.5t5.5 -6.5q77 12 130 -15.5t70 -94.5q12 -47 -1.5 -91t-47.5 -75q-52 -45 -135 -45q-45 0 -98 16q-19 8 -26.5 24t-0.5 33l2 11q6 15 20 22t29 4q30 -12 77.5 -11t64.5 24q19 32 10 59q-9 31 -34.5 46 t-55.5 15.5t-59 -3.5t-48 -11l-20 -6q-6 -2 -10 2t-3 10z" />
<glyph unicode="&#xbb;" horiz-adv-x="1087" d="M82.5 283q0.5 9 1.5 14.5t8 16t11 15t15 16.5t15 17q34 41 105.5 117.5t115.5 126.5q15 18 -2 35q-23 23 -97 98.5t-138 141.5q-37 37 -25 65q18 35 61.5 52.5t69.5 -5.5q236 -229 344 -329q22 -20 21.5 -49.5t-23.5 -49.5q-58 -51 -325 -301q-17 -16 -28 -24.5t-26 -15 t-29.5 -4.5t-31.5 13q-14 9 -23.5 18t-14.5 16t-4.5 16zM461 251q-1 7 6 18.5t10.5 16.5t16 19t16.5 19q171 202 240 288q8 11 -2 21q-117 145 -252 285q-36 38 -25 67q18 35 61 52t68 -5q78 -75 168.5 -163.5t132 -128t80.5 -74.5q23 -22 23 -51.5t-23 -51.5 q-59 -50 -187 -171.5t-176 -164.5q-17 -16 -28 -24.5t-25.5 -15t-29 -4.5t-31.5 12q-16 10 -26.5 19.5t-13 19.5t-3.5 17z" />
<glyph unicode="&#xbf;" horiz-adv-x="825" d="M102 -289q-55 156 39 328q10 18 27.5 53t28 53t31 49t49 64.5t69.5 75.5q48 48 43 172q-1 32 17.5 48.5t50.5 16.5h67q35 0 53.5 -19.5t18.5 -53.5q0 -77 -12 -154q-6 -26 -63 -99.5t-83 -92.5q-46 -34 -76 -80.5t-40 -94.5t-12 -76t-1 -55q4 -69 27.5 -119.5t54.5 -70.5 q29 -19 65.5 -21.5t72.5 17t55 59.5q8 16 15.5 47.5t11 54t3.5 25.5q5 94 74 94h66q71 0 71 -75q0 -47 -22 -146q-37 -129 -123 -182.5t-215 -56.5q-44 -2 -87.5 5.5t-97.5 29.5t-101.5 74.5t-76.5 129.5zM354 801q0 62 21.5 99.5t79.5 41.5q25 1 47.5 1.5t47 -8t42.5 -26.5 q15 -13 18 -72.5t-2 -82.5q-2 -22 -11.5 -36.5t-20 -22t-32 -11t-36.5 -4t-45 -0.5q-109 4 -109 121z" />
<glyph unicode="&#xc0;" d="M20 59l3 45q2 22 17 38.5t38 17.5h14q28 0 39 28q56 139 401 1209q9 26 31.5 42t50.5 15h29q28 -2 50.5 -18.5t29.5 -42.5q299 -1001 373 -1207q9 -25 39 -28h12q17 0 28 -12t11 -29v-80q0 -15 -12 -27t-29 -12l-332 2q-16 0 -27.5 11t-11.5 28v80q0 16 11 27.5t28 11.5 h29q9 2 14 8.5t2 15.5q-9 26 -35 127.5t-41 145.5q-6 25 -45 22q-45 -1 -141.5 0.5t-116.5 1.5q-13 0 -23.5 -7t-13.5 -19q-27 -79 -55 -189q-3 -13 -14.5 -41.5t-14.5 -38.5q-3 -9 7 -17.5t20 -8.5l35 -2q20 0 33.5 -14.5t13.5 -35.5l-2 -57q0 -20 -14.5 -34.5t-34.5 -14.5 h-336q-25 0 -42.5 17t-17.5 42zM365.5 1841q3.5 32 37.5 57q72 52 121 -20q50 -74 138 -223q6 -9 10.5 -20.5t4.5 -28t-11 -25.5q-19 -11 -38.5 -7t-35.5 19q-106 94 -201 187q-29 29 -25.5 61zM502 672q-3 -12 4.5 -22.5t19.5 -10.5q24 0 92 -1t93 -1q13 0 21 10.5t5 22.5 q-15 67 -55.5 222.5t-42.5 164.5q0 6 -8 6h-15q-8 0 -8 -8q-76 -260 -106 -383z" />
<glyph unicode="&#xc1;" d="M20 59l3 45q2 22 17 38.5t38 17.5h14q28 0 39 28q56 139 401 1209q9 26 31.5 42t50.5 15h29q28 -2 50.5 -18.5t29.5 -42.5q299 -1001 373 -1207q9 -25 39 -28h12q17 0 28 -12t11 -29v-80q0 -15 -12 -27t-29 -12l-332 2q-16 0 -27.5 11t-11.5 28v80q0 16 11 27.5t28 11.5 h29q9 2 14 8.5t2 15.5q-9 26 -35 127.5t-41 145.5q-6 25 -45 22q-45 -1 -141.5 0.5t-116.5 1.5q-13 0 -23.5 -7t-13.5 -19q-27 -79 -55 -189q-3 -13 -14.5 -41.5t-14.5 -38.5q-3 -9 7 -17.5t20 -8.5l35 -2q20 0 33.5 -14.5t13.5 -35.5l-2 -57q0 -20 -14.5 -34.5t-34.5 -14.5 h-336q-25 0 -42.5 17t-17.5 42zM502 672q-3 -12 4.5 -22.5t19.5 -10.5q24 0 92 -1t93 -1q13 0 21 10.5t5 22.5q-15 67 -55.5 222.5t-42.5 164.5q0 6 -8 6h-15q-8 0 -8 -8q-76 -260 -106 -383zM599 1600.5q0 16.5 4.5 28t10.5 20.5q86 146 136 223q51 71 122 20 q34 -25 38 -56.5t-25 -61.5q-95 -93 -201 -187q-16 -14 -37 -18.5t-37 6.5q-11 9 -11 25.5z" />
<glyph unicode="&#xc2;" d="M20 59l3 45q2 22 17 38.5t38 17.5h14q28 0 39 28q56 139 401 1209q9 26 31.5 42t50.5 15h29q28 -2 50.5 -18.5t29.5 -42.5q299 -1001 373 -1207q9 -25 39 -28h12q17 0 28 -12t11 -29v-80q0 -15 -12 -27t-29 -12l-332 2q-16 0 -27.5 11t-11.5 28v80q0 16 11 27.5t28 11.5 h29q9 2 14 8.5t2 15.5q-9 26 -35 127.5t-41 145.5q-6 25 -45 22q-45 -1 -141.5 0.5t-116.5 1.5q-13 0 -23.5 -7t-13.5 -19q-27 -79 -55 -189q-3 -13 -14.5 -41.5t-14.5 -38.5q-3 -9 7 -17.5t20 -8.5l35 -2q20 0 33.5 -14.5t13.5 -35.5l-2 -57q0 -20 -14.5 -34.5t-34.5 -14.5 h-336q-25 0 -42.5 17t-17.5 42zM368.5 1604q0.5 18 11.5 34t32 37q29 28 56.5 52t52 44t34.5 29q35 31 70 31q18 0 30 -4.5t16.5 -8.5t18.5 -18q25 -24 75.5 -67t90.5 -82q52 -49 8 -86q-11 -10 -24.5 -11.5t-28.5 5.5t-25.5 14.5t-25.5 19.5q-45 35 -121 82q-15 6 -27 0 q-61 -34 -118 -73q-9 -6 -26.5 -19t-24 -17t-18 -8t-20.5 -0.5t-20 13.5q-17 15 -16.5 33zM502 672q-3 -12 4.5 -22.5t19.5 -10.5q24 0 92 -1t93 -1q13 0 21 10.5t5 22.5q-15 67 -55.5 222.5t-42.5 164.5q0 6 -8 6h-15q-8 0 -8 -8q-76 -260 -106 -383z" />
<glyph unicode="&#xc3;" d="M20 59l3 45q2 22 17 38.5t38 17.5h14q28 0 39 28q56 139 401 1209q9 26 31.5 42t50.5 15h29q28 -2 50.5 -18.5t29.5 -42.5q299 -1001 373 -1207q9 -25 39 -28h12q17 0 28 -12t11 -29v-80q0 -15 -12 -27t-29 -12l-332 2q-16 0 -27.5 11t-11.5 28v80q0 16 11 27.5t28 11.5 h29q9 2 14 8.5t2 15.5q-9 26 -35 127.5t-41 145.5q-6 25 -45 22q-45 -1 -141.5 0.5t-116.5 1.5q-13 0 -23.5 -7t-13.5 -19q-27 -79 -55 -189q-3 -13 -14.5 -41.5t-14.5 -38.5q-3 -9 7 -17.5t20 -8.5l35 -2q20 0 33.5 -14.5t13.5 -35.5l-2 -57q0 -20 -14.5 -34.5t-34.5 -14.5 h-336q-25 0 -42.5 17t-17.5 42zM303 1622q9 53 31 90t51.5 54t55 23.5t51.5 6.5q61 2 143 -63q59 -45 90 -45q25 0 46.5 15t31.5 46q8 27 23.5 36.5t50.5 6.5q32 -3 50.5 -19.5t12.5 -43.5q-12 -50 -34.5 -83t-53.5 -47.5t-57.5 -19t-61.5 -4.5q-14 0 -27.5 2.5t-27.5 8 t-24 10t-24.5 14t-21 13.5t-21.5 15t-18 13q-41 29 -81.5 15t-59.5 -64q-12 -40 -74 -29q-31 6 -42.5 17.5t-8.5 31.5zM502 672q-3 -12 4.5 -22.5t19.5 -10.5q24 0 92 -1t93 -1q13 0 21 10.5t5 22.5q-15 67 -55.5 222.5t-42.5 164.5q0 6 -8 6h-15q-8 0 -8 -8 q-76 -260 -106 -383z" />
<glyph unicode="&#xc4;" d="M20 59l3 45q2 22 17 38.5t38 17.5h14q28 0 39 28q56 139 401 1209q9 26 31.5 42t50.5 15h29q28 -2 50.5 -18.5t29.5 -42.5q299 -1001 373 -1207q9 -25 39 -28h12q17 0 28 -12t11 -29v-80q0 -15 -12 -27t-29 -12l-332 2q-16 0 -27.5 11t-11.5 28v80q0 16 11 27.5t28 11.5 h29q9 2 14 8.5t2 15.5q-9 26 -35 127.5t-41 145.5q-6 25 -45 22q-45 -1 -141.5 0.5t-116.5 1.5q-13 0 -23.5 -7t-13.5 -19q-27 -79 -55 -189q-3 -13 -14.5 -41.5t-14.5 -38.5q-3 -9 7 -17.5t20 -8.5l35 -2q20 0 33.5 -14.5t13.5 -35.5l-2 -57q0 -20 -14.5 -34.5t-34.5 -14.5 h-336q-25 0 -42.5 17t-17.5 42zM365 1667q-1 57 26 80t90 20q28 0 48 -8t30 -17.5t15 -26.5t5.5 -26.5t-0.5 -27t-1 -19.5q0 -63 -123 -59q-49 3 -68 21.5t-22 62.5zM502 672q-3 -12 4.5 -22.5t19.5 -10.5q24 0 92 -1t93 -1q13 0 21 10.5t5 22.5q-15 67 -55.5 222.5 t-42.5 164.5q0 6 -8 6h-15q-8 0 -8 -8q-76 -260 -106 -383zM686 1667q-3 57 24.5 80t92.5 20q21 0 37.5 -5t27 -11t17.5 -16.5t10 -18.5t4 -21.5t0.5 -20t-1.5 -18.5t-1 -14q0 -63 -123 -59q-49 3 -67.5 21.5t-20.5 62.5z" />
<glyph unicode="&#xc5;" d="M20 59l3 45q2 22 17 38.5t38 17.5h14q28 0 39 28q56 139 401 1209q9 26 31.5 42t50.5 15h29q28 -2 50.5 -18.5t29.5 -42.5q299 -1001 373 -1207q9 -25 39 -28h12q17 0 28 -12t11 -29v-80q0 -15 -12 -27t-29 -12l-332 2q-16 0 -27.5 11t-11.5 28v80q0 16 11 27.5t28 11.5 h29q9 2 14 8.5t2 15.5q-9 26 -35 127.5t-41 145.5q-6 25 -45 22q-45 -1 -141.5 0.5t-116.5 1.5q-13 0 -23.5 -7t-13.5 -19q-27 -79 -55 -189q-3 -13 -14.5 -41.5t-14.5 -38.5q-3 -9 7 -17.5t20 -8.5l35 -2q20 0 33.5 -14.5t13.5 -35.5l-2 -57q0 -20 -14.5 -34.5t-34.5 -14.5 h-336q-25 0 -42.5 17t-17.5 42zM467 1772q43 129 203 114q74 -9 109.5 -67.5t29.5 -135.5q-7 -79 -72 -116t-145 -21q-77 17 -112.5 86.5t-12.5 139.5zM502 672q-3 -12 4.5 -22.5t19.5 -10.5q24 0 92 -1t93 -1q13 0 21 10.5t5 22.5q-15 67 -55.5 222.5t-42.5 164.5q0 6 -8 6 h-15q-8 0 -8 -8q-76 -260 -106 -383zM567 1681q20 -47 72 -47q70 0 70 80q4 88 -64 96q-51 7 -74.5 -37.5t-3.5 -91.5z" />
<glyph unicode="&#xc6;" horiz-adv-x="1331" d="M20 23l5 110q4 19 20 19l37 4q15 0 18 12q35 104 202.5 514.5t291.5 677.5q0 2 1 5t1 5l2 2q7 27 35 27h594q18 0 30.5 -14t12.5 -33q-3 -104 -13 -185q-3 -17 -15.5 -28t-29.5 -11q-9 0 -31 -1t-32 -1q-19 0 -31 12t-14 31q0 11 -4 35q-3 17 -15.5 28t-29.5 11 q-118 -4 -178 -4q-19 0 -32.5 -13t-13.5 -32l-6 -303q0 -19 13 -32t32 -13q202 0 267 -4q17 0 29 -12.5t14 -30.5q0 -47 -2 -72q-2 -20 -17 -33t-37 -12q-76 2 -250 2q-19 0 -32 -13t-13 -32v-438q0 -19 12 -32t31 -13q117 -6 215 -2q10 0 12 45.5t11 46.5q35 5 111 0 q18 -1 24 -8.5t6 -26.5q0 -14 1 -46.5t1 -64.5t-2 -67q-1 -15 -12 -25t-25 -10q-60 1 -285 -0.5t-278 2.5q-5 0 -24 1t-27 1q-38 -3 -41 41v76q-1 20 11.5 30.5t33.5 8.5h6q19 -2 33 11.5t14 33.5q2 78 2 237q0 8 -6.5 14.5t-15.5 6.5q-32 0 -119 1t-98 1q-25 0 -37 -27 l-82 -258q-3 -9 2.5 -17.5t15.5 -8.5l33 -2q18 1 25.5 -11t7.5 -30l-2 -68q2 -16 -6.5 -27t-28.5 -10l-307 -2q-7 0 -14 7t-7 14zM442 653q-4 -12 4.5 -22.5t22.5 -12.5h170q9 0 14.5 7t5.5 16l5 500q0 10 -7 10q-5 0 -8 -6q-61 -132 -207 -492z" />
<glyph unicode="&#xc7;" horiz-adv-x="1036" d="M84 766q3 67 8.5 122.5t17.5 121.5t30 119t48.5 106.5t69.5 92.5t95 69t124 43q278 55 467 -158q25 -28 25 -65q0 -24 1 -47.5t1 -28.5q0 -31 -20.5 -53t-51.5 -23h-39q-29 -2 -51 17t-25 48q-2 10 -2 29q-4 48 -28 72q-63 70 -183 67q-49 -6 -88 -25.5t-63.5 -44.5 t-42 -64.5t-26.5 -74.5t-14 -85.5t-6 -86.5t-2 -88t-3 -81q2 -62 0 -124t2 -122t11 -114t26.5 -100t49 -79.5t78.5 -52.5t115 -19q42 0 74.5 15t54 43t34.5 53.5t24 58.5q0 23 -1 46t-1 32q0 28 19.5 47.5t47.5 18.5q16 -2 51 -2q26 0 44 -18.5t20 -45.5q0 -24 -1 -64 t-1 -63q0 -22 -10 -45q-44 -124 -116.5 -171.5t-205.5 -55.5l-18 -43q-3 -6 -1.5 -12.5t5.5 -6.5q77 12 130 -15.5t70 -94.5q12 -47 -1.5 -91t-47.5 -75q-52 -45 -135 -45q-45 0 -98 16q-19 8 -26.5 24t-0.5 33l2 11q6 15 20 22t29 4q30 -12 77.5 -11t64.5 24q19 32 10 59 q-9 31 -34.5 46t-55.5 15.5t-59 -3.5t-48 -11l-20 -6q-6 -2 -10 2t-2 10l8 64q2 2 2 6l24 78q-94 6 -168.5 43.5t-122.5 99.5t-81 136t-48.5 163t-20.5 170.5t-1 167.5z" />
<glyph unicode="&#xc8;" horiz-adv-x="960" d="M82 121q0 22 8 31.5t29 9.5q1 0 12 1t12 1q19 -1 30 13t11 36q4 652 4 1014q0 20 -15.5 34t-35.5 11q-17 -2 -30.5 10t-14.5 31v80q0 17 13 29t30 12q97 1 343 0t356 0q20 0 32.5 -14.5t12.5 -35.5q-4 -126 -11 -188q-3 -17 -15.5 -28t-29.5 -11q-10 0 -31.5 -1t-33.5 -1 q-19 0 -32 12t-13 31l-4 37q-3 15 -15.5 26t-29.5 11q-30 0 -108.5 -1t-113.5 -1q-19 0 -32 -13t-13 -32q0 -46 -6 -322q0 -19 13.5 -32t33.5 -13q27 0 91 1t119.5 1t99.5 -2q17 -2 29.5 -14t13.5 -31q0 -37 -3 -72q-3 -25 -20.5 -40.5t-40.5 -14.5q-234 6 -287 6 q-19 0 -32 -13t-13 -32q0 -79 1 -217.5t1 -218.5q0 -19 12 -32.5t31 -14.5q164 -4 265 0q3 0 5 2.5t3 8.5t1 11.5t-0.5 15t-0.5 15.5q0 16 10 29.5t27 13.5q48 0 73 -2q19 0 32 -13t13 -32q0 -63 -6 -174q-2 -17 -14 -29t-29 -12q-90 1 -322 1t-321 1h-55q-37 0 -37 43 q-2 23 -2 78zM259.5 1841q3.5 32 37.5 57q72 52 121 -20q27 -40 48 -73t31.5 -51t28.5 -49t29 -50q6 -9 10.5 -20.5t4.5 -28t-11 -25.5q-19 -11 -38.5 -7t-35.5 19q-95 84 -200 187q-29 29 -25.5 61z" />
<glyph unicode="&#xc9;" horiz-adv-x="960" d="M82 121q0 22 8 31.5t29 9.5q1 0 12 1t12 1q19 -1 30 13t11 36q4 652 4 1014q0 20 -15.5 34t-35.5 11q-17 -2 -30.5 10t-14.5 31v80q0 17 13 29t30 12q97 1 343 0t356 0q20 0 32.5 -14.5t12.5 -35.5q-4 -126 -11 -188q-3 -17 -15.5 -28t-29.5 -11q-10 0 -31.5 -1t-33.5 -1 q-19 0 -32 12t-13 31l-4 37q-3 15 -15.5 26t-29.5 11q-30 0 -108.5 -1t-113.5 -1q-19 0 -32 -13t-13 -32q0 -46 -6 -322q0 -19 13.5 -32t33.5 -13q27 0 91 1t119.5 1t99.5 -2q17 -2 29.5 -14t13.5 -31q0 -37 -3 -72q-3 -25 -20.5 -40.5t-40.5 -14.5q-234 6 -287 6 q-19 0 -32 -13t-13 -32q0 -79 1 -217.5t1 -218.5q0 -19 12 -32.5t31 -14.5q164 -4 265 0q3 0 5 2.5t3 8.5t1 11.5t-0.5 15t-0.5 15.5q0 16 10 29.5t27 13.5q48 0 73 -2q19 0 32 -13t13 -32q0 -63 -6 -174q-2 -17 -14 -29t-29 -12q-90 1 -322 1t-321 1h-55q-37 0 -37 43 q-2 23 -2 78zM458 1596.5q0 16.5 4.5 28t10.5 20.5q98 165 135 223q51 72 123 20q34 -25 37.5 -57.5t-25.5 -61.5q-94 -92 -200 -186q-16 -14 -37 -18.5t-37 6.5q-11 9 -11 25.5z" />
<glyph unicode="&#xca;" horiz-adv-x="960" d="M82 121q0 22 8 31.5t29 9.5q1 0 12 1t12 1q19 -1 30 13t11 36q4 652 4 1014q0 20 -15.5 34t-35.5 11q-17 -2 -30.5 10t-14.5 31v80q0 17 13 29t30 12q97 1 343 0t356 0q20 0 32.5 -14.5t12.5 -35.5q-4 -126 -11 -188q-3 -17 -15.5 -28t-29.5 -11q-10 0 -31.5 -1t-33.5 -1 q-19 0 -32 12t-13 31l-4 37q-3 15 -15.5 26t-29.5 11q-30 0 -108.5 -1t-113.5 -1q-19 0 -32 -13t-13 -32q0 -46 -6 -322q0 -19 13.5 -32t33.5 -13q27 0 91 1t119.5 1t99.5 -2q17 -2 29.5 -14t13.5 -31q0 -37 -3 -72q-3 -25 -20.5 -40.5t-40.5 -14.5q-234 6 -287 6 q-19 0 -32 -13t-13 -32q0 -79 1 -217.5t1 -218.5q0 -19 12 -32.5t31 -14.5q164 -4 265 0q3 0 5 2.5t3 8.5t1 11.5t-0.5 15t-0.5 15.5q0 16 10 29.5t27 13.5q48 0 73 -2q19 0 32 -13t13 -32q0 -63 -6 -174q-2 -17 -14 -29t-29 -12q-90 1 -322 1t-321 1h-55q-37 0 -37 43 q-2 23 -2 78zM248 1581q-42 37 26 105q40 38 91.5 80.5t52.5 43.5q13 12 17.5 15.5t19.5 9.5t32 6q18 0 30 -4.5t17.5 -9t18.5 -17.5q25 -24 75.5 -67t90.5 -82q52 -49 8 -86q-11 -10 -24 -11.5t-28.5 6t-25.5 14.5t-26 20q-45 35 -121 82q-15 6 -27 0q-59 -33 -119 -74 q-9 -6 -26.5 -19t-24 -17t-17.5 -8t-20 -0.5t-20 13.5z" />
<glyph unicode="&#xcb;" horiz-adv-x="960" d="M82 121q0 22 8 31.5t29 9.5q1 0 12 1t12 1q19 -1 30 13t11 36q4 652 4 1014q0 20 -15.5 34t-35.5 11q-17 -2 -30.5 10t-14.5 31v80q0 17 13 29t30 12q97 1 343 0t356 0q20 0 32.5 -14.5t12.5 -35.5q-4 -126 -11 -188q-3 -17 -15.5 -28t-29.5 -11q-10 0 -31.5 -1t-33.5 -1 q-19 0 -32 12t-13 31l-4 37q-3 15 -15.5 26t-29.5 11q-30 0 -108.5 -1t-113.5 -1q-19 0 -32 -13t-13 -32q0 -46 -6 -322q0 -19 13.5 -32t33.5 -13q27 0 91 1t119.5 1t99.5 -2q17 -2 29.5 -14t13.5 -31q0 -37 -3 -72q-3 -25 -20.5 -40.5t-40.5 -14.5q-234 6 -287 6 q-19 0 -32 -13t-13 -32q0 -79 1 -217.5t1 -218.5q0 -19 12 -32.5t31 -14.5q164 -4 265 0q3 0 5 2.5t3 8.5t1 11.5t-0.5 15t-0.5 15.5q0 16 10 29.5t27 13.5q48 0 73 -2q19 0 32 -13t13 -32q0 -63 -6 -174q-2 -17 -14 -29t-29 -12q-90 1 -322 1t-321 1h-55q-37 0 -37 43 q-2 23 -2 78zM225 1653q-1 57 26.5 80t90.5 20q28 0 48 -8t30 -18t14.5 -26.5t5 -26.5t-0.5 -27t-1 -19q0 -63 -123 -59q-49 3 -68 21.5t-22 62.5zM547 1653q-3 57 24.5 80t92.5 20q21 0 37.5 -5t27 -11t17.5 -16.5t10 -18.5t4 -21.5t0.5 -20t-1.5 -18.5t-1 -14 q0 -63 -123 -59q-49 3 -67.5 21.5t-20.5 62.5z" />
<glyph unicode="&#xcc;" horiz-adv-x="514" d="M1.5 1808.5q3.5 32.5 37.5 57.5q32 24 64.5 19.5t56.5 -40.5q27 -40 48 -73t31.5 -51t28.5 -49t29 -50q6 -9 10.5 -20.5t4.5 -28t-11 -25.5q-34 -23 -74 13q-106 94 -200 186q-29 29 -25.5 61.5zM51 1391q0 17 11 29t26 14h14q91 -3 330 -2q17 0 29 -12t12 -29v-84 q0 -15 -11 -27.5t-28 -13.5l-26 -2q-15 -1 -26 -13.5t-11 -27.5v-617l2 -409q0 -18 13.5 -30t37.5 -13q18 -2 29 -14t10 -29l-4 -72q-1 -17 -13.5 -28t-29.5 -11l-291 4q-17 0 -28 11t-13 28l-4 72q-1 17 9.5 29t27.5 14q15 2 26 14t11 29l-2 1024q0 17 -11 29t-28 12l-21 2 q-15 0 -26.5 11t-12.5 28z" />
<glyph unicode="&#xcd;" horiz-adv-x="499" d="M37 1391q0 17 11 29t26 14h14q91 -3 330 -2q17 0 29 -12t12 -29v-84q0 -15 -11 -27.5t-28 -13.5l-27 -2q-15 -1 -26 -13.5t-11 -27.5v-617l2 -409q0 -18 14 -30t38 -13q18 -2 29 -14t10 -29l-5 -72q-1 -17 -13.5 -28t-29.5 -11l-290 4q-17 0 -28 11t-13 28l-4 72 q-2 17 8.5 29.5t27.5 13.5q15 2 26 14t11 29l-2 1024q0 17 -11 29t-28 12l-20 2q-15 0 -26.5 11t-12.5 28zM186 1594.5q0 16.5 4.5 27.5t10.5 20q105 178 135 224q51 72 123 20q34 -25 37.5 -57.5t-25.5 -61.5q-84 -83 -201 -186q-16 -15 -36.5 -19t-36.5 7q-11 9 -11 25.5z " />
<glyph unicode="&#xce;" horiz-adv-x="542" d="M59 1589q-41 37 27 105q29 28 56.5 52t52 44t34.5 29q34 30 70 30q18 0 30 -4t17.5 -8.5t18.5 -17.5q22 -21 73 -65.5t92 -84.5q52 -49 9 -86q-11 -10 -24.5 -11.5t-29 6t-26 15t-25.5 19.5q-45 35 -121 82q-14 6 -26 0q-59 -33 -119 -74q-9 -6 -26.5 -19t-24 -17t-18 -8 t-20.5 -0.5t-20 13.5zM80 1391q0 17 11 29t26 14h14q91 -3 330 -2q17 0 29 -12t12 -29v-84q0 -15 -11 -27.5t-28 -13.5l-27 -2q-15 -1 -26 -13.5t-11 -27.5v-617l2 -409q0 -18 14 -30t38 -13q18 -2 29 -14t10 -29l-5 -72q-1 -17 -13.5 -28t-29.5 -11l-290 4q-17 0 -28 11 t-13 28l-4 72q-2 17 8.5 29.5t27.5 13.5q15 2 26 14t11 29l-2 1024q0 17 -11 29t-28 12l-20 2q-15 0 -26.5 11t-12.5 28z" />
<glyph unicode="&#xcf;" horiz-adv-x="524" d="M2 1671q-1 57 26.5 80.5t90.5 20.5q28 0 48 -8t30 -18t14.5 -26.5t5 -26.5t-0.5 -27t-1 -19q0 -34 -36 -48t-87 -12q-49 3 -68 21.5t-22 62.5zM61 1391q0 17 11 29t26 14h14q91 -3 330 -2q17 0 29 -12t12 -29v-84q0 -15 -11 -27.5t-28 -13.5l-26 -2q-15 -1 -26 -13.5 t-11 -27.5v-617l2 -409q0 -18 13.5 -30t37.5 -13q18 -2 29 -14t10 -29l-4 -72q-1 -17 -13.5 -28t-29.5 -11l-291 4q-17 0 -28 11t-13 28l-4 72q-1 17 9.5 29t27.5 14q15 2 26 14t11 29l-2 1024q0 17 -11 29t-28 12l-21 2q-15 0 -26.5 11t-12.5 28zM324 1671q-3 57 24 80.5 t92 20.5q21 0 37.5 -5t27 -11t17.5 -17t10 -18.5t4.5 -21t1 -19.5t-1.5 -19t-1 -14q0 -34 -35.5 -48t-87.5 -12q-49 3 -67.5 21.5t-20.5 62.5z" />
<glyph unicode="&#xd0;" horiz-adv-x="1087" d="M41 694q0 35 18 49t62 13h61q6 0 11.5 5t5.5 11q0 373 -2 451q-1 20 -17.5 34.5t-36.5 14.5t-34.5 14.5t-14.5 34.5l2 59q0 20 13.5 34t33.5 16q201 10 410 2q118 -5 219.5 -71.5t161.5 -173t65 -226.5q2 -21 4 -81.5t1.5 -170t-5.5 -201.5q-6 -111 -20.5 -187 t-43.5 -139.5t-77.5 -100.5t-120.5 -58t-174 -23q-34 0 -189.5 1t-221.5 1q-22 0 -38 15t-16 36q-2 20 -2 60q0 20 14.5 34t34.5 13h2q20 0 35 14.5t15 34.5q0 17 1 162.5t1 251.5q0 6 -5.5 11t-11.5 5h-57q-50 0 -67 11t-17 44zM399 215q0 -20 13.5 -33.5t33.5 -15.5 q81 -4 136 -3.5t94 9.5t65 43.5t35 89.5q31 186 19.5 480t-52.5 380q-57 113 -288 109q-20 0 -33.5 -14.5t-13.5 -34.5q0 -256 -2 -451q0 -16 16 -16q23 0 52.5 1t33.5 1q32 0 46.5 -16.5t12.5 -41.5v-18q0 -45 -61 -45h-86q-7 0 -12 -5t-5 -11z" />
<glyph unicode="&#xd1;" horiz-adv-x="1155" d="M61 1292v113q0 12 9.5 20.5t21.5 8.5h193q33 3 55 -33l453 -916q2 -4 6 -5t7 1.5t3 7.5l6 738q0 15 -11 26t-26 11h-10q-15 0 -26 10.5t-11 25.5v97q0 15 11 26t26 11l291 -2q13 0 24 -11t11 -24v-94q0 -15 -10.5 -26t-24.5 -11h-21q-15 -2 -24.5 -12t-9.5 -25v-688 l6 -504q1 -15 -10.5 -26t-26.5 -11h-86q-37 0 -53 31l-480 948q-3 4 -7.5 3.5t-4.5 -5.5l2 -787q0 -15 12 -26.5t27 -11.5h8q17 0 28 -12t11 -29l-2 -74q0 -17 -11 -28t-28 -11l-264 2q-17 0 -28 11t-11 28l-2 72q0 16 11 27.5t28 11.5q15 0 27 11.5t12 26.5l-2 1047 q0 12 -9.5 20.5t-21.5 8.5h-37q-12 0 -21.5 8t-9.5 20zM260 1620q9 53 31 90t51.5 54t55 23.5t51.5 6.5q61 2 143 -63q59 -45 90 -45q25 0 46.5 15t31.5 46q8 27 23.5 36.5t50.5 6.5q32 -3 50.5 -20t12.5 -44q-12 -50 -34.5 -83t-53.5 -47t-57 -18.5t-62 -4.5 q-14 0 -27.5 2.5t-27.5 8t-24 10t-24.5 14t-21 13.5t-21.5 15t-18 13q-41 29 -81.5 14.5t-59.5 -64.5q-5 -18 -21 -26.5t-53 -1.5q-31 6 -42.5 17.5t-8.5 31.5z" />
<glyph unicode="&#xd2;" horiz-adv-x="1148" d="M82 741q0 103 15 197.5t51 185t89.5 158.5t136.5 113t187 53q115 0 205 -42t145.5 -109.5t91.5 -161t50 -187.5t14 -198q0 -164 -29.5 -301.5t-88.5 -243t-154.5 -164.5t-219.5 -59q-109 0 -195.5 43t-141.5 114t-91 170.5t-50.5 205.5t-14.5 226zM285 752 q0 -274 76.5 -438t218.5 -164q78 0 133.5 40.5t87.5 121t46.5 187t14.5 249.5q0 102 -8 181t-29 148.5t-54.5 114.5t-86 70.5t-123.5 25.5q-70 0 -124 -42t-86.5 -116t-49 -169.5t-16.5 -208.5zM296.5 1837q3.5 32 37.5 57q72 52 121 -20q27 -40 48 -73t31.5 -51t28.5 -49 t29 -50q6 -9 10.5 -20.5t4.5 -28t-11 -25.5q-19 -11 -38.5 -7t-35.5 19q-95 84 -200 187q-29 29 -25.5 61z" />
<glyph unicode="&#xd3;" horiz-adv-x="1148" d="M82 741q0 103 15 197.5t51 185t89.5 158.5t136.5 113t187 53q115 0 205 -42t145.5 -109.5t91.5 -161t50 -187.5t14 -198q0 -164 -29.5 -301.5t-88.5 -243t-154.5 -164.5t-219.5 -59q-109 0 -195.5 43t-141.5 114t-91 170.5t-50.5 205.5t-14.5 226zM285 752 q0 -274 76.5 -438t218.5 -164q78 0 133.5 40.5t87.5 121t46.5 187t14.5 249.5q0 102 -8 181t-29 148.5t-54.5 114.5t-86 70.5t-123.5 25.5q-70 0 -124 -42t-86.5 -116t-49 -169.5t-16.5 -208.5zM530 1596.5q0 16.5 4.5 28t10.5 20.5q98 165 135 223q51 72 123 20 q34 -25 37.5 -57.5t-25.5 -61.5q-84 -83 -201 -186q-16 -15 -36.5 -19t-36.5 7q-11 9 -11 25.5z" />
<glyph unicode="&#xd4;" horiz-adv-x="1148" d="M82 741q0 103 15 197.5t51 185t89.5 158.5t136.5 113t187 53q115 0 205 -42t145.5 -109.5t91.5 -161t50 -187.5t14 -198q0 -164 -29.5 -301.5t-88.5 -243t-154.5 -164.5t-219.5 -59q-109 0 -195.5 43t-141.5 114t-91 170.5t-50.5 205.5t-14.5 226zM285 752 q0 -274 76.5 -438t218.5 -164q78 0 133.5 40.5t87.5 121t46.5 187t14.5 249.5q0 102 -8 181t-29 148.5t-54.5 114.5t-86 70.5t-123.5 25.5q-70 0 -124 -42t-86.5 -116t-49 -169.5t-16.5 -208.5zM334 1585q-42 37 26 105q29 28 57 52t52.5 44t34.5 29q34 30 69 30q18 0 30 -4 t17.5 -8.5t18.5 -17.5q24 -22 74.5 -66t91.5 -84q52 -49 8 -86q-11 -10 -24 -11.5t-28.5 6t-25.5 14.5t-26 20q-45 35 -121 82q-15 6 -27 0q-59 -33 -119 -74q-9 -6 -26.5 -19t-24 -17t-17.5 -8t-20 -0.5t-20 13.5z" />
<glyph unicode="&#xd5;" horiz-adv-x="1148" d="M82 741q0 103 15 197.5t51 185t89.5 158.5t136.5 113t187 53q115 0 205 -42t145.5 -109.5t91.5 -161t50 -187.5t14 -198q0 -164 -29.5 -301.5t-88.5 -243t-154.5 -164.5t-219.5 -59q-109 0 -195.5 43t-141.5 114t-91 170.5t-50.5 205.5t-14.5 226zM221 1616q9 53 31 90 t51.5 54t55 23.5t51.5 6.5q60 2 143 -64q59 -45 90 -45q24 0 46 15.5t32 46.5q8 27 23.5 36.5t50.5 6.5q32 -3 50.5 -20t12.5 -44q-12 -50 -34.5 -83t-53.5 -47t-57 -18.5t-62 -4.5q-14 0 -27.5 2.5t-27.5 8t-24 10t-24.5 14t-21 13.5t-21.5 15t-18 13q-41 29 -81.5 14.5 t-59.5 -64.5q-5 -18 -21 -26.5t-53 -1.5q-31 6 -42.5 17.5t-8.5 31.5zM285 752q0 -274 76.5 -438t218.5 -164q78 0 133.5 40.5t87.5 121t46.5 187t14.5 249.5q0 102 -8 181t-29 148.5t-54.5 114.5t-86 70.5t-123.5 25.5q-70 0 -124 -42t-86.5 -116t-49 -169.5t-16.5 -208.5z " />
<glyph unicode="&#xd6;" horiz-adv-x="1148" d="M82 741q0 103 15 197.5t51 185t89.5 158.5t136.5 113t187 53q115 0 205 -42t145.5 -109.5t91.5 -161t50 -187.5t14 -198q0 -164 -29.5 -301.5t-88.5 -243t-154.5 -164.5t-219.5 -59q-109 0 -195.5 43t-141.5 114t-91 170.5t-50.5 205.5t-14.5 226zM285 752 q0 -274 76.5 -438t218.5 -164q78 0 133.5 40.5t87.5 121t46.5 187t14.5 249.5q0 102 -8 181t-29 148.5t-54.5 114.5t-86 70.5t-123.5 25.5q-70 0 -124 -42t-86.5 -116t-49 -169.5t-16.5 -208.5zM293 1655q-1 57 26.5 80t90.5 20q28 0 48 -8t30 -18t14.5 -26.5t5 -26.5 t-0.5 -27t-1 -19q0 -63 -123 -59q-49 3 -68 21.5t-22 62.5zM614 1655q-3 57 24.5 80t92.5 20q21 0 37.5 -5t27 -11t17.5 -16.5t10 -18.5t4 -21.5t0.5 -20t-1.5 -18.5t-1 -14q0 -63 -123 -59q-49 3 -67.5 21.5t-20.5 62.5z" />
<glyph unicode="&#xd7;" horiz-adv-x="737" d="M62.5 445q0.5 17 33.5 49l152 153q6 7 6 17t-6 16q-122 122 -146 149q-20 23 -23.5 39t4.5 30t32 40q24 22 39.5 19t48.5 -29q21 -18 149 -142q8 -8 17.5 -8t15.5 8q148 148 162 160q17 14 24.5 18t17 3t21.5 -11q17 -12 52 -53q20 -20 -19 -59q-27 -31 -154 -158 q-7 -8 -7 -17.5t7 -15.5q148 -148 162 -164q14 -18 19 -25.5t4 -19t-12 -24.5q-6 -7 -52 -53q-16 -12 -30.5 -7t-40.5 29q-49 53 -158 158q-6 6 -15.5 6t-15.5 -6q-142 -139 -162 -154q-18 -14 -31 -19.5t-25 -1t-19 9.5t-21 20l-6 6q-24 20 -23.5 37z" />
<glyph unicode="&#xd9;" horiz-adv-x="1282" d="M82 1380q0 20 12.5 35.5t32.5 18.5h326q21 0 36 -15t15 -35v-65q0 -20 -13 -33.5t-32 -15.5q-27 -3 -42.5 -16.5t-15.5 -34.5q-8 -246 -8 -609q0 -68 1 -109t4 -92.5t10 -81.5t18.5 -64t29 -52.5t42.5 -35.5t58.5 -23.5t76.5 -6.5q49 0 86.5 11.5t63.5 30.5t44.5 53 t29 68.5t16 88.5t7 101.5t1.5 117.5q0 480 -2 605q0 21 -14.5 35t-37.5 14q-19 2 -32 15t-15 32l-2 61q-2 20 10.5 35.5t32.5 18.5h6l324 2q20 0 34.5 -15t14.5 -35v-65q0 -45 -55 -51q-20 -1 -32.5 -15t-12.5 -34v-603q0 -127 -9 -219t-31 -164.5t-55.5 -119t-86.5 -76.5 t-120.5 -42.5t-160.5 -12.5q-87 0 -148 9t-115 34.5t-88 70t-58.5 115.5t-35 170.5t-10.5 236.5q0 43 -1 204t-1 273.5t2 125.5q0 21 -14 35t-37 14q-20 2 -33.5 15t-13.5 32zM372 1825q4 32 38 57q72 52 120 -20q45 -67 138 -224q6 -9 10.5 -20t4.5 -27.5t-11 -25.5 q-19 -11 -38.5 -7t-35.5 19q-117 103 -201 186q-29 30 -25 62z" />
<glyph unicode="&#xda;" horiz-adv-x="1200" d="M41 1380q0 20 12.5 35.5t32.5 18.5h326q22 0 36.5 -15t14.5 -35v-65q0 -20 -13 -33.5t-32 -15.5q-27 -3 -42.5 -16.5t-15.5 -34.5q-8 -246 -8 -609q0 -68 1 -109t4 -92.5t10 -81.5t18.5 -64t29 -52.5t42.5 -35.5t58.5 -23.5t76.5 -6.5q49 0 86.5 11.5t63.5 30.5t44.5 53 t29 68.5t16 88.5t7 101.5t1.5 117.5q0 480 -2 605q0 21 -14.5 35t-37.5 14q-19 2 -32.5 15t-14.5 32l-2 61q-2 20 10.5 35.5t32.5 18.5h6l324 2q20 0 34.5 -15t14.5 -35v-65q0 -45 -55 -51q-20 -1 -32.5 -15t-12.5 -34v-603q0 -127 -9 -219t-31 -164.5t-55.5 -119 t-86.5 -76.5t-120.5 -42.5t-160.5 -12.5q-87 0 -148 9t-115 34.5t-88 70t-58.5 115.5t-35 170.5t-10.5 236.5q0 43 -1 204t-1 273.5t2 125.5q0 21 -14 35t-37 14q-20 2 -33.5 15t-13.5 32zM571 1588.5q0 16.5 4.5 27.5t10.5 20q105 178 135 224q51 72 123 20 q34 -25 37.5 -57.5t-25.5 -61.5q-84 -83 -201 -186q-16 -15 -36.5 -19t-36.5 7q-11 9 -11 25.5z" />
<glyph unicode="&#xdb;" horiz-adv-x="1282" d="M82 1380q0 20 12.5 35.5t32.5 18.5h326q21 0 36 -15t15 -35v-65q0 -20 -13 -33.5t-32 -15.5q-27 -3 -42.5 -16.5t-15.5 -34.5q-8 -246 -8 -609q0 -68 1 -109t4 -92.5t10 -81.5t18.5 -64t29 -52.5t42.5 -35.5t58.5 -23.5t76.5 -6.5q49 0 86.5 11.5t63.5 30.5t44.5 53 t29 68.5t16 88.5t7 101.5t1.5 117.5q0 480 -2 605q0 21 -14.5 35t-37.5 14q-19 2 -32 15t-15 32l-2 61q-2 20 10.5 35.5t32.5 18.5h6l324 2q20 0 34.5 -15t14.5 -35v-65q0 -45 -55 -51q-20 -1 -32.5 -15t-12.5 -34v-603q0 -127 -9 -219t-31 -164.5t-55.5 -119t-86.5 -76.5 t-120.5 -42.5t-160.5 -12.5q-87 0 -148 9t-115 34.5t-88 70t-58.5 115.5t-35 170.5t-10.5 236.5q0 43 -1 204t-1 273.5t2 125.5q0 21 -14 35t-37 14q-20 2 -33.5 15t-13.5 32zM403 1587q-41 37 27 105q29 28 56.5 52t52 44t34.5 29q34 30 70 30q18 0 30 -4t17.5 -8.5 t18.5 -17.5q22 -21 73 -65.5t92 -84.5q52 -49 9 -86q-11 -10 -24.5 -11.5t-29 6t-26 15t-25.5 19.5q-45 35 -121 82q-14 6 -26 0q-59 -33 -119 -74q-9 -6 -26.5 -19t-24 -17t-18 -8t-20.5 -0.5t-20 13.5z" />
<glyph unicode="&#xdc;" horiz-adv-x="1282" d="M82 1380q0 20 12.5 35.5t32.5 18.5h326q21 0 36 -15t15 -35v-65q0 -20 -13 -33.5t-32 -15.5q-27 -3 -42.5 -16.5t-15.5 -34.5q-8 -246 -8 -609q0 -68 1 -109t4 -92.5t10 -81.5t18.5 -64t29 -52.5t42.5 -35.5t58.5 -23.5t76.5 -6.5q49 0 86.5 11.5t63.5 30.5t44.5 53 t29 68.5t16 88.5t7 101.5t1.5 117.5q0 480 -2 605q0 21 -14.5 35t-37.5 14q-19 2 -32 15t-15 32l-2 61q-2 20 10.5 35.5t32.5 18.5h6l324 2q20 0 34.5 -15t14.5 -35v-65q0 -45 -55 -51q-20 -1 -32.5 -15t-12.5 -34v-603q0 -127 -9 -219t-31 -164.5t-55.5 -119t-86.5 -76.5 t-120.5 -42.5t-160.5 -12.5q-87 0 -148 9t-115 34.5t-88 70t-58.5 115.5t-35 170.5t-10.5 236.5q0 43 -1 204t-1 273.5t2 125.5q0 21 -14 35t-37 14q-20 2 -33.5 15t-13.5 32zM367 1651q-1 57 26 80t90 20q28 0 48 -8t30 -17.5t15 -26.5t5.5 -26.5t-0.5 -27t-1 -19.5 q0 -63 -123 -59q-49 3 -68 21.5t-22 62.5zM688 1651q-3 57 24.5 80t92.5 20q21 0 37.5 -5t27 -11t17.5 -16.5t10 -18.5t4 -21.5t0.5 -20t-1.5 -18.5t-1 -14q0 -63 -123 -59q-49 3 -67.5 21.5t-20.5 62.5z" />
<glyph unicode="&#xdd;" horiz-adv-x="1067" d="M0 1386q0 20 13 34t32 14h281q19 0 32 -13t13 -32l2 -70q0 -19 -13 -32t-32 -13h-17q-7 0 -11 -6.5t-1 -12.5l211 -419q5 -6 12.5 -6.5t12.5 6.5l247 415q3 6 0 13t-10 8h-39q-19 2 -32 15t-13 32l2 67q2 19 14.5 32.5t30.5 13.5h287q19 0 32 -14t13 -34v-69 q0 -18 -12.5 -30.5t-30.5 -12.5q-26 -3 -39 -23l-364 -657q-7 -14 -7 -25l7 -364q0 -19 12 -32t31 -13l24 -2q19 0 31 -12t12 -31l2 -66q0 -19 -12.5 -32t-32.5 -13h-340q-19 0 -32 13t-15 32v64q0 19 13 32t32 13h21q19 2 32 14.5t13 30.5v374q0 7 -4 23l-314 651 q-10 19 -35 23h-14q-19 0 -31 13t-12 32zM485 1588.5q0 16.5 4.5 27.5t10.5 20q105 178 135 224q51 72 123 20q34 -25 37.5 -57.5t-25.5 -61.5q-84 -83 -201 -186q-16 -15 -36.5 -19t-36.5 7q-11 9 -11 25.5z" />
<glyph unicode="&#xde;" horiz-adv-x="1015" d="M82 109q0 17 12 30.5t31 14.5l41 2q19 1 31 14.5t14 32.5l6 1020q0 20 -13 33.5t-32 13.5h-16q-19 2 -32 14.5t-13 32.5l-5 65q0 19 14 34t34 16l92 2l243 -2q22 0 37 -15t15 -37v-63q0 -20 -13.5 -35t-33.5 -16l-58 -2q-22 -4 -22 -25v-74q0 -11 8 -18.5t18 -7.5 q135 -5 183 -13q42 -6 81 -17.5t87 -36.5t84 -60t63 -92.5t33 -128.5q7 -92 -3 -164.5t-35 -126t-68 -95t-96 -69.5t-124 -51q-49 -15 -194 -25q-13 -1 -22 -11t-9 -24l-2 -25v1q0 -20 12.5 -32.5t32.5 -14.5h49q20 -1 32.5 -15.5t12.5 -34.5v-59q-1 -20 -14.5 -33.5 t-32.5 -13.5h-379q-20 0 -34 14.5t-13 34.5zM420 932q0 -79 1 -234t1 -235q0 -15 12 -26.5t27 -10.5q45 2 93.5 18.5t92 44t72 71t29.5 93.5q8 47 5.5 92t-15 85t-36 72t-58 52.5t-81 27.5t-104.5 -3q-17 -3 -28 -15.5t-11 -31.5z" />
<glyph unicode="&#xdf;" horiz-adv-x="1230" d="M41 47v53q0 21 13.5 35.5t33.5 14.5h18q21 2 34.5 15.5t13.5 33.5q10 702 10 899q0 96 20 174t65 142.5t125.5 101.5t192.5 40q96 2 170 -26t117 -77t63.5 -111t16.5 -132q-2 -23 -13.5 -45t-34 -42t-38 -31.5t-45 -30t-33.5 -21.5q-75 -51 -112 -138t-1 -161 q15 -28 33 -48t44 -33t44.5 -20t56 -17.5t56.5 -16.5q59 -20 102 -39.5t88.5 -50t72.5 -73.5t32 -95q7 -80 -5 -140t-43.5 -99.5t-69.5 -64t-91 -42.5q-70 -24 -143.5 -29t-166 22.5t-169.5 92.5q-35 27 -35 72q-3 55 0 100q0 28 19.5 46.5t47.5 17.5l72 -2q25 -2 43.5 -20 t18.5 -42q2 -10 2 -31q3 -28 22 -47q30 -28 64 -37.5t84 -9.5q79 0 109 33.5t26 130.5q-1 60 -31.5 85.5t-134.5 66.5q-13 5 -49.5 18.5t-48.5 18.5t-41.5 18t-42.5 21.5t-36.5 25t-37.5 32.5t-31.5 39t-32.5 50q-35 70 -36 135.5t29 130.5t68 113t83 84q39 31 63 45 q25 16 25 45q-2 35 -8.5 61.5t-22.5 53.5t-48 42t-79 15q-49 0 -87 -25t-59 -64.5t-31.5 -78.5t-12.5 -76q-7 -139 -7 -1096q1 -26 -16.5 -43.5t-44.5 -17.5l-211 2q-20 0 -33.5 13.5t-15.5 33.5z" />
<glyph unicode="&#xe0;" horiz-adv-x="948" d="M83 300.5q4 70.5 28 129.5q43 110 128.5 161.5t215.5 53.5q80 0 98 -2q12 -1 21.5 8t9.5 21q5 81 -6 141q-10 75 -38 112t-100 38q-34 1 -60.5 -6.5t-44 -21t-27 -23.5t-18.5 -25l-9 -15q-7 -11 -7 -63q0 -37 -34 -37h-99q-42 0 -39 41v19q-1 18 -1.5 41t-0.5 34q0 1 2 9 t4 12q7 16 19 35t39.5 46.5t62 49t90 38t119.5 17.5q55 1 98.5 -9t72 -24.5t54.5 -42.5t40.5 -49.5t35.5 -58.5q36 -61 43 -195q2 -39 4.5 -172.5t4.5 -244.5t2 -119q0 -47 26 -47h27q43 0 43 -54v-53q0 -45 -53 -45h-175q-22 0 -37.5 16t-17.5 37q-4 46 -4 49v17 q-2 6 -5.5 6t-6.5 -6q-20 -36 -49 -68q-31 -34 -86.5 -47.5t-102.5 -13.5q-6 0 -26.5 -0.5t-27.5 0t-21.5 3t-28.5 7.5q-18 7 -47 25q-8 5 -23 17.5t-18 16.5q-40 39 -59.5 105t-15.5 136.5zM177.5 1534q3.5 32 37.5 57q72 52 121 -20q27 -40 48 -73t31.5 -51t28.5 -49 t29 -50q6 -9 10.5 -20.5t4.5 -28t-11 -25.5q-19 -11 -38.5 -7t-35.5 19q-95 84 -200 187q-29 29 -25.5 61zM268 295q0 -108 99 -123q40 -5 90.5 13t89 51.5t41.5 68.5q3 47 -2 158q0 11 -8 19t-19 10q-121 4 -186 -11q-31 -8 -52 -23.5t-31 -30t-15.5 -39.5t-6 -38.5 t-0.5 -41.5v-13z" />
<glyph unicode="&#xe1;" horiz-adv-x="948" d="M83 300.5q4 70.5 28 129.5q43 110 128.5 161.5t215.5 53.5q80 0 98 -2q12 -1 21.5 8t9.5 21q5 81 -6 141q-10 75 -38 112t-100 38q-34 1 -60.5 -6.5t-44 -21t-27 -23.5t-18.5 -25l-9 -15q-7 -11 -7 -63q0 -37 -34 -37h-99q-42 0 -39 41v19q-1 18 -1.5 41t-0.5 34q0 1 2 9 t4 12q7 16 19 35t39.5 46.5t62 49t90 38t119.5 17.5q55 1 98.5 -9t72 -24.5t54.5 -42.5t40.5 -49.5t35.5 -58.5q36 -61 43 -195q2 -39 4.5 -172.5t4.5 -244.5t2 -119q0 -47 26 -47h27q43 0 43 -54v-53q0 -45 -53 -45h-175q-22 0 -37.5 16t-17.5 37q-4 46 -4 49v17 q-2 6 -5.5 6t-6.5 -6q-20 -36 -49 -68q-31 -34 -86.5 -47.5t-102.5 -13.5q-6 0 -26.5 -0.5t-27.5 0t-21.5 3t-28.5 7.5q-18 7 -47 25q-8 5 -23 17.5t-18 16.5q-40 39 -59.5 105t-15.5 136.5zM268 295q0 -108 99 -123q40 -5 90.5 13t89 51.5t41.5 68.5q3 47 -2 158 q0 11 -8 19t-19 10q-121 4 -186 -11q-31 -8 -52 -23.5t-31 -30t-15.5 -39.5t-6 -38.5t-0.5 -41.5v-13zM378 1313.5q0 16.5 4.5 28t10.5 20.5q98 165 135 223q52 72 123 21q34 -25 38 -57t-25 -62q-95 -93 -201 -187q-16 -14 -37 -18.5t-37 6.5q-11 9 -11 25.5z" />
<glyph unicode="&#xe2;" horiz-adv-x="948" d="M83 300.5q4 70.5 28 129.5q43 110 128.5 161.5t215.5 53.5q80 0 98 -2q12 -1 21.5 8t9.5 21q5 81 -6 141q-10 75 -38 112t-100 38q-34 1 -60.5 -6.5t-44 -21t-27 -23.5t-18.5 -25l-9 -15q-7 -11 -7 -63q0 -37 -34 -37h-99q-42 0 -39 41v19q-1 18 -1.5 41t-0.5 34q0 1 2 9 t4 12q7 16 19 35t39.5 46.5t62 49t90 38t119.5 17.5q55 1 98.5 -9t72 -24.5t54.5 -42.5t40.5 -49.5t35.5 -58.5q36 -61 43 -195q2 -39 4.5 -172.5t4.5 -244.5t2 -119q0 -47 26 -47h27q43 0 43 -54v-53q0 -45 -53 -45h-175q-22 0 -37.5 16t-17.5 37q-4 46 -4 49v17 q-2 6 -5.5 6t-6.5 -6q-20 -36 -49 -68q-31 -34 -86.5 -47.5t-102.5 -13.5q-6 0 -26.5 -0.5t-27.5 0t-21.5 3t-28.5 7.5q-18 7 -47 25q-8 5 -23 17.5t-18 16.5q-40 39 -59.5 105t-15.5 136.5zM208.5 1313q0.5 18 11.5 34t32 37q29 28 56.5 52t52 44t34.5 29q35 31 70 31 q18 0 30 -4.5t16.5 -8.5t18.5 -18q25 -24 75.5 -67t90.5 -82q52 -49 9 -86q-11 -10 -24.5 -11.5t-29 6t-26 15t-25.5 19.5q-39 30 -121 81q-14 6 -26 0q-66 -37 -119 -73q-9 -6 -26.5 -19t-24 -17t-18 -8t-20.5 -0.5t-20 13.5q-17 15 -16.5 33zM268 295q0 -108 99 -123 q40 -5 90.5 13t89 51.5t41.5 68.5q3 47 -2 158q0 11 -8 19t-19 10q-121 4 -186 -11q-31 -8 -52 -23.5t-31 -30t-15.5 -39.5t-6 -38.5t-0.5 -41.5v-13z" />
<glyph unicode="&#xe3;" horiz-adv-x="948" d="M83 300.5q4 70.5 28 129.5q43 110 128.5 161.5t215.5 53.5q80 0 98 -2q12 -1 21.5 8t9.5 21q5 81 -6 141q-10 75 -38 112t-100 38q-34 1 -60.5 -6.5t-44 -21t-27 -23.5t-18.5 -25l-9 -15q-7 -11 -7 -63q0 -37 -34 -37h-99q-42 0 -39 41v19q-1 18 -1.5 41t-0.5 34q0 1 2 9 t4 12q7 16 19 35t39.5 46.5t62 49t90 38t119.5 17.5q55 1 98.5 -9t72 -24.5t54.5 -42.5t40.5 -49.5t35.5 -58.5q36 -61 43 -195q2 -39 4.5 -172.5t4.5 -244.5t2 -119q0 -47 26 -47h27q43 0 43 -54v-53q0 -45 -53 -45h-175q-22 0 -37.5 16t-17.5 37q-4 46 -4 49v17 q-2 6 -5.5 6t-6.5 -6q-20 -36 -49 -68q-31 -34 -86.5 -47.5t-102.5 -13.5q-6 0 -26.5 -0.5t-27.5 0t-21.5 3t-28.5 7.5q-18 7 -47 25q-8 5 -23 17.5t-18 16.5q-40 39 -59.5 105t-15.5 136.5zM119 1315q9 53 31 90t51 54t54.5 23.5t51.5 6.5q61 2 144 -64q59 -45 90 -45 q24 0 45.5 15.5t31.5 46.5q8 27 23.5 36.5t50.5 6.5q32 -3 51 -20t13 -44q-12 -50 -34.5 -83t-53.5 -47t-57 -18.5t-62 -4.5q-14 0 -27 2t-28 8t-23.5 9.5t-25 14t-21 13.5l-22.5 15l-17 13q-41 29 -81.5 15t-59.5 -64q-5 -18 -21 -26.5t-53 -1.5q-31 6 -42.5 17.5 t-8.5 31.5zM268 295q0 -108 99 -123q40 -5 90.5 13t89 51.5t41.5 68.5q3 47 -2 158q0 11 -8 19t-19 10q-121 4 -186 -11q-31 -8 -52 -23.5t-31 -30t-15.5 -39.5t-6 -38.5t-0.5 -41.5v-13z" />
<glyph unicode="&#xe4;" horiz-adv-x="948" d="M83 300.5q4 70.5 28 129.5q43 110 128.5 161.5t215.5 53.5q80 0 98 -2q12 -1 21.5 8t9.5 21q5 81 -6 141q-10 75 -38 112t-100 38q-34 1 -60.5 -6.5t-44 -21t-27 -23.5t-18.5 -25l-9 -15q-7 -11 -7 -63q0 -37 -34 -37h-99q-42 0 -39 41v19q-1 18 -1.5 41t-0.5 34q0 1 2 9 t4 12q7 16 19 35t39.5 46.5t62 49t90 38t119.5 17.5q55 1 98.5 -9t72 -24.5t54.5 -42.5t40.5 -49.5t35.5 -58.5q36 -61 43 -195q2 -39 4.5 -172.5t4.5 -244.5t2 -119q0 -47 26 -47h27q43 0 43 -54v-53q0 -45 -53 -45h-175q-22 0 -37.5 16t-17.5 37q-4 46 -4 49v17 q-2 6 -5.5 6t-6.5 -6q-20 -36 -49 -68q-31 -34 -86.5 -47.5t-102.5 -13.5q-6 0 -26.5 -0.5t-27.5 0t-21.5 3t-28.5 7.5q-18 7 -47 25q-8 5 -23 17.5t-18 16.5q-40 39 -59.5 105t-15.5 136.5zM186 1356q-1 57 26.5 80t90.5 20q28 0 48 -8t30 -18t14.5 -26.5t5 -26.5t-0.5 -27 t-1 -19q0 -63 -123 -59q-49 3 -68 21.5t-22 62.5zM268 295q0 -108 99 -123q40 -5 90.5 13t89 51.5t41.5 68.5q3 47 -2 158q0 11 -8 19t-19 10q-121 4 -186 -11q-31 -8 -52 -23.5t-31 -30t-15.5 -39.5t-6 -38.5t-0.5 -41.5v-13zM508 1356q-3 57 24.5 80t92.5 20q21 0 37.5 -5 t27 -11t17.5 -16.5t10 -18.5t4 -21.5t0.5 -20t-1.5 -18.5t-1 -14q0 -63 -123 -59q-49 3 -67.5 21.5t-20.5 62.5z" />
<glyph unicode="&#xe5;" horiz-adv-x="948" d="M83 300.5q4 70.5 28 129.5q43 110 128.5 161.5t215.5 53.5q80 0 98 -2q12 -1 21.5 8t9.5 21q5 81 -6 141q-10 75 -38 112t-100 38q-34 1 -60.5 -6.5t-44 -21t-27 -23.5t-18.5 -25l-9 -15q-7 -11 -7 -63q0 -37 -34 -37h-99q-42 0 -39 41v19q-1 18 -1.5 41t-0.5 34q0 1 2 9 t4 12q7 16 19 35t39.5 46.5t62 49t90 38t119.5 17.5q55 1 98.5 -9t72 -24.5t54.5 -42.5t40.5 -49.5t35.5 -58.5q36 -61 43 -195q2 -39 4.5 -172.5t4.5 -244.5t2 -119q0 -47 26 -47h27q43 0 43 -54v-53q0 -45 -53 -45h-175q-22 0 -37.5 16t-17.5 37q-4 46 -4 49v17 q-2 6 -5.5 6t-6.5 -6q-20 -36 -49 -68q-31 -34 -86.5 -47.5t-102.5 -13.5q-6 0 -26.5 -0.5t-27.5 0t-21.5 3t-28.5 7.5q-18 7 -47 25q-8 5 -23 17.5t-18 16.5q-40 39 -59.5 105t-15.5 136.5zM268 295q0 -108 99 -123q40 -5 90.5 13t89 51.5t41.5 68.5q3 47 -2 158 q0 11 -8 19t-19 10q-121 4 -186 -11q-31 -8 -52 -23.5t-31 -30t-15.5 -39.5t-6 -38.5t-0.5 -41.5v-13zM276 1497q44 129 203 115q74 -9 109.5 -67.5t29.5 -135.5q-7 -79 -72 -116t-145 -21q-77 17 -112.5 86t-12.5 139zM377 1407q20 -47 72 -47q69 0 69 80q4 88 -63 96 q-51 7 -74.5 -37.5t-3.5 -91.5z" />
<glyph unicode="&#xe6;" horiz-adv-x="1343" d="M83 339.5q3 50.5 17 86.5q43 108 127 158.5t213 52.5q55 2 99 -2q12 0 21 8.5t9 20.5q0 94 -6 139q-10 75 -37.5 110.5t-99.5 36.5q-28 0 -51.5 -5t-38.5 -13t-28.5 -19.5t-19.5 -19.5t-12.5 -19t-7.5 -12q-4 -8 -4 -63q0 -37 -35 -37h-96q-42 0 -39 41v19 q-1 18 -1.5 40.5t-0.5 32.5q0 8 4 20q8 17 20 35t39.5 46t61 49t88 37.5t117.5 17.5q85 1 134 -20t85 -64q8 -9 20 -10t21 8q44 45 100 65t136 23q238 5 329 -240q19 -47 27.5 -135t5.5 -168q-1 -29 -23 -49.5t-51 -22.5l-403 -10q-19 0 -31 -13t-12 -32q0 -243 143 -258 q54 -5 105.5 14t66.5 52q6 10 10 67q1 21 17.5 36t38.5 17q56 4 84 2q19 0 32 -13t13 -32v-79q0 -11 -8 -35q-46 -93 -95 -137q-59 -49 -134 -69.5t-137 -14t-105 31.5q-72 43 -113 109q-4 7 -14.5 7t-16.5 -7q-32 -46 -72 -76q-53 -40 -122 -51t-115 -4q-72 9 -125.5 46 t-80.5 87t-39.5 107t-9.5 107.5zM258 293q0 -109 96 -121q65 -10 136 28.5t81 102.5q10 62 0 156q-4 26 -28 26q-121 5 -183 -10q-17 -4 -30.5 -10.5t-23.5 -13t-18 -16.5t-13 -17.5t-8.5 -20t-5 -20t-2.5 -22t-1 -20.5v-22v-20zM760 709q-2 -20 11.5 -35t33.5 -15h211 q24 0 41.5 19.5t15.5 44.5l-4 20q-10 63 -31 117t-47 72q-30 19 -66 21.5t-70.5 -17t-55.5 -59.5q-29 -60 -39 -168z" />
<glyph unicode="&#xe7;" horiz-adv-x="839" d="M82 569q0 67 4.5 123.5t15 117t31 109t50.5 90t75 69t102 38.5q50 8 107.5 9.5t116.5 -14t106.5 -40t78 -69.5t30.5 -103v-74q0 -31 -17 -50t-47 -19q-12 0 -42 1t-40 1q-55 0 -55 73q0 72 -33 102t-135 30q-147 0 -147 -322v-11q0 -83 1 -125t6 -110.5t17 -104.5 t32.5 -75.5t54.5 -56.5t81 -17q66 0 85.5 25.5t27.5 99.5q3 22 20 34.5t41 12.5h88q54 0 54 -77q-3 -226 -271 -254l-10 -48q-4 -18 4 -18q77 12 130.5 -16t70.5 -95q23 -90 -32 -150.5t-153 -60.5q-42 0 -98 17q-42 17 -24 67q6 15 20 22.5t29 4.5q110 -31 141 12 q19 32 10 60q-9 31 -34.5 46t-55.5 15.5t-59 -3.5t-49 -11l-19 -6q-6 -2 -9.5 2t-2.5 10q4 30 13.5 70.5t15.5 79.5q-73 8 -130.5 47.5t-93.5 97.5t-59.5 134.5t-33 152.5t-9.5 157z" />
<glyph unicode="&#xe8;" horiz-adv-x="890" d="M83.5 505.5q-2.5 116.5 10 213t33.5 166.5q77 258 328 264q40 2 81.5 -10.5t87.5 -41.5t87.5 -87t68.5 -138q16 -48 23 -132.5t4 -164.5q0 -30 -21.5 -50.5t-52.5 -22.5l-407 -4q-39 -3 -39 -45q0 -40 7.5 -86.5t24 -97.5t49.5 -84.5t78 -34.5q48 -1 81 13t47 31.5 t28 45.5q6 16 10 65q1 23 17 38t39 17q55 4 86 2q19 0 32 -13t13 -32q-1 -3 -0.5 -41t0.5 -40q0 -41 -33 -91t-72 -84q-43 -34 -94 -51.5t-103 -17t-83.5 4.5t-71.5 13q-92 21 -151.5 99t-82 179t-25 217.5zM167.5 1542q3.5 32 37.5 57q72 52 121 -20q27 -40 48 -73 t31.5 -51t28.5 -49t29 -50q6 -9 10.5 -20.5t4.5 -28t-11 -25.5q-19 -11 -38.5 -7t-35.5 19q-95 84 -200 187q-29 29 -25.5 61zM293 713q-2 -20 11.5 -34.5t35.5 -14.5h221q24 0 38 19t11 46q0 34 -2 59t-9 59t-24.5 60.5t-44.5 42.5q-30 19 -69 22t-77 -16t-58 -59 q-21 -44 -33 -184z" />
<glyph unicode="&#xe9;" horiz-adv-x="890" d="M83.5 505.5q-2.5 116.5 10 213t33.5 166.5q77 258 328 264q40 2 81.5 -10.5t87.5 -41.5t87.5 -87t68.5 -138q16 -48 23 -132.5t4 -164.5q0 -30 -21.5 -50.5t-52.5 -22.5l-407 -4q-39 -3 -39 -45q0 -40 7.5 -86.5t24 -97.5t49.5 -84.5t78 -34.5q48 -1 81 13t47 31.5 t28 45.5q6 16 10 65q1 23 17 38t39 17q55 4 86 2q19 0 32 -13t13 -32q-1 -3 -0.5 -41t0.5 -40q0 -41 -33 -91t-72 -84q-43 -34 -94 -51.5t-103 -17t-83.5 4.5t-71.5 13q-92 21 -151.5 99t-82 179t-25 217.5zM293 713q-2 -20 11.5 -34.5t35.5 -14.5h221q24 0 38 19t11 46 q0 34 -2 59t-9 59t-24.5 60.5t-44.5 42.5q-30 19 -69 22t-77 -16t-58 -59q-21 -44 -33 -184zM405 1297.5q0 16.5 4.5 28t10.5 20.5q98 165 135 223q51 72 123 20q34 -25 37.5 -57.5t-25.5 -61.5q-84 -83 -201 -186q-16 -15 -36.5 -19t-36.5 7q-11 9 -11 25.5z" />
<glyph unicode="&#xea;" horiz-adv-x="890" d="M83.5 505.5q-2.5 116.5 10 213t33.5 166.5q77 258 328 264q40 2 81.5 -10.5t87.5 -41.5t87.5 -87t68.5 -138q16 -48 23 -132.5t4 -164.5q0 -30 -21.5 -50.5t-52.5 -22.5l-407 -4q-39 -3 -39 -45q0 -40 7.5 -86.5t24 -97.5t49.5 -84.5t78 -34.5q48 -1 81 13t47 31.5 t28 45.5q6 16 10 65q1 23 17 38t39 17q55 4 86 2q19 0 32 -13t13 -32q-1 -3 -0.5 -41t0.5 -40q0 -41 -33 -91t-72 -84q-43 -34 -94 -51.5t-103 -17t-83.5 4.5t-71.5 13q-92 21 -151.5 99t-82 179t-25 217.5zM196.5 1315q0.5 18 11.5 34t32 37q29 28 56.5 52t52 44t34.5 29 q35 31 70 31q18 0 30 -4.5t16.5 -8.5t18.5 -18q25 -24 75.5 -67t90.5 -82q52 -49 8 -86q-11 -10 -24 -11.5t-28.5 6t-25.5 14.5t-26 20q-39 30 -121 81q-15 6 -27 0q-61 -34 -118 -73q-9 -6 -26.5 -19t-24 -17t-18 -8t-20.5 -0.5t-20 13.5q-17 15 -16.5 33zM293 713 q-2 -20 11.5 -34.5t35.5 -14.5h221q24 0 38 19t11 46q0 34 -2 59t-9 59t-24.5 60.5t-44.5 42.5q-30 19 -69 22t-77 -16t-58 -59q-21 -44 -33 -184z" />
<glyph unicode="&#xeb;" horiz-adv-x="890" d="M83.5 505.5q-2.5 116.5 10 213t33.5 166.5q77 258 328 264q40 2 81.5 -10.5t87.5 -41.5t87.5 -87t68.5 -138q16 -48 23 -132.5t4 -164.5q0 -30 -21.5 -50.5t-52.5 -22.5l-407 -4q-39 -3 -39 -45q0 -40 7.5 -86.5t24 -97.5t49.5 -84.5t78 -34.5q48 -1 81 13t47 31.5 t28 45.5q6 16 10 65q1 23 17 38t39 17q55 4 86 2q19 0 32 -13t13 -32q-1 -3 -0.5 -41t0.5 -40q0 -41 -33 -91t-72 -84q-43 -34 -94 -51.5t-103 -17t-83.5 4.5t-71.5 13q-92 21 -151.5 99t-82 179t-25 217.5zM174 1368q-1 57 26.5 80t90.5 20q28 0 48 -8t30 -18t14.5 -26.5 t5 -26.5t-0.5 -27t-1 -19q0 -63 -123 -59q-49 3 -68 21.5t-22 62.5zM293 713q-2 -20 11.5 -34.5t35.5 -14.5h221q24 0 38 19t11 46q0 34 -2 59t-9 59t-24.5 60.5t-44.5 42.5q-30 19 -69 22t-77 -16t-58 -59q-21 -44 -33 -184zM496 1368q-3 57 24 80t92 20q21 0 37.5 -5 t27 -11t17.5 -17t10 -18.5t4.5 -21t1 -19.5t-1.5 -19t-1 -14q0 -63 -123 -59q-49 3 -67.5 21.5t-20.5 62.5z" />
<glyph unicode="&#xec;" horiz-adv-x="544" d="M-19.5 1540q3.5 32 37.5 57q72 52 121 -20q27 -40 48 -73t31.5 -51t28.5 -49t29 -50q6 -9 11 -20.5t5 -28t-11 -25.5q-19 -11 -38.5 -7t-35.5 19q-106 94 -201 187q-29 29 -25.5 61zM76 41l8 94q0 10 9 18.5t20 8.5h32q12 0 21.5 9.5t9.5 21.5v753q0 12 -8.5 20.5 t-20.5 8.5l-28 2q-12 0 -20.5 8.5t-8.5 20.5l-4 94q0 12 8.5 21t20.5 9h235q12 0 21.5 -8t9.5 -20l16 -909q2 -12 10.5 -20.5t20.5 -8.5l25 -2q11 0 19.5 -8.5t8.5 -20.5l2 -94q0 -13 -9 -22t-21 -9h-314q-16 0 -39.5 10.5t-23.5 22.5z" />
<glyph unicode="&#xed;" horiz-adv-x="530" d="M61 41l9 94q0 10 8.5 18.5t19.5 8.5h33q12 0 21.5 9.5t9.5 21.5v753q0 12 -8.5 20.5t-20.5 8.5l-29 2q-12 0 -20 8.5t-8 20.5l-4 94q0 12 8 21t20 9h236q12 0 21.5 -8t9.5 -20l16 -909q2 -12 10.5 -20.5t20.5 -8.5l24 -2q11 0 20 -8.5t9 -20.5l2 -94q0 -13 -9.5 -22 t-21.5 -9h-313q-16 0 -40 10.5t-24 22.5zM212 1309.5q0 16.5 4.5 28t10.5 20.5q98 165 135 223q52 72 123 21q34 -25 38 -57t-25 -62q-95 -93 -201 -187q-16 -14 -37 -18.5t-37 6.5q-11 9 -11 25.5z" />
<glyph unicode="&#xee;" horiz-adv-x="641" d="M80 1294q-42 37 26 105q29 28 57 52t52.5 44t34.5 29q34 30 69 30q18 0 30 -4t17.5 -8.5t18.5 -17.5q24 -22 74.5 -66t91.5 -84q52 -49 8 -86q-11 -10 -24 -11.5t-28.5 6t-25.5 14.5t-26 20q-45 35 -121 82q-15 6 -27 0q-59 -33 -119 -74q-9 -6 -26.5 -19t-24 -17 t-17.5 -8t-20 -0.5t-20 13.5zM143 41l9 94q0 10 8.5 18.5t19.5 8.5h33q12 0 21.5 9.5t9.5 21.5v753q0 12 -8.5 20.5t-20.5 8.5l-29 2q-12 0 -20 8.5t-8 20.5l-4 94q0 12 8 21t20 9h236q12 0 21.5 -8t9.5 -20l16 -909q2 -12 10.5 -20.5t20.5 -8.5l24 -2q11 0 20 -8.5t9 -20.5 l2 -94q0 -13 -9.5 -22t-21.5 -9h-313q-16 0 -40 10.5t-24 22.5z" />
<glyph unicode="&#xef;" horiz-adv-x="661" d="M63 1374q-1 57 26.5 80.5t90.5 20.5q28 0 48 -8t30 -18t14.5 -26.5t5 -26.5t-0.5 -27t-1 -19q0 -34 -35.5 -48t-86.5 -12q-49 3 -68.5 21.5t-22.5 62.5zM162 41l8 94q0 10 9 18.5t20 8.5h32q12 0 21.5 9.5t9.5 21.5v753q0 12 -8.5 20.5t-20.5 8.5l-28 2q-12 0 -20.5 8.5 t-8.5 20.5l-4 94q0 12 8.5 21t20.5 9h235q12 0 21.5 -8t9.5 -20l16 -909q2 -12 10.5 -20.5t20.5 -8.5l25 -2q11 0 19.5 -8.5t8.5 -20.5l2 -94q0 -13 -9 -22t-21 -9h-314q-16 0 -39.5 10.5t-23.5 22.5zM385 1374q-3 57 24.5 80.5t92.5 20.5q21 0 37.5 -5t27 -11t17.5 -16.5 t10 -18.5t4 -21.5t0.5 -20t-1.5 -18.5t-1 -14q0 -34 -35.5 -48t-87.5 -12q-49 3 -67.5 21.5t-20.5 62.5z" />
<glyph unicode="&#xf0;" horiz-adv-x="897" d="M84 393q0 232 20 295q17 52 34.5 90t38.5 62.5t31.5 34t31.5 26.5q58 51 196 45q70 -1 107 -13t71 -40q2 -2 4.5 -0.5t2.5 4.5q-9 131 -183 264q-6 5 -14 3t-12 -9l-39 -57q-24 -34 -38.5 -40.5t-39.5 7.5q-24 15 -25.5 34t19.5 50l39 59q5 6 3 15t-9 12q-50 27 -89 41 q-51 20 -68 39.5t-5 44.5q5 10 12.5 14.5t21 3.5t22.5 -2.5t32.5 -8t36.5 -9.5q6 -2 41 -12t63 -19q14 -4 23 8q10 16 21.5 34t19 30t10.5 16q28 43 65 17l15 -11q15 -9 15 -26t-13 -35l-37 -57q-11 -19 6 -29q33 -15 92 -53q42 -29 75 -65.5t54.5 -73t36.5 -85.5 t22.5 -89.5t12 -98.5t5.5 -99.5t1 -105.5v-5v-4.5v-4.5v-58.5v-59t-1 -50.5t-2.5 -53t-4.5 -46t-7.5 -49t-11 -43.5t-15.5 -48t-20.5 -43t-25.5 -47.5q-55 -91 -219 -110q-15 0 -41.5 -1.5t-65 5t-76 17t-75.5 35t-62 58.5q-46 66 -59.5 93t-30.5 90q-12 54 -12 114z M278 476.5q1 -57.5 4.5 -87.5t9 -58t5.5 -34q2 -59 41.5 -109.5t105.5 -50.5q38 0 65.5 12.5t44 37t25 44.5t17.5 50q41 174 12 344q-13 79 -61 139q-30 36 -100 41t-103 -37q-30 -41 -42 -78t-17 -90q-8 -66 -7 -123.5z" />
<glyph unicode="&#xf1;" horiz-adv-x="1050" d="M61 1018v59q0 20 13 32.5t32 12.5h205q20 0 34.5 -14.5t16.5 -34.5v-12q0 -3 3 -4.5t6 0.5q40 42 80 57.5t100 15.5q78 0 137.5 -20.5t93 -49.5t54.5 -70.5t28 -74.5t8 -69q11 -518 15 -658q0 -15 11 -25.5t28 -10.5l24 -2q15 0 26 -11t11 -26l2 -74q0 -17 -11.5 -28 t-27.5 -11h-327q-16 0 -27.5 11t-11.5 28v74q0 16 11 27.5t28 11.5h12q16 0 27.5 10.5t11.5 27.5l-12 668q-3 66 -50.5 97t-111 24.5t-117.5 -41.5q-16 -10 -16 -31v-719q0 -15 11 -25.5t28 -10.5l26 -2q17 0 28 -11t11 -28v-72q0 -17 -11.5 -28t-27.5 -11h-317 q-16 0 -27.5 11t-11.5 28l2 74q0 15 11 26t26 11h10q17 0 28 11.5t11 26.5l-6 740q0 18 -11.5 30.5t-29.5 14.5h-13q-18 2 -30.5 14.5t-12.5 30.5zM156 1335q9 53 31 90t51 54t54.5 23.5t51.5 6.5q61 2 143 -63q59 -45 91 -45q58 0 77 61q8 27 23.5 36.5t50.5 6.5 q33 -3 51.5 -19.5t12.5 -43.5q-12 -50 -34.5 -83t-53.5 -47.5t-57.5 -19t-61.5 -4.5q-14 0 -27.5 2.5t-27.5 8t-24 10t-24.5 14t-21 13.5t-21.5 15t-18 13q-41 29 -81.5 15t-59.5 -64q-12 -40 -74 -29q-31 6 -42.5 17.5t-8.5 31.5z" />
<glyph unicode="&#xf2;" horiz-adv-x="958" d="M85 621.5q6 101.5 35 196.5t77 168t122 117t164 44q77 0 140 -28t105 -75t72.5 -110.5t46.5 -132t23 -143t6 -139t-8 -124.5q-12 -107 -45.5 -189.5t-82 -131.5t-109.5 -77t-127.5 -25.5t-136.5 22.5q-74 25 -132 88.5t-92.5 148.5t-49 187t-8.5 203.5zM228.5 1556.5 q3.5 32.5 37.5 57.5q32 24 64.5 19.5t56.5 -40.5q27 -40 48 -73t31.5 -51t28.5 -49t29 -50q6 -9 10.5 -20.5t4.5 -28t-11 -25.5q-33 -23 -73 13q-117 103 -201 186q-29 29 -25.5 61.5zM274 614q0 -82 11.5 -162.5t35 -151.5t64 -115t92.5 -44q113 0 157 114t44 357 q0 190 -58.5 278.5t-142.5 88.5q-89 0 -146 -111.5t-57 -253.5z" />
<glyph unicode="&#xf3;" horiz-adv-x="958" d="M85 621.5q6 101.5 35 196.5t77 168t122 117t164 44q77 0 140 -28t105 -75t72.5 -110.5t46.5 -132t23 -143t6 -139t-8 -124.5q-12 -107 -45.5 -189.5t-82 -131.5t-109.5 -77t-127.5 -25.5t-136.5 22.5q-74 25 -132 88.5t-92.5 148.5t-49 187t-8.5 203.5zM274 614 q0 -82 11.5 -162.5t35 -151.5t64 -115t92.5 -44q113 0 157 114t44 357q0 190 -58.5 278.5t-142.5 88.5q-89 0 -146 -111.5t-57 -253.5zM456 1317.5q0 16.5 4.5 28t10.5 20.5q98 165 135 223q52 72 123 21q34 -25 37.5 -57.5t-25.5 -61.5q-94 -92 -200 -186 q-16 -15 -37 -19.5t-37 6.5q-11 9 -11 25.5z" />
<glyph unicode="&#xf4;" horiz-adv-x="958" d="M85 621.5q6 101.5 35 196.5t77 168t122 117t164 44q77 0 140 -28t105 -75t72.5 -110.5t46.5 -132t23 -143t6 -139t-8 -124.5q-12 -107 -45.5 -189.5t-82 -131.5t-109.5 -77t-127.5 -25.5t-136.5 22.5q-74 25 -132 88.5t-92.5 148.5t-49 187t-8.5 203.5zM227 1300 q-41 37 27 105q29 28 56.5 52t52 44t34.5 29q35 31 70 31q18 0 30 -4.5t16.5 -8.5t18.5 -18q24 -22 74.5 -66t91.5 -84q52 -49 9 -86q-11 -10 -24.5 -11.5t-29 6t-26 15t-25.5 19.5q-45 35 -121 82q-14 6 -26 0q-59 -33 -119 -74q-9 -6 -26.5 -19t-24 -17t-18 -8t-20.5 -0.5 t-20 13.5zM274 614q0 -82 11.5 -162.5t35 -151.5t64 -115t92.5 -44q113 0 157 114t44 357q0 190 -58.5 278.5t-142.5 88.5q-89 0 -146 -111.5t-57 -253.5z" />
<glyph unicode="&#xf5;" horiz-adv-x="958" d="M85 629.5q6 101.5 35 196.5t77 168t122 117t164 44q77 0 140 -28t105 -75t72.5 -110.5t46.5 -132t23 -143t6 -139t-8 -124.5q-12 -107 -45.5 -189.5t-82 -131.5t-109.5 -77t-127.5 -25.5t-136.5 22.5q-74 25 -132 88.5t-92.5 148.5t-49 187t-8.5 203.5zM174 1325 q9 53 31 90t51 54t54.5 23.5t51.5 6.5q62 2 144 -63q59 -45 90 -45q25 0 46.5 15t31.5 46q8 27 23.5 36.5t50.5 6.5q32 -3 50.5 -19.5t12.5 -43.5q-12 -50 -34.5 -83t-53.5 -47.5t-57.5 -19t-61.5 -4.5q-14 0 -27.5 2.5t-27.5 8t-24 10t-24.5 14t-21 13.5t-21.5 15t-18 13 q-41 29 -81.5 15t-59.5 -64q-12 -40 -74 -29q-31 6 -42.5 17.5t-8.5 31.5zM274 623q0 -82 11.5 -162.5t35 -151.5t64 -115t92.5 -44q113 0 157 114t44 357q0 190 -58.5 278t-142.5 88q-89 0 -146 -111t-57 -253z" />
<glyph unicode="&#xf6;" horiz-adv-x="958" d="M85 621.5q6 101.5 35 196.5t77 168t122 117t164 44q77 0 140 -28t105 -75t72.5 -110.5t46.5 -132t23 -143t6 -139t-8 -124.5q-12 -107 -45.5 -189.5t-82 -131.5t-109.5 -77t-127.5 -25.5t-136.5 22.5q-74 25 -132 88.5t-92.5 148.5t-49 187t-8.5 203.5zM207 1370 q-1 57 26.5 80t90.5 20q28 0 48 -8t30 -17.5t14.5 -26t5 -26.5t-0.5 -27t-1 -19q0 -34 -36 -48t-87 -12q-49 3 -68 21.5t-22 62.5zM274 614q0 -82 11.5 -162.5t35 -151.5t64 -115t92.5 -44q113 0 157 114t44 357q0 190 -58.5 278.5t-142.5 88.5q-89 0 -146 -111.5 t-57 -253.5zM528 1370q-3 57 24.5 80t92.5 20q21 0 37.5 -4.5t27 -11t17.5 -17t10 -18.5t4 -21t0.5 -19.5t-1.5 -18.5t-1 -14q0 -34 -35.5 -48t-87.5 -12q-49 3 -67.5 21.5t-20.5 62.5z" />
<glyph unicode="&#xf7;" horiz-adv-x="827" d="M63 651q0 22 1.5 32.5t7.5 23.5t21 18.5t40 5.5q23 0 287 -1t293 -1q53 0 53 -76q0 -31 -15 -46.5t-51 -16.5q-37 -3 -278.5 -3.5t-284.5 1.5q-46 1 -61 16t-13 47zM332 969q-5 75 53 75q16 0 37.5 -1t40.5 -1q26 -1 36.5 -25t8.5 -56q-4 -60 -86 -60q-46 0 -66.5 14.5 t-23.5 53.5zM334 334q0 72 51 72q50 3 78 0q41 -3 47 -52q0 -6 -1 -20t-1 -23q0 -18 -12.5 -32t-32.5 -15h-68q-32 0 -46.5 15.5t-14.5 54.5z" />
<glyph unicode="&#xf9;" horiz-adv-x="1093" d="M61 1010v71q0 18 12.5 30.5t30.5 12.5l236 -2q19 0 31 -12t12 -31q-1 -50 -2 -231t-2 -211q1 -27 -2.5 -178.5t-1.5 -202.5q3 -65 57.5 -97t124.5 -26.5t127 37.5q23 13 23 41v717q0 17 -12 29t-29 12h-2q-17 2 -29 14t-12 29v69q0 18 12.5 30.5t30.5 12.5h198 q19 0 31 -12t12 -29l11 -886q0 -19 13 -31t32 -12h26q17 0 30 -13t13 -30v-64q0 -18 -12.5 -30.5t-30.5 -12.5l-233 -6q-18 -1 -30.5 11.5t-14.5 31.5v2q0 6 -5.5 8t-9.5 -2q-73 -63 -215 -63q-78 0 -137.5 20t-92.5 49t-53.5 69t-26.5 73t-7 69q-3 156 4 658q0 19 -12 31 t-31 12h-21q-18 0 -30.5 12.5t-12.5 30.5zM257.5 1542q3.5 32 37.5 57q72 52 121 -20q27 -40 48 -73t31.5 -51t28.5 -49t29 -50q6 -9 10.5 -20.5t4.5 -28t-11 -25.5q-19 -11 -38.5 -7t-35.5 19q-95 84 -200 187q-29 29 -25.5 61z" />
<glyph unicode="&#xfa;" horiz-adv-x="1093" d="M61 1010v71q0 18 12.5 30.5t30.5 12.5l236 -2q19 0 31 -12t12 -31q-1 -50 -2 -231t-2 -211q1 -27 -2.5 -178.5t-1.5 -202.5q3 -65 57.5 -97t124.5 -26.5t127 37.5q23 13 23 41v717q0 17 -12 29t-29 12h-2q-17 2 -29 14t-12 29v69q0 18 12.5 30.5t30.5 12.5h198 q19 0 31 -12t12 -29l11 -886q0 -19 13 -31t32 -12h26q17 0 30 -13t13 -30v-64q0 -18 -12.5 -30.5t-30.5 -12.5l-233 -6q-18 -1 -30.5 11.5t-14.5 31.5v2q0 6 -5.5 8t-9.5 -2q-73 -63 -215 -63q-78 0 -137.5 20t-92.5 49t-53.5 69t-26.5 73t-7 69q-3 156 4 658q0 19 -12 31 t-31 12h-21q-18 0 -30.5 12.5t-12.5 30.5zM407 1235.5q0 16.5 4.5 28t10.5 20.5q98 165 135 223q52 72 123 21q34 -25 37.5 -57.5t-25.5 -61.5q-94 -92 -200 -186q-16 -15 -37 -19.5t-37 6.5q-11 9 -11 25.5z" />
<glyph unicode="&#xfb;" horiz-adv-x="1093" d="M61 1010v71q0 18 12.5 30.5t30.5 12.5l236 -2q19 0 31 -12t12 -31q-1 -50 -2 -231t-2 -211q1 -27 -2.5 -178.5t-1.5 -202.5q3 -65 57.5 -97t124.5 -26.5t127 37.5q23 13 23 41v717q0 17 -12 29t-29 12h-2q-17 2 -29 14t-12 29v69q0 18 12.5 30.5t30.5 12.5h198 q19 0 31 -12t12 -29l11 -886q0 -19 13 -31t32 -12h26q17 0 30 -13t13 -30v-64q0 -18 -12.5 -30.5t-30.5 -12.5l-233 -6q-18 -1 -30.5 11.5t-14.5 31.5v2q0 6 -5.5 8t-9.5 -2q-73 -63 -215 -63q-78 0 -137.5 20t-92.5 49t-53.5 69t-26.5 73t-7 69q-3 156 4 658q0 19 -12 31 t-31 12h-21q-18 0 -30.5 12.5t-12.5 30.5zM256 1204q-41 37 27 105q29 28 56.5 52t52 44t34.5 29q34 30 70 30q18 0 30 -4t17 -8.5t18 -17.5q24 -22 74.5 -66t91.5 -84q52 -49 8 -86q-11 -10 -24 -11.5t-28.5 6t-25.5 14.5t-26 20q-45 35 -121 82q-15 6 -27 0 q-53 -30 -118 -74q-9 -6 -26.5 -19t-24 -17t-18 -8t-20.5 -0.5t-20 13.5z" />
<glyph unicode="&#xfc;" horiz-adv-x="1093" d="M61 1010v71q0 18 12.5 30.5t30.5 12.5l236 -2q19 0 31 -12t12 -31q-1 -50 -2 -231t-2 -211q1 -27 -2.5 -178.5t-1.5 -202.5q3 -65 57.5 -97t124.5 -26.5t127 37.5q23 13 23 41v717q0 17 -12 29t-29 12h-2q-17 2 -29 14t-12 29v69q0 18 12.5 30.5t30.5 12.5h198 q19 0 31 -12t12 -29l11 -886q0 -19 13 -31t32 -12h26q17 0 30 -13t13 -30v-64q0 -18 -12.5 -30.5t-30.5 -12.5l-233 -6q-18 -1 -30.5 11.5t-14.5 31.5v2q0 6 -5.5 8t-9.5 -2q-73 -63 -215 -63q-78 0 -137.5 20t-92.5 49t-53.5 69t-26.5 73t-7 69q-3 156 4 658q0 19 -12 31 t-31 12h-21q-18 0 -30.5 12.5t-12.5 30.5zM258 1362q-1 57 26.5 80t90.5 20q28 0 48 -8t30 -18t14.5 -26.5t5 -26.5t-0.5 -27t-1 -19q0 -63 -123 -59q-49 3 -68 21.5t-22 62.5zM580 1362q-3 57 24 80t92 20q21 0 37.5 -5t27 -11t17.5 -17t10 -18.5t4.5 -21t1 -19.5t-1.5 -19 t-1 -14q0 -63 -123 -59q-49 3 -67.5 21.5t-20.5 62.5z" />
<glyph unicode="&#xfd;" horiz-adv-x="1013" d="M20 1026l3 43q0 22 14.5 36.5t36.5 14.5l233 -2q23 0 38 -16t13 -39l-6 -68q-2 -26 -49 -26q-4 0 -7 -4t-1 -9q162 -593 209 -710q2 -6 8 -5t8 7q15 51 51 205t71.5 310.5t39.5 172.5q3 10 -3 19.5t-15 11.5l-19 2q-20 3 -33.5 18t-13.5 37l-2 43q0 22 14.5 37.5 t36.5 15.5h291q24 1 39.5 -16t13.5 -41l-6 -47q-3 -22 -18 -35.5t-37 -15.5h-15q-12 0 -21.5 -8t-12.5 -19l-103 -406q-33 -100 -108 -406t-121 -423q-29 -80 -79 -131.5t-100 -72t-108 -24.5t-95.5 1.5t-70.5 15.5q-2 1 -9 4t-10 4.5t-8.5 5.5t-7 8t-4.5 11t-3 16t1.5 21.5 t5.5 27.5q9 38 30 51.5t48 2.5q85 -10 140 7t86 85q25 51 45 270q0 17 -4 23l-304 917q-7 21 -26 21q-23 2 -39.5 19t-16.5 40zM452 1313.5q0 16.5 4.5 28t10.5 20.5q98 165 135 223q52 72 123 21q34 -25 37.5 -57.5t-25.5 -61.5q-105 -103 -200 -187q-16 -14 -37 -18.5 t-37 6.5q-11 9 -11 25.5z" />
<glyph unicode="&#xfe;" horiz-adv-x="954" d="M41 -465l2 70q0 19 12 31t31 14h33q19 0 33 13.5t14 33.5l8 1620q0 12 -9.5 20.5t-21.5 8.5l-47 2q-12 0 -21 8t-9 20l-3 92q0 14 10 24.5t25 10.5l228 2q15 0 24.5 -10.5t9.5 -24.5v-454q0 -3 2 -4t4 -0.5t3 2.5q31 47 81 67.5t103.5 15t109 -34t99.5 -73.5t73 -111 t31 -139q1 -19 2 -57q0 -86 3.5 -176.5t-13.5 -180t-47 -162t-98.5 -122.5t-167.5 -61q-103 -13 -170 57q-5 5 -11.5 2.5t-5.5 -8.5v-336q0 -20 14 -33.5t34 -13.5h30q19 0 32.5 -14.5t12.5 -34.5v-62q-1 -20 -14.5 -33.5t-32.5 -13.5h-348q-19 0 -32 13t-13 32zM362 848 q0 -87 1.5 -319.5t1.5 -325.5q0 -26 20 -39q37 -23 77.5 -29t84 14t74.5 68q14 22 22.5 55t11 77.5t2.5 78.5t-1 88t-1 76q0 127 -53 235q-53 110 -124 109q-55 0 -109 -72q-7 -7 -7 -16z" />
<glyph unicode="&#xff;" horiz-adv-x="1013" d="M20 1026l3 43q0 22 14.5 36.5t36.5 14.5l233 -2q23 0 38 -16t13 -39l-6 -68q-2 -26 -49 -26q-4 0 -7 -4t-1 -9q162 -593 209 -710q2 -6 8 -5t8 7q15 51 51 205t71.5 310.5t39.5 172.5q3 10 -3 19.5t-15 11.5l-19 2q-20 3 -33.5 18t-13.5 37l-2 43q0 22 14.5 37.5 t36.5 15.5h291q24 1 39.5 -16t13.5 -41l-6 -47q-3 -22 -18 -35.5t-37 -15.5h-15q-12 0 -21.5 -8t-12.5 -19l-103 -406q-33 -100 -108 -406t-121 -423q-29 -80 -79 -131.5t-100 -72t-108 -24.5t-95.5 1.5t-70.5 15.5q-2 1 -9 4t-10 4.5t-8.5 5.5t-7 8t-4.5 11t-3 16t1.5 21.5 t5.5 27.5q9 38 30 51.5t48 2.5q85 -10 140 7t86 85q25 51 45 270q0 17 -4 23l-304 917q-7 21 -26 21q-23 2 -39.5 19t-16.5 40zM227 1358q-1 57 26.5 80t90.5 20q28 0 48 -8t30 -18t14.5 -26.5t5 -26.5t-0.5 -27t-1 -19q0 -63 -123 -59q-49 3 -68 21.5t-22 62.5zM549 1358 q-3 57 24.5 80t92.5 20q21 0 37.5 -5t27 -11t17.5 -16.5t10 -18.5t4 -21.5t0.5 -20t-1.5 -18.5t-1 -14q0 -63 -123 -59q-49 3 -67.5 21.5t-20.5 62.5z" />
<glyph unicode="&#x178;" horiz-adv-x="1110" d="M43 1386q0 20 13 34t32 14h281q19 0 32 -13t13 -32l2 -70q0 -19 -13 -32t-32 -13h-17q-7 0 -11 -6.5t-1 -12.5l211 -419q5 -6 12.5 -6.5t12.5 6.5l247 415q3 6 0 13t-10 8h-39q-19 2 -32 15t-13 32l2 67q2 19 14.5 32.5t30.5 13.5h287q19 0 32 -14t13 -34v-69 q0 -18 -12.5 -30.5t-30.5 -12.5q-26 -3 -39 -23l-364 -657q-7 -14 -7 -25l7 -364q0 -19 12 -32t31 -13l24 -2q19 0 31 -12t12 -31l2 -66q0 -19 -12.5 -32t-32.5 -13h-340q-19 0 -32 13t-15 32v64q0 19 13 32t32 13h21q19 2 32 14.5t13 30.5v374q0 7 -4 23l-314 651 q-10 19 -35 23h-14q-19 0 -31 13t-12 32zM309 1665q-1 57 26.5 80t90.5 20q28 0 48 -8t30 -18t14.5 -26.5t5 -26.5t-0.5 -27t-1 -19q0 -63 -123 -59q-49 3 -68 21.5t-22 62.5zM631 1665q-3 57 24.5 80t92.5 20q21 0 37.5 -5t27 -11t17.5 -16.5t10 -18.5t4 -21.5t0.5 -20 t-1.5 -18.5t-1 -14q0 -63 -123 -59q-49 3 -67.5 21.5t-20.5 62.5z" />
<glyph unicode="&#x2c6;" horiz-adv-x="641" d="M63.5 1295q0.5 18 11 34t31.5 37q29 28 57 52t52.5 44t34.5 29q13 12 17.5 15.5t19.5 9.5t32 6q18 0 30 -4.5t17.5 -9t18.5 -17.5q24 -22 74.5 -66t91.5 -84q52 -49 8 -86q-11 -10 -24 -11.5t-28.5 6t-25.5 14.5t-26 20q-45 35 -121 82q-15 6 -27 0q-59 -33 -119 -74 q-9 -6 -26.5 -19t-23.5 -16.5t-17.5 -7.5t-20.5 -0.5t-20 13.5q-17 15 -16.5 33z" />
<glyph unicode="&#x2dc;" horiz-adv-x="763" d="M63 1311q9 53 31 90t51.5 54t55 23.5t51.5 6.5q60 2 143 -64q59 -45 90 -45q24 0 46 15.5t32 46.5q8 27 23.5 36.5t50.5 6.5q32 -3 50.5 -20t12.5 -44q-10 -41 -27.5 -70t-36.5 -45t-45.5 -25t-47.5 -11t-49 -2q-14 0 -27 2t-28 8t-23.5 9.5t-25 14t-21 13.5t-21.5 15 l-18 13q-41 29 -82 15t-60 -64q-4 -12 -9.5 -18.5t-21.5 -11t-42 1.5q-31 6 -43 18t-9 31z" />
<glyph unicode="&#x2000;" horiz-adv-x="959" />
<glyph unicode="&#x2001;" horiz-adv-x="1919" />
<glyph unicode="&#x2002;" horiz-adv-x="959" />
<glyph unicode="&#x2003;" horiz-adv-x="1919" />
<glyph unicode="&#x2004;" horiz-adv-x="639" />
<glyph unicode="&#x2005;" horiz-adv-x="479" />
<glyph unicode="&#x2006;" horiz-adv-x="319" />
<glyph unicode="&#x2007;" horiz-adv-x="319" />
<glyph unicode="&#x2008;" horiz-adv-x="239" />
<glyph unicode="&#x2009;" horiz-adv-x="383" />
<glyph unicode="&#x200a;" horiz-adv-x="106" />
<glyph unicode="&#x2010;" horiz-adv-x="763" d="M43 612q-1 23 0.5 36t7.5 27.5t21.5 20.5t40.5 6q22 0 275.5 -1t281.5 -1q16 0 26.5 -7.5t15.5 -22.5t6.5 -28.5t2.5 -35.5q2 -36 -13 -53t-51 -18q-40 -1 -267 -1t-271 1q-48 0 -61 16.5t-15 60.5z" />
<glyph unicode="&#x2011;" horiz-adv-x="763" d="M43 612q-1 23 0.5 36t7.5 27.5t21.5 20.5t40.5 6q22 0 275.5 -1t281.5 -1q16 0 26.5 -7.5t15.5 -22.5t6.5 -28.5t2.5 -35.5q2 -36 -13 -53t-51 -18q-40 -1 -267 -1t-271 1q-48 0 -61 16.5t-15 60.5z" />
<glyph unicode="&#x2012;" horiz-adv-x="763" d="M43 612q-1 23 0.5 36t7.5 27.5t21.5 20.5t40.5 6q22 0 275.5 -1t281.5 -1q16 0 26.5 -7.5t15.5 -22.5t6.5 -28.5t2.5 -35.5q2 -36 -13 -53t-51 -18q-40 -1 -267 -1t-271 1q-48 0 -61 16.5t-15 60.5z" />
<glyph unicode="&#x2013;" horiz-adv-x="980" d="M43 612q-1 23 0.5 36t7.5 27.5t22 20.5t42 6q22 0 383 -1t391 -1q16 0 26.5 -7.5t15.5 -22.5t6.5 -28.5t2.5 -35.5q0 -36 -14 -53t-49 -18q-40 -1 -377 -1t-381 1q-48 0 -61 16.5t-15 60.5z" />
<glyph unicode="&#x2014;" horiz-adv-x="1239" d="M43 612q-1 23 0.5 36t7.5 27.5t22 20.5t42 6q22 0 512 -1t520 -1q16 0 26.5 -7.5t15.5 -22.5t6.5 -28.5t2.5 -35.5q0 -36 -14 -53t-49 -18q-40 -1 -506 -1t-510 1q-48 0 -61 16.5t-15 60.5z" />
<glyph unicode="&#x2018;" horiz-adv-x="413" d="M82 1106q0 69 18 106q25 49 88 142q26 45 56 80q10 12 25 15t24 -5q21 -15 14 -45q-1 -4 -9.5 -24.5t-15.5 -38.5t-14.5 -42t-7 -35t7.5 -18q29 -7 47 -27q12 -18 14.5 -74t-1.5 -79q-3 -22 -11.5 -36.5t-19 -22.5t-30 -11.5t-35 -4.5t-44.5 -1q-106 0 -106 121z" />
<glyph unicode="&#x2019;" horiz-adv-x="413" d="M83.5 1269q-2.5 57 2.5 79q3 22 11.5 36.5t18.5 22t30 11.5t35 4.5t44 0.5q107 0 107 -120q0 -68 -19 -107q-23 -44 -88 -141q-28 -48 -55 -80q-10 -12 -25 -15t-24 5q-22 15 -15 45q1 4 9.5 24t15.5 38t14.5 42t7 35t-7.5 18q-29 7 -47 27q-12 18 -14.5 75z" />
<glyph unicode="&#x201a;" horiz-adv-x="413" d="M84 93q-3 56 2 79q7 51 39 64.5t100 11.5q107 0 107 -119q0 -67 -19 -109q-27 -52 -88 -141q-35 -57 -55 -80q-9 -11 -23.5 -13t-25.5 5q-21 18 -12 43q1 5 8.5 24.5t14.5 39t13.5 42t6.5 35t-7 17.5q-32 7 -45 28q-13 17 -16 73z" />
<glyph unicode="&#x201c;" horiz-adv-x="731" d="M82 1067q0 69 18 109q19 34 88 141q28 45 56 78q9 12 24.5 15t24.5 -5q22 -16 12 -43q-1 -5 -8.5 -24.5l-15 -39t-14 -42t-6.5 -35t7 -17.5q33 -11 45 -28q13 -18 16.5 -74t-1.5 -80q-4 -26 -14.5 -42t-31 -23t-40 -9t-54.5 -2q-49 2 -77.5 28.5t-28.5 92.5zM399 1067 q0 67 19 109q19 34 88 141q31 50 55 78q10 12 25 15t24 -5q22 -16 15 -43q-1 -4 -6 -15.5t-10 -24.5t-11 -29t-10.5 -30.5t-7 -27.5t-1.5 -21t7 -10q32 -11 47 -28q12 -18 14.5 -74t-2.5 -80q-4 -26 -14 -42t-30.5 -23t-40 -9t-54.5 -2q-107 4 -107 121z" />
<glyph unicode="&#x201d;" horiz-adv-x="731" d="M83.5 1255.5q-2.5 55.5 2.5 79.5q4 27 14 43t31 23t39.5 8.5t54.5 1.5q107 -4 107 -121q0 -67 -19 -106q-20 -40 -88 -144q-28 -46 -55 -77q-10 -12 -25 -15.5t-24 4.5q-22 16 -15 43l10 25t15 39t14 42.5t7 35.5t-7 18q-29 7 -47 27q-12 18 -14.5 73.5zM401.5 1255.5 q-3.5 55.5 1.5 79.5q3 22 11.5 36.5t19 22.5t30 11.5t35 4.5t44.5 1q49 -2 77.5 -28.5t28.5 -92.5q0 -69 -18 -106q-20 -40 -88 -144q-26 -41 -56 -77q-9 -12 -24.5 -15.5t-24.5 4.5q-22 16 -12 43q1 6 8.5 25.5l15 39t14 42t6.5 35.5t-7 18q-31 7 -45 27q-13 18 -16.5 73.5 z" />
<glyph unicode="&#x201e;" horiz-adv-x="733" d="M84.5 91q-2.5 56 3.5 79q3 27 13 43.5t30 23.5t40 8.5t54 0.5q109 0 109 -119q0 -68 -21 -109q-12 -27 -86 -141q-47 -69 -57 -80q-9 -11 -23.5 -13t-25.5 5q-21 18 -12 43q1 3 6 15t9.5 25t10.5 29t10 30.5t6 27.5t1 21t-7 10q-32 7 -45 28q-13 17 -15.5 73zM403.5 91 q-2.5 56 2.5 79q3 27 13.5 43.5t31 23.5t40.5 8.5t54 0.5q106 0 106 -119q0 -70 -20 -109q-12 -27 -86 -141q-33 -53 -56 -80q-11 -11 -25.5 -13t-25.5 5q-19 16 -12 43q1 4 6 15.5t10 24.5t11 29t10.5 30.5t7 27.5t1.5 21t-7 10q-31 7 -47 28q-12 17 -14.5 73z" />
<glyph unicode="&#x2022;" horiz-adv-x="567" d="M84 686q8 104 63 166t138 59q105 -4 152.5 -64.5t45.5 -160.5q-3 -105 -58.5 -165t-139.5 -60t-145.5 67t-55.5 158z" />
<glyph unicode="&#x2026;" horiz-adv-x="1310" d="M82 113q0 60 17 93t73 40q102 13 139 -45q13 -19 16.5 -61.5t-1.5 -65.5q-10 -44 -43.5 -63t-92.5 -17q-46 0 -76.5 29.5t-31.5 89.5zM541 113q0 60 17 93t73 40q102 14 139 -45q13 -19 16 -61t-4 -66q-9 -45 -42 -63.5t-93 -16.5q-45 0 -75.5 30t-30.5 89zM981 113 q0 60 17 93t73 40q102 13 139 -45q13 -19 16.5 -61.5t-1.5 -65.5q-10 -45 -43 -63.5t-92 -16.5q-46 0 -77 29.5t-32 89.5z" />
<glyph unicode="&#x202f;" horiz-adv-x="383" />
<glyph unicode="&#x2039;" horiz-adv-x="583" d="M82 615.5q0 29.5 18 54.5l262 350q21 25 67.5 6.5t62.5 -53.5q7 -15 -21 -61q-3 -5 -4 -7q-44 -69 -90 -138l-62 -93q-29 -50 0 -101q32 -53 72 -123t66 -112q7 -11 20.5 -28.5t19 -27t8 -22.5t-8 -25t-33.5 -26q-57 -37 -115 31q-54 62 -97 119t-84 115t-63 87 q-18 25 -18 54.5z" />
<glyph unicode="&#x203a;" horiz-adv-x="591" d="M83.5 260q2.5 13 8 22.5t19 27t20.5 28.5q23 37 65.5 111t82.5 139q19 37 0 69q-18 28 -67 101t-95 147q-28 46 -27 58q0 6 2 10q16 35 62 53.5t67 -6.5q71 -95 122 -163.5t91.5 -121.5t63.5 -84q11 -15 10.5 -35.5t-12.5 -35.5q-24 -31 -66.5 -92.5t-88 -122 t-101.5 -125.5q-29 -34 -53 -42t-62 11q-23 14 -33.5 26t-8 25z" />
<glyph unicode="&#x205f;" horiz-adv-x="479" />
<glyph unicode="&#x20ac;" horiz-adv-x="983" d="M43 553q-3 23 0 53q0 29 45 29q7 0 33.5 1t46.5 1q9 0 15.5 6.5t6.5 15.5q-2 27 -2 82q-2 9 -8.5 16t-15.5 7h-76q-28 0 -33 8t-8 52q-1 17 -2 28v10.5v9.5t0.5 7.5t2.5 6.5t5 4.5t7.5 4t11.5 2t16 2t21 0.5h65q8 0 15 6t8 15q9 85 31 150t67 147q43 73 107.5 128.5 t140.5 79.5q123 38 307 -2q12 -3 21 -15t8 -22l-17 -104q-10 -36 -41 -33q-7 1 -68.5 12.5t-93.5 10.5q-64 -4 -114 -34t-78 -76t-42.5 -96.5t-16.5 -104.5v-37q0 -9 6.5 -16t15.5 -7q320 4 371 0q13 -1 19.5 -5t7 -10.5t0.5 -15.5t1 -20q2 -14 2 -51q0 -16 -11.5 -21.5 t-33.5 -7.5q-60 0 -350 -4q-9 0 -15.5 -7t-6.5 -16l2 -90q0 -7 5 -12.5t13 -5.5q210 6 350 6q31 0 35.5 -10t7.5 -78q2 -18 1 -29t-14.5 -15.5t-47.5 -4.5q-170 0 -322 -2q-11 0 -17 -7.5t-5 -17.5q3 -125 39 -203q26 -54 86 -93t147 -36q40 3 137 31q15 3 29 -5.5t17 -23.5 l22 -90q3 -19 -6.5 -33.5t-26.5 -19.5q-111 -21 -213 -18q-166 -4 -276 95t-154 265q-12 69 -18 133q-3 21 -23 21q-98 0 -108 2q-14 1 -20.5 5.5t-8 9t-1.5 17t-1 19.5z" />
<glyph unicode="&#x2122;" horiz-adv-x="1083" d="M41 1352v65q0 8 5.5 14.5t12.5 6.5l154 2l166 -4q18 -3 18 -21l-2 -74q0 -18 -20 -18l-29 4q-13 0 -16 16v7q-4 16 -19 16h-41q-14 0 -14 -14l8 -320q0 -14 12 -14h13q15 -3 18 -19v-32q0 -8 -5.5 -14.5t-12.5 -6.5h-135q-7 0 -13 5.5t-6 11.5l-4 34q0 18 16 21h7 q16 3 16 18l2 310q0 8 -5 13t-13 5h-29q-7 0 -13 -5t-6 -11q-4 -20 -20 -17l-29 2q-16 0 -16 19zM430 1411q0 9 5.5 15t13.5 6h118q12 0 19 -11q8 -18 66.5 -139t78.5 -166q3 -8 12.5 -8t12.5 8q28 71 80 182t57 123q3 13 16 13h109q18 0 22 -21q2 -8 2 -29q0 -8 -5 -13 t-13 -5h-14q-7 0 -13 -6t-6 -14l4 -308q0 -8 6 -14t13 -6h2q7 0 12.5 -5.5t5.5 -13.5v-22q0 -11 -8 -20t-20 -9h-115q-7 0 -13 5.5t-8 11.5l-2 30q0 9 5.5 15t13.5 6q18 4 18 20q0 98 -2 178q0 12 -10.5 14.5t-15.5 -9.5q-18 -52 -55 -148.5t-42 -109.5q-3 -13 -18 -13 l-35 2q-12 0 -16 11l-117 266q-4 10 -15.5 8.5t-11.5 -12.5v-189q0 -6 5.5 -12t11.5 -6h2q16 -3 16 -19q2 -8 2 -30q3 -17 -16 -21h-137q-7 0 -13 6t-6 13v32q0 7 6 13t13 6h2q16 0 20 18q4 206 0 312q0 18 -16 18h-6q-19 4 -19 18z" />
<glyph unicode="&#x25fc;" horiz-adv-x="1126" d="M0 0v1126h1126v-1126h-1126z" />
</font>
</defs>
</svg>
